<svg width="471" height="525" viewBox="0 0 471 525" fill="none" xmlns="http://www.w3.org/2000/svg">
<rect width="471" height="525" fill="#1E1E1E"/>
<g id="header-banner">
<rect width="1440" height="525" transform="translate(-485)" fill="#CB513C"/>
<g id="dots">
<path id="Vector" d="M1.79551 30.7955C2.78714 30.7955 3.59102 29.9916 3.59102 29C3.59102 28.0083 2.78714 27.2045 1.79551 27.2045C0.803877 27.2045 0 28.0083 0 29C0 29.9916 0.803877 30.7955 1.79551 30.7955Z" fill="#D57254"/>
<path id="Vector_2" d="M1.79551 66.7057C2.78714 66.7057 3.59102 65.9018 3.59102 64.9102C3.59102 63.9186 2.78714 63.1147 1.79551 63.1147C0.803877 63.1147 0 63.9186 0 64.9102C0 65.9018 0.803877 66.7057 1.79551 66.7057Z" fill="#D57254"/>
<path id="Vector_3" d="M1.79551 102.615C2.78714 102.615 3.59102 101.812 3.59102 100.82C3.59102 99.8284 2.78714 99.0245 1.79551 99.0245C0.803877 99.0245 0 99.8284 0 100.82C0 101.812 0.803877 102.615 1.79551 102.615Z" fill="#D57254"/>
<path id="Vector_4" d="M1.79551 138.527C2.78714 138.527 3.59102 137.723 3.59102 136.731C3.59102 135.739 2.78714 134.935 1.79551 134.935C0.803877 134.935 0 135.739 0 136.731C0 137.723 0.803877 138.527 1.79551 138.527Z" fill="#D57254"/>
<path id="Vector_5" d="M1.79551 174.436C2.78714 174.436 3.59102 173.633 3.59102 172.641C3.59102 171.649 2.78714 170.845 1.79551 170.845C0.803877 170.845 0 171.649 0 172.641C0 173.633 0.803877 174.436 1.79551 174.436Z" fill="#D57254"/>
<path id="Vector_6" d="M1.79551 210.347C2.78714 210.347 3.59102 209.543 3.59102 208.551C3.59102 207.559 2.78714 206.755 1.79551 206.755C0.803877 206.755 0 207.559 0 208.551C0 209.543 0.803877 210.347 1.79551 210.347Z" fill="#D57254"/>
<path id="Vector_7" d="M1.79551 246.257C2.78714 246.257 3.59102 245.453 3.59102 244.461C3.59102 243.469 2.78714 242.665 1.79551 242.665C0.803877 242.665 0 243.469 0 244.461C0 245.453 0.803877 246.257 1.79551 246.257Z" fill="#D57254"/>
<path id="Vector_8" d="M1.79551 282.168C2.78714 282.168 3.59102 281.364 3.59102 280.372C3.59102 279.38 2.78714 278.576 1.79551 278.576C0.803877 278.576 0 279.38 0 280.372C0 281.364 0.803877 282.168 1.79551 282.168Z" fill="#D57254"/>
<path id="Vector_9" d="M1.79551 318.078C2.78714 318.078 3.59102 317.274 3.59102 316.282C3.59102 315.29 2.78714 314.486 1.79551 314.486C0.803877 314.486 0 315.29 0 316.282C0 317.274 0.803877 318.078 1.79551 318.078Z" fill="#D57254"/>
<path id="Vector_10" d="M1.79551 353.988C2.78714 353.988 3.59102 353.184 3.59102 352.192C3.59102 351.2 2.78714 350.396 1.79551 350.396C0.803877 350.396 0 351.2 0 352.192C0 353.184 0.803877 353.988 1.79551 353.988Z" fill="#D57254"/>
<path id="Vector_11" d="M1.79551 389.898C2.78714 389.898 3.59102 389.094 3.59102 388.102C3.59102 387.11 2.78714 386.306 1.79551 386.306C0.803877 386.306 0 387.11 0 388.102C0 389.094 0.803877 389.898 1.79551 389.898Z" fill="#D57254"/>
<path id="Vector_12" d="M1.79551 425.807C2.78714 425.807 3.59102 425.004 3.59102 424.012C3.59102 423.02 2.78714 422.216 1.79551 422.216C0.803877 422.216 0 423.02 0 424.012C0 425.004 0.803877 425.807 1.79551 425.807Z" fill="#D57254"/>
<path id="Vector_13" d="M1.79551 461.719C2.78714 461.719 3.59102 460.915 3.59102 459.923C3.59102 458.931 2.78714 458.128 1.79551 458.128C0.803877 458.128 0 458.931 0 459.923C0 460.915 0.803877 461.719 1.79551 461.719Z" fill="#D57254"/>
<path id="Vector_14" d="M1.79551 497.629C2.78714 497.629 3.59102 496.825 3.59102 495.833C3.59102 494.841 2.78714 494.037 1.79551 494.037C0.803877 494.037 0 494.841 0 495.833C0 496.825 0.803877 497.629 1.79551 497.629Z" fill="#D57254"/>
<path id="Vector_15" d="M37.7059 30.7955C38.6975 30.7955 39.5014 29.9916 39.5014 29C39.5014 28.0083 38.6975 27.2045 37.7059 27.2045C36.7143 27.2045 35.9104 28.0083 35.9104 29C35.9104 29.9916 36.7143 30.7955 37.7059 30.7955Z" fill="#D57254"/>
<path id="Vector_16" d="M37.7059 66.7057C38.6975 66.7057 39.5014 65.9018 39.5014 64.9102C39.5014 63.9186 38.6975 63.1147 37.7059 63.1147C36.7143 63.1147 35.9104 63.9186 35.9104 64.9102C35.9104 65.9018 36.7143 66.7057 37.7059 66.7057Z" fill="#D57254"/>
<path id="Vector_17" d="M37.7059 102.615C38.6975 102.615 39.5014 101.812 39.5014 100.82C39.5014 99.8284 38.6975 99.0245 37.7059 99.0245C36.7143 99.0245 35.9104 99.8284 35.9104 100.82C35.9104 101.812 36.7143 102.615 37.7059 102.615Z" fill="#D57254"/>
<path id="Vector_18" d="M37.7059 138.527C38.6975 138.527 39.5014 137.723 39.5014 136.731C39.5014 135.739 38.6975 134.935 37.7059 134.935C36.7143 134.935 35.9104 135.739 35.9104 136.731C35.9104 137.723 36.7143 138.527 37.7059 138.527Z" fill="#D57254"/>
<path id="Vector_19" d="M37.7059 174.436C38.6975 174.436 39.5014 173.633 39.5014 172.641C39.5014 171.649 38.6975 170.845 37.7059 170.845C36.7143 170.845 35.9104 171.649 35.9104 172.641C35.9104 173.633 36.7143 174.436 37.7059 174.436Z" fill="#D57254"/>
<path id="Vector_20" d="M37.7059 210.347C38.6975 210.347 39.5014 209.543 39.5014 208.551C39.5014 207.559 38.6975 206.755 37.7059 206.755C36.7143 206.755 35.9104 207.559 35.9104 208.551C35.9104 209.543 36.7143 210.347 37.7059 210.347Z" fill="#D57254"/>
<path id="Vector_21" d="M37.7059 246.257C38.6975 246.257 39.5014 245.453 39.5014 244.461C39.5014 243.469 38.6975 242.665 37.7059 242.665C36.7143 242.665 35.9104 243.469 35.9104 244.461C35.9104 245.453 36.7143 246.257 37.7059 246.257Z" fill="#D57254"/>
<path id="Vector_22" d="M37.7059 282.168C38.6975 282.168 39.5014 281.364 39.5014 280.372C39.5014 279.38 38.6975 278.576 37.7059 278.576C36.7143 278.576 35.9104 279.38 35.9104 280.372C35.9104 281.364 36.7143 282.168 37.7059 282.168Z" fill="#D57254"/>
<path id="Vector_23" d="M37.7059 318.078C38.6975 318.078 39.5014 317.274 39.5014 316.282C39.5014 315.29 38.6975 314.486 37.7059 314.486C36.7143 314.486 35.9104 315.29 35.9104 316.282C35.9104 317.274 36.7143 318.078 37.7059 318.078Z" fill="#D57254"/>
<path id="Vector_24" d="M37.7059 353.988C38.6975 353.988 39.5014 353.184 39.5014 352.192C39.5014 351.2 38.6975 350.396 37.7059 350.396C36.7143 350.396 35.9104 351.2 35.9104 352.192C35.9104 353.184 36.7143 353.988 37.7059 353.988Z" fill="#D57254"/>
<path id="Vector_25" d="M37.7059 389.898C38.6975 389.898 39.5014 389.094 39.5014 388.102C39.5014 387.11 38.6975 386.306 37.7059 386.306C36.7143 386.306 35.9104 387.11 35.9104 388.102C35.9104 389.094 36.7143 389.898 37.7059 389.898Z" fill="#D57254"/>
<path id="Vector_26" d="M37.7059 425.807C38.6975 425.807 39.5014 425.004 39.5014 424.012C39.5014 423.02 38.6975 422.216 37.7059 422.216C36.7143 422.216 35.9104 423.02 35.9104 424.012C35.9104 425.004 36.7143 425.807 37.7059 425.807Z" fill="#D57254"/>
<path id="Vector_27" d="M37.7059 461.719C38.6975 461.719 39.5014 460.915 39.5014 459.923C39.5014 458.931 38.6975 458.128 37.7059 458.128C36.7143 458.128 35.9104 458.931 35.9104 459.923C35.9104 460.915 36.7143 461.719 37.7059 461.719Z" fill="#D57254"/>
<path id="Vector_28" d="M37.7059 497.629C38.6975 497.629 39.5014 496.825 39.5014 495.833C39.5014 494.841 38.6975 494.037 37.7059 494.037C36.7143 494.037 35.9104 494.841 35.9104 495.833C35.9104 496.825 36.7143 497.629 37.7059 497.629Z" fill="#D57254"/>
<path id="Vector_29" d="M73.6161 30.7955C74.6077 30.7955 75.4116 29.9916 75.4116 29C75.4116 28.0083 74.6077 27.2045 73.6161 27.2045C72.6244 27.2045 71.8206 28.0083 71.8206 29C71.8206 29.9916 72.6244 30.7955 73.6161 30.7955Z" fill="#D57254"/>
<path id="Vector_30" d="M73.6161 66.7057C74.6077 66.7057 75.4116 65.9018 75.4116 64.9102C75.4116 63.9186 74.6077 63.1147 73.6161 63.1147C72.6244 63.1147 71.8206 63.9186 71.8206 64.9102C71.8206 65.9018 72.6244 66.7057 73.6161 66.7057Z" fill="#D57254"/>
<path id="Vector_31" d="M73.6161 102.615C74.6077 102.615 75.4116 101.812 75.4116 100.82C75.4116 99.8284 74.6077 99.0245 73.6161 99.0245C72.6244 99.0245 71.8206 99.8284 71.8206 100.82C71.8206 101.812 72.6244 102.615 73.6161 102.615Z" fill="#D57254"/>
<path id="Vector_32" d="M73.6161 138.527C74.6077 138.527 75.4116 137.723 75.4116 136.731C75.4116 135.739 74.6077 134.935 73.6161 134.935C72.6244 134.935 71.8206 135.739 71.8206 136.731C71.8206 137.723 72.6244 138.527 73.6161 138.527Z" fill="#D57254"/>
<path id="Vector_33" d="M73.6161 174.436C74.6077 174.436 75.4116 173.633 75.4116 172.641C75.4116 171.649 74.6077 170.845 73.6161 170.845C72.6244 170.845 71.8206 171.649 71.8206 172.641C71.8206 173.633 72.6244 174.436 73.6161 174.436Z" fill="#D57254"/>
<path id="Vector_34" d="M73.6161 210.347C74.6077 210.347 75.4116 209.543 75.4116 208.551C75.4116 207.559 74.6077 206.755 73.6161 206.755C72.6244 206.755 71.8206 207.559 71.8206 208.551C71.8206 209.543 72.6244 210.347 73.6161 210.347Z" fill="#D57254"/>
<path id="Vector_35" d="M73.6161 246.257C74.6077 246.257 75.4116 245.453 75.4116 244.461C75.4116 243.469 74.6077 242.665 73.6161 242.665C72.6244 242.665 71.8206 243.469 71.8206 244.461C71.8206 245.453 72.6244 246.257 73.6161 246.257Z" fill="#D57254"/>
<path id="Vector_36" d="M73.6161 282.168C74.6077 282.168 75.4116 281.364 75.4116 280.372C75.4116 279.38 74.6077 278.576 73.6161 278.576C72.6244 278.576 71.8206 279.38 71.8206 280.372C71.8206 281.364 72.6244 282.168 73.6161 282.168Z" fill="#D57254"/>
<path id="Vector_37" d="M73.6161 318.078C74.6077 318.078 75.4116 317.274 75.4116 316.282C75.4116 315.29 74.6077 314.486 73.6161 314.486C72.6244 314.486 71.8206 315.29 71.8206 316.282C71.8206 317.274 72.6244 318.078 73.6161 318.078Z" fill="#D57254"/>
<path id="Vector_38" d="M73.6161 353.988C74.6077 353.988 75.4116 353.184 75.4116 352.192C75.4116 351.2 74.6077 350.396 73.6161 350.396C72.6244 350.396 71.8206 351.2 71.8206 352.192C71.8206 353.184 72.6244 353.988 73.6161 353.988Z" fill="#D57254"/>
<path id="Vector_39" d="M73.6161 389.898C74.6077 389.898 75.4116 389.094 75.4116 388.102C75.4116 387.11 74.6077 386.306 73.6161 386.306C72.6244 386.306 71.8206 387.11 71.8206 388.102C71.8206 389.094 72.6244 389.898 73.6161 389.898Z" fill="#D57254"/>
<path id="Vector_40" d="M73.6161 425.807C74.6077 425.807 75.4116 425.004 75.4116 424.012C75.4116 423.02 74.6077 422.216 73.6161 422.216C72.6244 422.216 71.8206 423.02 71.8206 424.012C71.8206 425.004 72.6244 425.807 73.6161 425.807Z" fill="#D57254"/>
<path id="Vector_41" d="M73.6161 461.719C74.6077 461.719 75.4116 460.915 75.4116 459.923C75.4116 458.931 74.6077 458.128 73.6161 458.128C72.6244 458.128 71.8206 458.931 71.8206 459.923C71.8206 460.915 72.6244 461.719 73.6161 461.719Z" fill="#D57254"/>
<path id="Vector_42" d="M73.6161 497.629C74.6077 497.629 75.4116 496.825 75.4116 495.833C75.4116 494.841 74.6077 494.037 73.6161 494.037C72.6244 494.037 71.8206 494.841 71.8206 495.833C71.8206 496.825 72.6244 497.629 73.6161 497.629Z" fill="#D57254"/>
<path id="Vector_43" d="M109.526 30.7955C110.518 30.7955 111.321 29.9916 111.321 29C111.321 28.0083 110.518 27.2045 109.526 27.2045C108.534 27.2045 107.73 28.0083 107.73 29C107.73 29.9916 108.534 30.7955 109.526 30.7955Z" fill="#D57254"/>
<path id="Vector_44" d="M109.526 66.7057C110.518 66.7057 111.321 65.9018 111.321 64.9102C111.321 63.9186 110.518 63.1147 109.526 63.1147C108.534 63.1147 107.73 63.9186 107.73 64.9102C107.73 65.9018 108.534 66.7057 109.526 66.7057Z" fill="#D57254"/>
<path id="Vector_45" d="M109.526 102.615C110.518 102.615 111.321 101.812 111.321 100.82C111.321 99.8284 110.518 99.0245 109.526 99.0245C108.534 99.0245 107.73 99.8284 107.73 100.82C107.73 101.812 108.534 102.615 109.526 102.615Z" fill="#D57254"/>
<path id="Vector_46" d="M109.526 138.527C110.518 138.527 111.321 137.723 111.321 136.731C111.321 135.739 110.518 134.935 109.526 134.935C108.534 134.935 107.73 135.739 107.73 136.731C107.73 137.723 108.534 138.527 109.526 138.527Z" fill="#D57254"/>
<path id="Vector_47" d="M109.526 174.436C110.518 174.436 111.321 173.633 111.321 172.641C111.321 171.649 110.518 170.845 109.526 170.845C108.534 170.845 107.73 171.649 107.73 172.641C107.73 173.633 108.534 174.436 109.526 174.436Z" fill="#D57254"/>
<path id="Vector_48" d="M109.526 210.347C110.518 210.347 111.321 209.543 111.321 208.551C111.321 207.559 110.518 206.755 109.526 206.755C108.534 206.755 107.73 207.559 107.73 208.551C107.73 209.543 108.534 210.347 109.526 210.347Z" fill="#D57254"/>
<path id="Vector_49" d="M109.526 246.257C110.518 246.257 111.321 245.453 111.321 244.461C111.321 243.469 110.518 242.665 109.526 242.665C108.534 242.665 107.73 243.469 107.73 244.461C107.73 245.453 108.534 246.257 109.526 246.257Z" fill="#D57254"/>
<path id="Vector_50" d="M109.526 282.168C110.518 282.168 111.321 281.364 111.321 280.372C111.321 279.38 110.518 278.576 109.526 278.576C108.534 278.576 107.73 279.38 107.73 280.372C107.73 281.364 108.534 282.168 109.526 282.168Z" fill="#D57254"/>
<path id="Vector_51" d="M109.526 318.078C110.518 318.078 111.321 317.274 111.321 316.282C111.321 315.29 110.518 314.486 109.526 314.486C108.534 314.486 107.73 315.29 107.73 316.282C107.73 317.274 108.534 318.078 109.526 318.078Z" fill="#D57254"/>
<path id="Vector_52" d="M109.526 353.988C110.518 353.988 111.321 353.184 111.321 352.192C111.321 351.2 110.518 350.396 109.526 350.396C108.534 350.396 107.73 351.2 107.73 352.192C107.73 353.184 108.534 353.988 109.526 353.988Z" fill="#D57254"/>
<path id="Vector_53" d="M109.526 389.898C110.518 389.898 111.321 389.094 111.321 388.102C111.321 387.11 110.518 386.306 109.526 386.306C108.534 386.306 107.73 387.11 107.73 388.102C107.73 389.094 108.534 389.898 109.526 389.898Z" fill="#D57254"/>
<path id="Vector_54" d="M109.526 425.807C110.518 425.807 111.321 425.004 111.321 424.012C111.321 423.02 110.518 422.216 109.526 422.216C108.534 422.216 107.73 423.02 107.73 424.012C107.73 425.004 108.534 425.807 109.526 425.807Z" fill="#D57254"/>
<path id="Vector_55" d="M109.526 461.719C110.518 461.719 111.321 460.915 111.321 459.923C111.321 458.931 110.518 458.128 109.526 458.128C108.534 458.128 107.73 458.931 107.73 459.923C107.73 460.915 108.534 461.719 109.526 461.719Z" fill="#D57254"/>
<path id="Vector_56" d="M109.526 497.629C110.518 497.629 111.321 496.825 111.321 495.833C111.321 494.841 110.518 494.037 109.526 494.037C108.534 494.037 107.73 494.841 107.73 495.833C107.73 496.825 108.534 497.629 109.526 497.629Z" fill="#D57254"/>
<path id="Vector_57" d="M145.436 30.7955C146.428 30.7955 147.231 29.9916 147.231 29C147.231 28.0083 146.428 27.2045 145.436 27.2045C144.444 27.2045 143.64 28.0083 143.64 29C143.64 29.9916 144.444 30.7955 145.436 30.7955Z" fill="#D57254"/>
<path id="Vector_58" d="M145.436 66.7057C146.428 66.7057 147.231 65.9018 147.231 64.9102C147.231 63.9186 146.428 63.1147 145.436 63.1147C144.444 63.1147 143.64 63.9186 143.64 64.9102C143.64 65.9018 144.444 66.7057 145.436 66.7057Z" fill="#D57254"/>
<path id="Vector_59" d="M145.436 102.615C146.428 102.615 147.231 101.812 147.231 100.82C147.231 99.8284 146.428 99.0245 145.436 99.0245C144.444 99.0245 143.64 99.8284 143.64 100.82C143.64 101.812 144.444 102.615 145.436 102.615Z" fill="#D57254"/>
<path id="Vector_60" d="M145.436 138.527C146.428 138.527 147.231 137.723 147.231 136.731C147.231 135.739 146.428 134.935 145.436 134.935C144.444 134.935 143.64 135.739 143.64 136.731C143.64 137.723 144.444 138.527 145.436 138.527Z" fill="#D57254"/>
<path id="Vector_61" d="M145.436 174.436C146.428 174.436 147.231 173.633 147.231 172.641C147.231 171.649 146.428 170.845 145.436 170.845C144.444 170.845 143.64 171.649 143.64 172.641C143.64 173.633 144.444 174.436 145.436 174.436Z" fill="#D57254"/>
<path id="Vector_62" d="M145.436 210.347C146.428 210.347 147.231 209.543 147.231 208.551C147.231 207.559 146.428 206.755 145.436 206.755C144.444 206.755 143.64 207.559 143.64 208.551C143.64 209.543 144.444 210.347 145.436 210.347Z" fill="#D57254"/>
<path id="Vector_63" d="M145.436 246.257C146.428 246.257 147.231 245.453 147.231 244.461C147.231 243.469 146.428 242.665 145.436 242.665C144.444 242.665 143.64 243.469 143.64 244.461C143.64 245.453 144.444 246.257 145.436 246.257Z" fill="#D57254"/>
<path id="Vector_64" d="M145.436 282.168C146.428 282.168 147.231 281.364 147.231 280.372C147.231 279.38 146.428 278.576 145.436 278.576C144.444 278.576 143.64 279.38 143.64 280.372C143.64 281.364 144.444 282.168 145.436 282.168Z" fill="#D57254"/>
<path id="Vector_65" d="M145.436 318.078C146.428 318.078 147.231 317.274 147.231 316.282C147.231 315.29 146.428 314.486 145.436 314.486C144.444 314.486 143.64 315.29 143.64 316.282C143.64 317.274 144.444 318.078 145.436 318.078Z" fill="#D57254"/>
<path id="Vector_66" d="M145.436 353.988C146.428 353.988 147.231 353.184 147.231 352.192C147.231 351.2 146.428 350.396 145.436 350.396C144.444 350.396 143.64 351.2 143.64 352.192C143.64 353.184 144.444 353.988 145.436 353.988Z" fill="#D57254"/>
<path id="Vector_67" d="M145.436 389.898C146.428 389.898 147.231 389.094 147.231 388.102C147.231 387.11 146.428 386.306 145.436 386.306C144.444 386.306 143.64 387.11 143.64 388.102C143.64 389.094 144.444 389.898 145.436 389.898Z" fill="#D57254"/>
<path id="Vector_68" d="M145.436 425.807C146.428 425.807 147.231 425.004 147.231 424.012C147.231 423.02 146.428 422.216 145.436 422.216C144.444 422.216 143.64 423.02 143.64 424.012C143.64 425.004 144.444 425.807 145.436 425.807Z" fill="#D57254"/>
<path id="Vector_69" d="M145.436 461.719C146.428 461.719 147.231 460.915 147.231 459.923C147.231 458.931 146.428 458.128 145.436 458.128C144.444 458.128 143.64 458.931 143.64 459.923C143.64 460.915 144.444 461.719 145.436 461.719Z" fill="#D57254"/>
<path id="Vector_70" d="M145.436 497.629C146.428 497.629 147.231 496.825 147.231 495.833C147.231 494.841 146.428 494.037 145.436 494.037C144.444 494.037 143.64 494.841 143.64 495.833C143.64 496.825 144.444 497.629 145.436 497.629Z" fill="#D57254"/>
<path id="Vector_71" d="M181.347 30.7955C182.339 30.7955 183.143 29.9916 183.143 29C183.143 28.0083 182.339 27.2045 181.347 27.2045C180.355 27.2045 179.552 28.0083 179.552 29C179.552 29.9916 180.355 30.7955 181.347 30.7955Z" fill="#D57254"/>
<path id="Vector_72" d="M181.347 66.7057C182.339 66.7057 183.143 65.9018 183.143 64.9102C183.143 63.9186 182.339 63.1147 181.347 63.1147C180.355 63.1147 179.552 63.9186 179.552 64.9102C179.552 65.9018 180.355 66.7057 181.347 66.7057Z" fill="#D57254"/>
<path id="Vector_73" d="M181.347 102.615C182.339 102.615 183.143 101.812 183.143 100.82C183.143 99.8284 182.339 99.0245 181.347 99.0245C180.355 99.0245 179.552 99.8284 179.552 100.82C179.552 101.812 180.355 102.615 181.347 102.615Z" fill="#D57254"/>
<path id="Vector_74" d="M181.347 138.527C182.339 138.527 183.143 137.723 183.143 136.731C183.143 135.739 182.339 134.935 181.347 134.935C180.355 134.935 179.552 135.739 179.552 136.731C179.552 137.723 180.355 138.527 181.347 138.527Z" fill="#D57254"/>
<path id="Vector_75" d="M181.347 174.436C182.339 174.436 183.143 173.633 183.143 172.641C183.143 171.649 182.339 170.845 181.347 170.845C180.355 170.845 179.552 171.649 179.552 172.641C179.552 173.633 180.355 174.436 181.347 174.436Z" fill="#D57254"/>
<path id="Vector_76" d="M181.347 210.347C182.339 210.347 183.143 209.543 183.143 208.551C183.143 207.559 182.339 206.755 181.347 206.755C180.355 206.755 179.552 207.559 179.552 208.551C179.552 209.543 180.355 210.347 181.347 210.347Z" fill="#D57254"/>
<path id="Vector_77" d="M181.347 246.257C182.339 246.257 183.143 245.453 183.143 244.461C183.143 243.469 182.339 242.665 181.347 242.665C180.355 242.665 179.552 243.469 179.552 244.461C179.552 245.453 180.355 246.257 181.347 246.257Z" fill="#D57254"/>
<path id="Vector_78" d="M181.347 282.168C182.339 282.168 183.143 281.364 183.143 280.372C183.143 279.38 182.339 278.576 181.347 278.576C180.355 278.576 179.552 279.38 179.552 280.372C179.552 281.364 180.355 282.168 181.347 282.168Z" fill="#D57254"/>
<path id="Vector_79" d="M181.347 318.078C182.339 318.078 183.143 317.274 183.143 316.282C183.143 315.29 182.339 314.486 181.347 314.486C180.355 314.486 179.552 315.29 179.552 316.282C179.552 317.274 180.355 318.078 181.347 318.078Z" fill="#D57254"/>
<path id="Vector_80" d="M181.347 353.988C182.339 353.988 183.143 353.184 183.143 352.192C183.143 351.2 182.339 350.396 181.347 350.396C180.355 350.396 179.552 351.2 179.552 352.192C179.552 353.184 180.355 353.988 181.347 353.988Z" fill="#D57254"/>
<path id="Vector_81" d="M181.347 389.898C182.339 389.898 183.143 389.094 183.143 388.102C183.143 387.11 182.339 386.306 181.347 386.306C180.355 386.306 179.552 387.11 179.552 388.102C179.552 389.094 180.355 389.898 181.347 389.898Z" fill="#D57254"/>
<path id="Vector_82" d="M181.347 425.807C182.339 425.807 183.143 425.004 183.143 424.012C183.143 423.02 182.339 422.216 181.347 422.216C180.355 422.216 179.552 423.02 179.552 424.012C179.552 425.004 180.355 425.807 181.347 425.807Z" fill="#D57254"/>
<path id="Vector_83" d="M181.347 461.719C182.339 461.719 183.143 460.915 183.143 459.923C183.143 458.931 182.339 458.128 181.347 458.128C180.355 458.128 179.552 458.931 179.552 459.923C179.552 460.915 180.355 461.719 181.347 461.719Z" fill="#D57254"/>
<path id="Vector_84" d="M181.347 497.629C182.339 497.629 183.143 496.825 183.143 495.833C183.143 494.841 182.339 494.037 181.347 494.037C180.355 494.037 179.552 494.841 179.552 495.833C179.552 496.825 180.355 497.629 181.347 497.629Z" fill="#D57254"/>
<path id="Vector_85" d="M217.257 30.7955C218.249 30.7955 219.052 29.9916 219.052 29C219.052 28.0083 218.249 27.2045 217.257 27.2045C216.265 27.2045 215.461 28.0083 215.461 29C215.461 29.9916 216.265 30.7955 217.257 30.7955Z" fill="#D57254"/>
<path id="Vector_86" d="M217.257 66.7057C218.249 66.7057 219.052 65.9018 219.052 64.9102C219.052 63.9186 218.249 63.1147 217.257 63.1147C216.265 63.1147 215.461 63.9186 215.461 64.9102C215.461 65.9018 216.265 66.7057 217.257 66.7057Z" fill="#D57254"/>
<path id="Vector_87" d="M217.257 102.615C218.249 102.615 219.052 101.812 219.052 100.82C219.052 99.8284 218.249 99.0245 217.257 99.0245C216.265 99.0245 215.461 99.8284 215.461 100.82C215.461 101.812 216.265 102.615 217.257 102.615Z" fill="#D57254"/>
<path id="Vector_88" d="M217.257 138.527C218.249 138.527 219.052 137.723 219.052 136.731C219.052 135.739 218.249 134.935 217.257 134.935C216.265 134.935 215.461 135.739 215.461 136.731C215.461 137.723 216.265 138.527 217.257 138.527Z" fill="#D57254"/>
<path id="Vector_89" d="M217.257 174.436C218.249 174.436 219.052 173.633 219.052 172.641C219.052 171.649 218.249 170.845 217.257 170.845C216.265 170.845 215.461 171.649 215.461 172.641C215.461 173.633 216.265 174.436 217.257 174.436Z" fill="#D57254"/>
<path id="Vector_90" d="M217.257 210.347C218.249 210.347 219.052 209.543 219.052 208.551C219.052 207.559 218.249 206.755 217.257 206.755C216.265 206.755 215.461 207.559 215.461 208.551C215.461 209.543 216.265 210.347 217.257 210.347Z" fill="#D57254"/>
<path id="Vector_91" d="M217.257 246.257C218.249 246.257 219.052 245.453 219.052 244.461C219.052 243.469 218.249 242.665 217.257 242.665C216.265 242.665 215.461 243.469 215.461 244.461C215.461 245.453 216.265 246.257 217.257 246.257Z" fill="#D57254"/>
<path id="Vector_92" d="M217.257 282.168C218.249 282.168 219.052 281.364 219.052 280.372C219.052 279.38 218.249 278.576 217.257 278.576C216.265 278.576 215.461 279.38 215.461 280.372C215.461 281.364 216.265 282.168 217.257 282.168Z" fill="#D57254"/>
<path id="Vector_93" d="M217.257 318.078C218.249 318.078 219.052 317.274 219.052 316.282C219.052 315.29 218.249 314.486 217.257 314.486C216.265 314.486 215.461 315.29 215.461 316.282C215.461 317.274 216.265 318.078 217.257 318.078Z" fill="#D57254"/>
<path id="Vector_94" d="M217.257 353.988C218.249 353.988 219.052 353.184 219.052 352.192C219.052 351.2 218.249 350.396 217.257 350.396C216.265 350.396 215.461 351.2 215.461 352.192C215.461 353.184 216.265 353.988 217.257 353.988Z" fill="#D57254"/>
<path id="Vector_95" d="M217.257 389.898C218.249 389.898 219.052 389.094 219.052 388.102C219.052 387.11 218.249 386.306 217.257 386.306C216.265 386.306 215.461 387.11 215.461 388.102C215.461 389.094 216.265 389.898 217.257 389.898Z" fill="#D57254"/>
<path id="Vector_96" d="M217.257 425.807C218.249 425.807 219.052 425.004 219.052 424.012C219.052 423.02 218.249 422.216 217.257 422.216C216.265 422.216 215.461 423.02 215.461 424.012C215.461 425.004 216.265 425.807 217.257 425.807Z" fill="#D57254"/>
<path id="Vector_97" d="M217.257 461.719C218.249 461.719 219.052 460.915 219.052 459.923C219.052 458.931 218.249 458.128 217.257 458.128C216.265 458.128 215.461 458.931 215.461 459.923C215.461 460.915 216.265 461.719 217.257 461.719Z" fill="#D57254"/>
<path id="Vector_98" d="M217.257 497.629C218.249 497.629 219.052 496.825 219.052 495.833C219.052 494.841 218.249 494.037 217.257 494.037C216.265 494.037 215.461 494.841 215.461 495.833C215.461 496.825 216.265 497.629 217.257 497.629Z" fill="#D57254"/>
<path id="Vector_99" d="M253.167 30.7955C254.159 30.7955 254.963 29.9916 254.963 29C254.963 28.0083 254.159 27.2045 253.167 27.2045C252.175 27.2045 251.372 28.0083 251.372 29C251.372 29.9916 252.175 30.7955 253.167 30.7955Z" fill="#D57254"/>
<path id="Vector_100" d="M253.167 66.7057C254.159 66.7057 254.963 65.9018 254.963 64.9102C254.963 63.9186 254.159 63.1147 253.167 63.1147C252.175 63.1147 251.372 63.9186 251.372 64.9102C251.372 65.9018 252.175 66.7057 253.167 66.7057Z" fill="#D57254"/>
<path id="Vector_101" d="M253.167 102.615C254.159 102.615 254.963 101.812 254.963 100.82C254.963 99.8284 254.159 99.0245 253.167 99.0245C252.175 99.0245 251.372 99.8284 251.372 100.82C251.372 101.812 252.175 102.615 253.167 102.615Z" fill="#D57254"/>
<path id="Vector_102" d="M253.167 138.527C254.159 138.527 254.963 137.723 254.963 136.731C254.963 135.739 254.159 134.935 253.167 134.935C252.175 134.935 251.372 135.739 251.372 136.731C251.372 137.723 252.175 138.527 253.167 138.527Z" fill="#D57254"/>
<path id="Vector_103" d="M253.167 174.436C254.159 174.436 254.963 173.633 254.963 172.641C254.963 171.649 254.159 170.845 253.167 170.845C252.175 170.845 251.372 171.649 251.372 172.641C251.372 173.633 252.175 174.436 253.167 174.436Z" fill="#D57254"/>
<path id="Vector_104" d="M253.167 210.347C254.159 210.347 254.963 209.543 254.963 208.551C254.963 207.559 254.159 206.755 253.167 206.755C252.175 206.755 251.372 207.559 251.372 208.551C251.372 209.543 252.175 210.347 253.167 210.347Z" fill="#D57254"/>
<path id="Vector_105" d="M253.167 246.257C254.159 246.257 254.963 245.453 254.963 244.461C254.963 243.469 254.159 242.665 253.167 242.665C252.175 242.665 251.372 243.469 251.372 244.461C251.372 245.453 252.175 246.257 253.167 246.257Z" fill="#D57254"/>
<path id="Vector_106" d="M253.167 282.168C254.159 282.168 254.963 281.364 254.963 280.372C254.963 279.38 254.159 278.576 253.167 278.576C252.175 278.576 251.372 279.38 251.372 280.372C251.372 281.364 252.175 282.168 253.167 282.168Z" fill="#D57254"/>
<path id="Vector_107" d="M253.167 318.078C254.159 318.078 254.963 317.274 254.963 316.282C254.963 315.29 254.159 314.486 253.167 314.486C252.175 314.486 251.372 315.29 251.372 316.282C251.372 317.274 252.175 318.078 253.167 318.078Z" fill="#D57254"/>
<path id="Vector_108" d="M253.167 353.988C254.159 353.988 254.963 353.184 254.963 352.192C254.963 351.2 254.159 350.396 253.167 350.396C252.175 350.396 251.372 351.2 251.372 352.192C251.372 353.184 252.175 353.988 253.167 353.988Z" fill="#D57254"/>
<path id="Vector_109" d="M253.167 389.898C254.159 389.898 254.963 389.094 254.963 388.102C254.963 387.11 254.159 386.306 253.167 386.306C252.175 386.306 251.372 387.11 251.372 388.102C251.372 389.094 252.175 389.898 253.167 389.898Z" fill="#D57254"/>
<path id="Vector_110" d="M253.167 425.807C254.159 425.807 254.963 425.004 254.963 424.012C254.963 423.02 254.159 422.216 253.167 422.216C252.175 422.216 251.372 423.02 251.372 424.012C251.372 425.004 252.175 425.807 253.167 425.807Z" fill="#D57254"/>
<path id="Vector_111" d="M253.167 461.719C254.159 461.719 254.963 460.915 254.963 459.923C254.963 458.931 254.159 458.128 253.167 458.128C252.175 458.128 251.372 458.931 251.372 459.923C251.372 460.915 252.175 461.719 253.167 461.719Z" fill="#D57254"/>
<path id="Vector_112" d="M253.167 497.629C254.159 497.629 254.963 496.825 254.963 495.833C254.963 494.841 254.159 494.037 253.167 494.037C252.175 494.037 251.372 494.841 251.372 495.833C251.372 496.825 252.175 497.629 253.167 497.629Z" fill="#D57254"/>
<path id="Vector_113" d="M289.077 30.7955C290.069 30.7955 290.872 29.9916 290.872 29C290.872 28.0083 290.069 27.2045 289.077 27.2045C288.085 27.2045 287.281 28.0083 287.281 29C287.281 29.9916 288.085 30.7955 289.077 30.7955Z" fill="#D57254"/>
<path id="Vector_114" d="M289.077 66.7057C290.069 66.7057 290.872 65.9018 290.872 64.9102C290.872 63.9186 290.069 63.1147 289.077 63.1147C288.085 63.1147 287.281 63.9186 287.281 64.9102C287.281 65.9018 288.085 66.7057 289.077 66.7057Z" fill="#D57254"/>
<path id="Vector_115" d="M289.077 102.615C290.069 102.615 290.872 101.812 290.872 100.82C290.872 99.8284 290.069 99.0245 289.077 99.0245C288.085 99.0245 287.281 99.8284 287.281 100.82C287.281 101.812 288.085 102.615 289.077 102.615Z" fill="#D57254"/>
<path id="Vector_116" d="M289.077 138.527C290.069 138.527 290.872 137.723 290.872 136.731C290.872 135.739 290.069 134.935 289.077 134.935C288.085 134.935 287.281 135.739 287.281 136.731C287.281 137.723 288.085 138.527 289.077 138.527Z" fill="#D57254"/>
<path id="Vector_117" d="M289.077 174.436C290.069 174.436 290.872 173.633 290.872 172.641C290.872 171.649 290.069 170.845 289.077 170.845C288.085 170.845 287.281 171.649 287.281 172.641C287.281 173.633 288.085 174.436 289.077 174.436Z" fill="#D57254"/>
<path id="Vector_118" d="M289.077 210.347C290.069 210.347 290.872 209.543 290.872 208.551C290.872 207.559 290.069 206.755 289.077 206.755C288.085 206.755 287.281 207.559 287.281 208.551C287.281 209.543 288.085 210.347 289.077 210.347Z" fill="#D57254"/>
<path id="Vector_119" d="M289.077 246.257C290.069 246.257 290.872 245.453 290.872 244.461C290.872 243.469 290.069 242.665 289.077 242.665C288.085 242.665 287.281 243.469 287.281 244.461C287.281 245.453 288.085 246.257 289.077 246.257Z" fill="#D57254"/>
<path id="Vector_120" d="M289.077 282.168C290.069 282.168 290.872 281.364 290.872 280.372C290.872 279.38 290.069 278.576 289.077 278.576C288.085 278.576 287.281 279.38 287.281 280.372C287.281 281.364 288.085 282.168 289.077 282.168Z" fill="#D57254"/>
<path id="Vector_121" d="M289.077 318.078C290.069 318.078 290.872 317.274 290.872 316.282C290.872 315.29 290.069 314.486 289.077 314.486C288.085 314.486 287.281 315.29 287.281 316.282C287.281 317.274 288.085 318.078 289.077 318.078Z" fill="#D57254"/>
<path id="Vector_122" d="M289.077 353.988C290.069 353.988 290.872 353.184 290.872 352.192C290.872 351.2 290.069 350.396 289.077 350.396C288.085 350.396 287.281 351.2 287.281 352.192C287.281 353.184 288.085 353.988 289.077 353.988Z" fill="#D57254"/>
<path id="Vector_123" d="M289.077 389.898C290.069 389.898 290.872 389.094 290.872 388.102C290.872 387.11 290.069 386.306 289.077 386.306C288.085 386.306 287.281 387.11 287.281 388.102C287.281 389.094 288.085 389.898 289.077 389.898Z" fill="#D57254"/>
<path id="Vector_124" d="M289.077 425.807C290.069 425.807 290.872 425.004 290.872 424.012C290.872 423.02 290.069 422.216 289.077 422.216C288.085 422.216 287.281 423.02 287.281 424.012C287.281 425.004 288.085 425.807 289.077 425.807Z" fill="#D57254"/>
<path id="Vector_125" d="M289.077 461.719C290.069 461.719 290.872 460.915 290.872 459.923C290.872 458.931 290.069 458.128 289.077 458.128C288.085 458.128 287.281 458.931 287.281 459.923C287.281 460.915 288.085 461.719 289.077 461.719Z" fill="#D57254"/>
<path id="Vector_126" d="M289.077 497.629C290.069 497.629 290.872 496.825 290.872 495.833C290.872 494.841 290.069 494.037 289.077 494.037C288.085 494.037 287.281 494.841 287.281 495.833C287.281 496.825 288.085 497.629 289.077 497.629Z" fill="#D57254"/>
<path id="Vector_127" d="M324.988 30.7955C325.98 30.7955 326.783 29.9916 326.783 29C326.783 28.0083 325.98 27.2045 324.988 27.2045C323.996 27.2045 323.192 28.0083 323.192 29C323.192 29.9916 323.996 30.7955 324.988 30.7955Z" fill="#D57254"/>
<path id="Vector_128" d="M324.988 66.7057C325.98 66.7057 326.783 65.9018 326.783 64.9102C326.783 63.9186 325.98 63.1147 324.988 63.1147C323.996 63.1147 323.192 63.9186 323.192 64.9102C323.192 65.9018 323.996 66.7057 324.988 66.7057Z" fill="#D57254"/>
<path id="Vector_129" d="M324.988 102.615C325.98 102.615 326.783 101.812 326.783 100.82C326.783 99.8284 325.98 99.0245 324.988 99.0245C323.996 99.0245 323.192 99.8284 323.192 100.82C323.192 101.812 323.996 102.615 324.988 102.615Z" fill="#D57254"/>
<path id="Vector_130" d="M324.988 138.527C325.98 138.527 326.783 137.723 326.783 136.731C326.783 135.739 325.98 134.935 324.988 134.935C323.996 134.935 323.192 135.739 323.192 136.731C323.192 137.723 323.996 138.527 324.988 138.527Z" fill="#D57254"/>
<path id="Vector_131" d="M324.988 174.436C325.98 174.436 326.783 173.633 326.783 172.641C326.783 171.649 325.98 170.845 324.988 170.845C323.996 170.845 323.192 171.649 323.192 172.641C323.192 173.633 323.996 174.436 324.988 174.436Z" fill="#D57254"/>
<path id="Vector_132" d="M324.988 210.347C325.98 210.347 326.783 209.543 326.783 208.551C326.783 207.559 325.98 206.755 324.988 206.755C323.996 206.755 323.192 207.559 323.192 208.551C323.192 209.543 323.996 210.347 324.988 210.347Z" fill="#D57254"/>
<path id="Vector_133" d="M324.988 246.257C325.98 246.257 326.783 245.453 326.783 244.461C326.783 243.469 325.98 242.665 324.988 242.665C323.996 242.665 323.192 243.469 323.192 244.461C323.192 245.453 323.996 246.257 324.988 246.257Z" fill="#D57254"/>
<path id="Vector_134" d="M324.988 282.168C325.98 282.168 326.783 281.364 326.783 280.372C326.783 279.38 325.98 278.576 324.988 278.576C323.996 278.576 323.192 279.38 323.192 280.372C323.192 281.364 323.996 282.168 324.988 282.168Z" fill="#D57254"/>
<path id="Vector_135" d="M324.988 318.078C325.98 318.078 326.783 317.274 326.783 316.282C326.783 315.29 325.98 314.486 324.988 314.486C323.996 314.486 323.192 315.29 323.192 316.282C323.192 317.274 323.996 318.078 324.988 318.078Z" fill="#D57254"/>
<path id="Vector_136" d="M324.988 353.988C325.98 353.988 326.783 353.184 326.783 352.192C326.783 351.2 325.98 350.396 324.988 350.396C323.996 350.396 323.192 351.2 323.192 352.192C323.192 353.184 323.996 353.988 324.988 353.988Z" fill="#D57254"/>
<path id="Vector_137" d="M324.988 389.898C325.98 389.898 326.783 389.094 326.783 388.102C326.783 387.11 325.98 386.306 324.988 386.306C323.996 386.306 323.192 387.11 323.192 388.102C323.192 389.094 323.996 389.898 324.988 389.898Z" fill="#D57254"/>
<path id="Vector_138" d="M324.988 425.807C325.98 425.807 326.783 425.004 326.783 424.012C326.783 423.02 325.98 422.216 324.988 422.216C323.996 422.216 323.192 423.02 323.192 424.012C323.192 425.004 323.996 425.807 324.988 425.807Z" fill="#D57254"/>
<path id="Vector_139" d="M324.988 461.719C325.98 461.719 326.783 460.915 326.783 459.923C326.783 458.931 325.98 458.128 324.988 458.128C323.996 458.128 323.192 458.931 323.192 459.923C323.192 460.915 323.996 461.719 324.988 461.719Z" fill="#D57254"/>
<path id="Vector_140" d="M324.988 497.629C325.98 497.629 326.783 496.825 326.783 495.833C326.783 494.841 325.98 494.037 324.988 494.037C323.996 494.037 323.192 494.841 323.192 495.833C323.192 496.825 323.996 497.629 324.988 497.629Z" fill="#D57254"/>
<path id="Vector_141" d="M360.898 30.7955C361.89 30.7955 362.694 29.9916 362.694 29C362.694 28.0083 361.89 27.2045 360.898 27.2045C359.906 27.2045 359.103 28.0083 359.103 29C359.103 29.9916 359.906 30.7955 360.898 30.7955Z" fill="#D57254"/>
<path id="Vector_142" d="M360.898 66.7057C361.89 66.7057 362.694 65.9018 362.694 64.9102C362.694 63.9186 361.89 63.1147 360.898 63.1147C359.906 63.1147 359.103 63.9186 359.103 64.9102C359.103 65.9018 359.906 66.7057 360.898 66.7057Z" fill="#D57254"/>
<path id="Vector_143" d="M360.898 102.615C361.89 102.615 362.694 101.812 362.694 100.82C362.694 99.8284 361.89 99.0245 360.898 99.0245C359.906 99.0245 359.103 99.8284 359.103 100.82C359.103 101.812 359.906 102.615 360.898 102.615Z" fill="#D57254"/>
<path id="Vector_144" d="M360.898 138.527C361.89 138.527 362.694 137.723 362.694 136.731C362.694 135.739 361.89 134.935 360.898 134.935C359.906 134.935 359.103 135.739 359.103 136.731C359.103 137.723 359.906 138.527 360.898 138.527Z" fill="#D57254"/>
<path id="Vector_145" d="M360.898 174.436C361.89 174.436 362.694 173.633 362.694 172.641C362.694 171.649 361.89 170.845 360.898 170.845C359.906 170.845 359.103 171.649 359.103 172.641C359.103 173.633 359.906 174.436 360.898 174.436Z" fill="#D57254"/>
<path id="Vector_146" d="M360.898 210.347C361.89 210.347 362.694 209.543 362.694 208.551C362.694 207.559 361.89 206.755 360.898 206.755C359.906 206.755 359.103 207.559 359.103 208.551C359.103 209.543 359.906 210.347 360.898 210.347Z" fill="#D57254"/>
<path id="Vector_147" d="M360.898 246.257C361.89 246.257 362.694 245.453 362.694 244.461C362.694 243.469 361.89 242.665 360.898 242.665C359.906 242.665 359.103 243.469 359.103 244.461C359.103 245.453 359.906 246.257 360.898 246.257Z" fill="#D57254"/>
<path id="Vector_148" d="M360.898 282.168C361.89 282.168 362.694 281.364 362.694 280.372C362.694 279.38 361.89 278.576 360.898 278.576C359.906 278.576 359.103 279.38 359.103 280.372C359.103 281.364 359.906 282.168 360.898 282.168Z" fill="#D57254"/>
<path id="Vector_149" d="M360.898 318.078C361.89 318.078 362.694 317.274 362.694 316.282C362.694 315.29 361.89 314.486 360.898 314.486C359.906 314.486 359.103 315.29 359.103 316.282C359.103 317.274 359.906 318.078 360.898 318.078Z" fill="#D57254"/>
<path id="Vector_150" d="M360.898 353.988C361.89 353.988 362.694 353.184 362.694 352.192C362.694 351.2 361.89 350.396 360.898 350.396C359.906 350.396 359.103 351.2 359.103 352.192C359.103 353.184 359.906 353.988 360.898 353.988Z" fill="#D57254"/>
<path id="Vector_151" d="M360.898 389.898C361.89 389.898 362.694 389.094 362.694 388.102C362.694 387.11 361.89 386.306 360.898 386.306C359.906 386.306 359.103 387.11 359.103 388.102C359.103 389.094 359.906 389.898 360.898 389.898Z" fill="#D57254"/>
<path id="Vector_152" d="M360.898 425.807C361.89 425.807 362.694 425.004 362.694 424.012C362.694 423.02 361.89 422.216 360.898 422.216C359.906 422.216 359.103 423.02 359.103 424.012C359.103 425.004 359.906 425.807 360.898 425.807Z" fill="#D57254"/>
<path id="Vector_153" d="M360.898 461.719C361.89 461.719 362.694 460.915 362.694 459.923C362.694 458.931 361.89 458.128 360.898 458.128C359.906 458.128 359.103 458.931 359.103 459.923C359.103 460.915 359.906 461.719 360.898 461.719Z" fill="#D57254"/>
<path id="Vector_154" d="M360.898 497.629C361.89 497.629 362.694 496.825 362.694 495.833C362.694 494.841 361.89 494.037 360.898 494.037C359.906 494.037 359.103 494.841 359.103 495.833C359.103 496.825 359.906 497.629 360.898 497.629Z" fill="#D57254"/>
<path id="Vector_155" d="M396.808 30.7955C397.8 30.7955 398.603 29.9916 398.603 29C398.603 28.0083 397.8 27.2045 396.808 27.2045C395.816 27.2045 395.012 28.0083 395.012 29C395.012 29.9916 395.816 30.7955 396.808 30.7955Z" fill="#D57254"/>
<path id="Vector_156" d="M396.808 66.7057C397.8 66.7057 398.603 65.9018 398.603 64.9102C398.603 63.9186 397.8 63.1147 396.808 63.1147C395.816 63.1147 395.012 63.9186 395.012 64.9102C395.012 65.9018 395.816 66.7057 396.808 66.7057Z" fill="#D57254"/>
<path id="Vector_157" d="M396.808 102.615C397.8 102.615 398.603 101.812 398.603 100.82C398.603 99.8284 397.8 99.0245 396.808 99.0245C395.816 99.0245 395.012 99.8284 395.012 100.82C395.012 101.812 395.816 102.615 396.808 102.615Z" fill="#D57254"/>
<path id="Vector_158" d="M396.808 138.527C397.8 138.527 398.603 137.723 398.603 136.731C398.603 135.739 397.8 134.935 396.808 134.935C395.816 134.935 395.012 135.739 395.012 136.731C395.012 137.723 395.816 138.527 396.808 138.527Z" fill="#D57254"/>
<path id="Vector_159" d="M396.808 174.436C397.8 174.436 398.603 173.633 398.603 172.641C398.603 171.649 397.8 170.845 396.808 170.845C395.816 170.845 395.012 171.649 395.012 172.641C395.012 173.633 395.816 174.436 396.808 174.436Z" fill="#D57254"/>
<path id="Vector_160" d="M396.808 210.347C397.8 210.347 398.603 209.543 398.603 208.551C398.603 207.559 397.8 206.755 396.808 206.755C395.816 206.755 395.012 207.559 395.012 208.551C395.012 209.543 395.816 210.347 396.808 210.347Z" fill="#D57254"/>
<path id="Vector_161" d="M396.808 246.257C397.8 246.257 398.603 245.453 398.603 244.461C398.603 243.469 397.8 242.665 396.808 242.665C395.816 242.665 395.012 243.469 395.012 244.461C395.012 245.453 395.816 246.257 396.808 246.257Z" fill="#D57254"/>
<path id="Vector_162" d="M396.808 282.168C397.8 282.168 398.603 281.364 398.603 280.372C398.603 279.38 397.8 278.576 396.808 278.576C395.816 278.576 395.012 279.38 395.012 280.372C395.012 281.364 395.816 282.168 396.808 282.168Z" fill="#D57254"/>
<path id="Vector_163" d="M396.808 318.078C397.8 318.078 398.603 317.274 398.603 316.282C398.603 315.29 397.8 314.486 396.808 314.486C395.816 314.486 395.012 315.29 395.012 316.282C395.012 317.274 395.816 318.078 396.808 318.078Z" fill="#D57254"/>
<path id="Vector_164" d="M396.808 353.988C397.8 353.988 398.603 353.184 398.603 352.192C398.603 351.2 397.8 350.396 396.808 350.396C395.816 350.396 395.012 351.2 395.012 352.192C395.012 353.184 395.816 353.988 396.808 353.988Z" fill="#D57254"/>
<path id="Vector_165" d="M396.808 389.898C397.8 389.898 398.603 389.094 398.603 388.102C398.603 387.11 397.8 386.306 396.808 386.306C395.816 386.306 395.012 387.11 395.012 388.102C395.012 389.094 395.816 389.898 396.808 389.898Z" fill="#D57254"/>
<path id="Vector_166" d="M396.808 425.807C397.8 425.807 398.603 425.004 398.603 424.012C398.603 423.02 397.8 422.216 396.808 422.216C395.816 422.216 395.012 423.02 395.012 424.012C395.012 425.004 395.816 425.807 396.808 425.807Z" fill="#D57254"/>
<path id="Vector_167" d="M396.808 461.719C397.8 461.719 398.603 460.915 398.603 459.923C398.603 458.931 397.8 458.128 396.808 458.128C395.816 458.128 395.012 458.931 395.012 459.923C395.012 460.915 395.816 461.719 396.808 461.719Z" fill="#D57254"/>
<path id="Vector_168" d="M396.808 497.629C397.8 497.629 398.603 496.825 398.603 495.833C398.603 494.841 397.8 494.037 396.808 494.037C395.816 494.037 395.012 494.841 395.012 495.833C395.012 496.825 395.816 497.629 396.808 497.629Z" fill="#D57254"/>
<path id="Vector_169" d="M432.718 30.7955C433.709 30.7955 434.513 29.9916 434.513 29C434.513 28.0083 433.709 27.2045 432.718 27.2045C431.726 27.2045 430.922 28.0083 430.922 29C430.922 29.9916 431.726 30.7955 432.718 30.7955Z" fill="#D57254"/>
<path id="Vector_170" d="M432.718 66.7057C433.709 66.7057 434.513 65.9018 434.513 64.9102C434.513 63.9186 433.709 63.1147 432.718 63.1147C431.726 63.1147 430.922 63.9186 430.922 64.9102C430.922 65.9018 431.726 66.7057 432.718 66.7057Z" fill="#D57254"/>
<path id="Vector_171" d="M432.718 102.615C433.709 102.615 434.513 101.812 434.513 100.82C434.513 99.8284 433.709 99.0245 432.718 99.0245C431.726 99.0245 430.922 99.8284 430.922 100.82C430.922 101.812 431.726 102.615 432.718 102.615Z" fill="#D57254"/>
<path id="Vector_172" d="M432.718 138.527C433.709 138.527 434.513 137.723 434.513 136.731C434.513 135.739 433.709 134.935 432.718 134.935C431.726 134.935 430.922 135.739 430.922 136.731C430.922 137.723 431.726 138.527 432.718 138.527Z" fill="#D57254"/>
<path id="Vector_173" d="M432.718 174.436C433.709 174.436 434.513 173.633 434.513 172.641C434.513 171.649 433.709 170.845 432.718 170.845C431.726 170.845 430.922 171.649 430.922 172.641C430.922 173.633 431.726 174.436 432.718 174.436Z" fill="#D57254"/>
<path id="Vector_174" d="M432.718 210.347C433.709 210.347 434.513 209.543 434.513 208.551C434.513 207.559 433.709 206.755 432.718 206.755C431.726 206.755 430.922 207.559 430.922 208.551C430.922 209.543 431.726 210.347 432.718 210.347Z" fill="#D57254"/>
<path id="Vector_175" d="M432.718 246.257C433.709 246.257 434.513 245.453 434.513 244.461C434.513 243.469 433.709 242.665 432.718 242.665C431.726 242.665 430.922 243.469 430.922 244.461C430.922 245.453 431.726 246.257 432.718 246.257Z" fill="#D57254"/>
<path id="Vector_176" d="M432.718 282.168C433.709 282.168 434.513 281.364 434.513 280.372C434.513 279.38 433.709 278.576 432.718 278.576C431.726 278.576 430.922 279.38 430.922 280.372C430.922 281.364 431.726 282.168 432.718 282.168Z" fill="#D57254"/>
<path id="Vector_177" d="M432.718 318.078C433.709 318.078 434.513 317.274 434.513 316.282C434.513 315.29 433.709 314.486 432.718 314.486C431.726 314.486 430.922 315.29 430.922 316.282C430.922 317.274 431.726 318.078 432.718 318.078Z" fill="#D57254"/>
<path id="Vector_178" d="M432.718 353.988C433.709 353.988 434.513 353.184 434.513 352.192C434.513 351.2 433.709 350.396 432.718 350.396C431.726 350.396 430.922 351.2 430.922 352.192C430.922 353.184 431.726 353.988 432.718 353.988Z" fill="#D57254"/>
<path id="Vector_179" d="M432.718 389.898C433.709 389.898 434.513 389.094 434.513 388.102C434.513 387.11 433.709 386.306 432.718 386.306C431.726 386.306 430.922 387.11 430.922 388.102C430.922 389.094 431.726 389.898 432.718 389.898Z" fill="#D57254"/>
<path id="Vector_180" d="M432.718 425.807C433.709 425.807 434.513 425.004 434.513 424.012C434.513 423.02 433.709 422.216 432.718 422.216C431.726 422.216 430.922 423.02 430.922 424.012C430.922 425.004 431.726 425.807 432.718 425.807Z" fill="#D57254"/>
<path id="Vector_181" d="M432.718 461.719C433.709 461.719 434.513 460.915 434.513 459.923C434.513 458.931 433.709 458.128 432.718 458.128C431.726 458.128 430.922 458.931 430.922 459.923C430.922 460.915 431.726 461.719 432.718 461.719Z" fill="#D57254"/>
<path id="Vector_182" d="M432.718 497.629C433.709 497.629 434.513 496.825 434.513 495.833C434.513 494.841 433.709 494.037 432.718 494.037C431.726 494.037 430.922 494.841 430.922 495.833C430.922 496.825 431.726 497.629 432.718 497.629Z" fill="#D57254"/>
<path id="Vector_183" d="M468.628 30.7955C469.62 30.7955 470.424 29.9916 470.424 29C470.424 28.0083 469.62 27.2045 468.628 27.2045C467.636 27.2045 466.833 28.0083 466.833 29C466.833 29.9916 467.636 30.7955 468.628 30.7955Z" fill="#D57254"/>
<path id="Vector_184" d="M468.628 66.7057C469.62 66.7057 470.424 65.9018 470.424 64.9102C470.424 63.9186 469.62 63.1147 468.628 63.1147C467.636 63.1147 466.833 63.9186 466.833 64.9102C466.833 65.9018 467.636 66.7057 468.628 66.7057Z" fill="#D57254"/>
<path id="Vector_185" d="M468.628 102.615C469.62 102.615 470.424 101.812 470.424 100.82C470.424 99.8284 469.62 99.0245 468.628 99.0245C467.636 99.0245 466.833 99.8284 466.833 100.82C466.833 101.812 467.636 102.615 468.628 102.615Z" fill="#D57254"/>
<path id="Vector_186" d="M468.628 138.527C469.62 138.527 470.424 137.723 470.424 136.731C470.424 135.739 469.62 134.935 468.628 134.935C467.636 134.935 466.833 135.739 466.833 136.731C466.833 137.723 467.636 138.527 468.628 138.527Z" fill="#D57254"/>
<path id="Vector_187" d="M468.628 174.436C469.62 174.436 470.424 173.633 470.424 172.641C470.424 171.649 469.62 170.845 468.628 170.845C467.636 170.845 466.833 171.649 466.833 172.641C466.833 173.633 467.636 174.436 468.628 174.436Z" fill="#D57254"/>
<path id="Vector_188" d="M468.628 210.347C469.62 210.347 470.424 209.543 470.424 208.551C470.424 207.559 469.62 206.755 468.628 206.755C467.636 206.755 466.833 207.559 466.833 208.551C466.833 209.543 467.636 210.347 468.628 210.347Z" fill="#D57254"/>
<path id="Vector_189" d="M468.628 246.257C469.62 246.257 470.424 245.453 470.424 244.461C470.424 243.469 469.62 242.665 468.628 242.665C467.636 242.665 466.833 243.469 466.833 244.461C466.833 245.453 467.636 246.257 468.628 246.257Z" fill="#D57254"/>
<path id="Vector_190" d="M468.628 282.168C469.62 282.168 470.424 281.364 470.424 280.372C470.424 279.38 469.62 278.576 468.628 278.576C467.636 278.576 466.833 279.38 466.833 280.372C466.833 281.364 467.636 282.168 468.628 282.168Z" fill="#D57254"/>
<path id="Vector_191" d="M468.628 318.078C469.62 318.078 470.424 317.274 470.424 316.282C470.424 315.29 469.62 314.486 468.628 314.486C467.636 314.486 466.833 315.29 466.833 316.282C466.833 317.274 467.636 318.078 468.628 318.078Z" fill="#D57254"/>
<path id="Vector_192" d="M468.628 353.988C469.62 353.988 470.424 353.184 470.424 352.192C470.424 351.2 469.62 350.396 468.628 350.396C467.636 350.396 466.833 351.2 466.833 352.192C466.833 353.184 467.636 353.988 468.628 353.988Z" fill="#D57254"/>
<path id="Vector_193" d="M468.628 389.898C469.62 389.898 470.424 389.094 470.424 388.102C470.424 387.11 469.62 386.306 468.628 386.306C467.636 386.306 466.833 387.11 466.833 388.102C466.833 389.094 467.636 389.898 468.628 389.898Z" fill="#D57254"/>
<path id="Vector_194" d="M468.628 425.807C469.62 425.807 470.424 425.004 470.424 424.012C470.424 423.02 469.62 422.216 468.628 422.216C467.636 422.216 466.833 423.02 466.833 424.012C466.833 425.004 467.636 425.807 468.628 425.807Z" fill="#D57254"/>
<path id="Vector_195" d="M468.628 461.719C469.62 461.719 470.424 460.915 470.424 459.923C470.424 458.931 469.62 458.128 468.628 458.128C467.636 458.128 466.833 458.931 466.833 459.923C466.833 460.915 467.636 461.719 468.628 461.719Z" fill="#D57254"/>
<path id="Vector_196" d="M468.628 497.629C469.62 497.629 470.424 496.825 470.424 495.833C470.424 494.841 469.62 494.037 468.628 494.037C467.636 494.037 466.833 494.841 466.833 495.833C466.833 496.825 467.636 497.629 468.628 497.629Z" fill="#D57254"/>
</g>
</g>
</svg>
