<svg width="634" height="525" viewBox="0 0 634 525" fill="none" xmlns="http://www.w3.org/2000/svg">
<rect width="634" height="525" fill="#1E1E1E"/>
<g id="header-banner" clip-path="url(#clip0_78_78)">
<rect width="1440" height="525" transform="translate(-707)" fill="#CB513C"/>
<g id="Frame 45">
<g id="banner-diem 1" clip-path="url(#clip1_78_78)">
<path id="Vector" d="M192.08 33.5996C235.923 23.6487 280.24 22.1993 309.906 25.7744L309.905 25.7754C334.594 28.1559 354.782 33.4829 373.305 42.5127C391.823 51.5395 408.423 64.1414 426.052 80.7343C522.418 171.442 514.214 305.034 498.223 403.03C498.222 403.04 498.222 403.049 498.22 403.059C497.647 406.863 498.52 410.128 500.508 412.944C502.534 415.815 505.8 418.326 510.134 420.344L510.957 420.715C519.548 424.466 530.605 425.566 539.203 423.847L539.264 423.835L539.416 423.809L539.48 423.798C544.3 423.088 548.694 423.326 552.387 424.897C556.262 426.546 558.903 429.474 560.288 433.116C562.834 439.815 560.945 448.295 557.743 455.881C554.398 463.804 549.022 472.177 542.634 479.425C536.27 486.644 528.617 493.07 520.564 496.743H520.563C520.426 496.806 520.282 496.866 520.133 496.919C508.866 500.945 495.675 501.691 484.098 502.137C478.166 502.365 472.693 502.51 467.708 502.904C462.705 503.3 458.627 503.922 455.521 504.957C449.766 506.875 443.882 512.857 439.087 519.374C436.793 522.491 434.93 525.476 433.64 527.685C433.319 528.234 433.035 528.735 432.79 529.174L432.173 530.299L431.805 530.995C431.759 531.084 431.734 531.134 431.719 531.163V531.165C431.713 531.175 431.707 531.184 431.704 531.19C431.703 531.193 431.702 531.197 431.701 531.199L431.604 531.384C430.569 533.272 428.521 534.387 426.362 534.223L321.868 526.239H265.237C262.347 530.668 259.424 535.424 256.28 540.74C250.577 535.531 245.579 530.818 240.911 526.239H163.578C161.423 529.349 159.171 532.673 156.78 536.24C155.13 532.675 153.646 529.376 152.356 526.239H101.281C110.105 517.3 117.161 510.55 124.536 504.491C120.869 500.062 115.3 496.112 108.221 492.561C99.0421 487.957 88.0734 484.382 77.2625 481.275C66.7159 478.245 55.9138 475.561 48.1111 472.918C44.1916 471.59 40.5316 470.117 37.7664 468.367C35.2937 466.802 31.7811 463.902 31.781 459.239C31.7812 453.632 34.8771 449.909 38.1746 447.405C41.163 445.136 45.2552 443.215 48.1795 441.644C51.4598 439.883 54.071 438.209 55.905 436.092C57.4443 434.315 58.5629 432.073 58.7507 428.746L58.7683 428.559C58.8014 428.308 58.8718 428.068 58.9744 427.845C54.9148 423.195 51.2968 418.207 48.1072 412.936C29.9293 382.891 25.9282 344.183 31.865 307.849C31.3118 307.486 30.906 306.91 30.7761 306.221C21.7676 258.431 21.9846 219.051 29.9822 184.696C38.0175 150.18 53.8284 121.068 75.4754 93.8183L75.5252 93.7568L75.6502 93.6093L75.7048 93.5468C104.154 62.1363 148.31 43.5338 192.08 33.5996ZM467.511 500.412C466.907 500.46 466.314 500.511 465.731 500.566L467.511 500.412ZM92.1863 483.304C93.526 483.763 94.8564 484.234 96.1736 484.718L96.1746 484.717C94.6019 484.139 93.0097 483.581 91.406 483.039C91.6663 483.127 91.9266 483.215 92.1863 483.304ZM356.077 461.136L357.353 461.014C357.355 461.013 357.357 461.013 357.358 461.013C356.931 461.057 356.504 461.098 356.077 461.136ZM39.1394 449.826C38.9638 449.969 38.7904 450.116 38.6199 450.266C38.9653 449.963 39.322 449.673 39.6863 449.396C39.502 449.536 39.3194 449.68 39.1394 449.826ZM510.833 423.378C510.964 423.432 511.098 423.482 511.23 423.535C511.088 423.479 510.946 423.424 510.805 423.366L510.833 423.378ZM446.053 343.503C446.63 343.659 447.217 343.791 447.814 343.902C447.419 343.829 447.027 343.746 446.64 343.652C446.443 343.605 446.247 343.556 446.053 343.503ZM148.625 144.266C149.113 144.287 149.602 144.308 150.092 144.326V144.325C149.602 144.307 149.113 144.287 148.625 144.266ZM93.155 131.488C94.1239 131.946 95.1047 132.39 96.0955 132.823C95.5079 132.566 94.9235 132.306 94.3435 132.04C93.5478 131.676 92.7592 131.303 91.9783 130.923L93.155 131.488ZM265.938 87.9209C265.716 87.8823 265.494 87.8425 265.272 87.8047C265.21 87.7941 265.148 87.7839 265.086 87.7734C265.37 87.8215 265.654 87.8715 265.938 87.9209ZM264.353 87.6513C264.086 87.6069 263.819 87.5618 263.553 87.5185C263.396 87.4932 263.24 87.4692 263.084 87.4443C263.507 87.5118 263.93 87.5811 264.353 87.6513ZM260.706 87.0781C260.511 87.0492 260.317 87.0195 260.123 86.9912C259.845 86.9507 259.567 86.9123 259.29 86.873C259.761 86.9398 260.233 87.008 260.706 87.0781ZM253.313 86.1103C253.94 86.1814 254.568 86.2551 255.197 86.332C254.568 86.2551 253.941 86.1804 253.314 86.1093L253.313 86.1103ZM186.659 37.4482C187.289 37.2936 187.92 37.1412 188.551 36.9902L188.582 36.9824C187.941 37.1358 187.3 37.291 186.659 37.4482ZM312.136 28.5127C312.053 28.5039 311.971 28.4949 311.888 28.4863L309.606 28.2568C310.455 28.3384 311.298 28.424 312.136 28.5127Z" fill="#58362A"/>
<g id="Mask group">
<mask id="mask0_78_78" style="mask-type:luminance" maskUnits="userSpaceOnUse" x="0" y="-1" width="586" height="587">
<g id="Group">
<path id="Vector_2" d="M586 -0.000244141H0V586H586V-0.000244141Z" fill="white"/>
<path id="Vector_3" d="M192.08 33.5996C235.923 23.6487 280.24 22.1993 309.906 25.7744L309.905 25.7754C334.594 28.1559 354.782 33.4829 373.305 42.5127C391.823 51.5395 408.423 64.1414 426.052 80.7343C522.418 171.442 514.214 305.034 498.223 403.03C498.222 403.04 498.222 403.049 498.22 403.059C497.647 406.863 498.52 410.128 500.508 412.944C502.534 415.815 505.8 418.326 510.134 420.344L510.957 420.715C519.548 424.466 530.605 425.566 539.203 423.847L539.264 423.835L539.416 423.809L539.48 423.798C544.3 423.088 548.694 423.326 552.387 424.897C556.262 426.546 558.903 429.474 560.288 433.116C562.834 439.815 560.945 448.295 557.743 455.881C554.398 463.804 549.022 472.177 542.634 479.425C536.27 486.644 528.617 493.07 520.564 496.743H520.563C520.426 496.806 520.282 496.866 520.133 496.919C508.866 500.945 495.675 501.691 484.098 502.137C478.166 502.365 472.693 502.51 467.708 502.904C462.705 503.3 458.627 503.922 455.521 504.957C449.766 506.875 443.882 512.857 439.087 519.374C436.793 522.491 434.93 525.476 433.64 527.685C433.319 528.234 433.035 528.735 432.79 529.174L432.173 530.299L431.805 530.995C431.759 531.084 431.734 531.134 431.719 531.163V531.165C431.713 531.175 431.707 531.184 431.704 531.19C431.703 531.193 431.702 531.197 431.701 531.199L431.604 531.384C430.569 533.272 428.521 534.387 426.362 534.223L321.868 526.239H265.237C262.347 530.668 259.424 535.424 256.28 540.74C250.577 535.531 245.579 530.818 240.911 526.239H163.578C161.423 529.349 159.171 532.673 156.78 536.24C155.13 532.675 153.646 529.376 152.356 526.239H101.281C110.105 517.3 117.161 510.55 124.536 504.491C120.869 500.062 115.3 496.112 108.221 492.561C99.0421 487.957 88.0734 484.382 77.2625 481.275C66.7159 478.245 55.9138 475.561 48.1111 472.918C44.1916 471.59 40.5316 470.117 37.7664 468.367C35.2937 466.802 31.7811 463.902 31.781 459.239C31.7812 453.632 34.8771 449.909 38.1746 447.405C41.163 445.136 45.2552 443.215 48.1795 441.644C51.4598 439.883 54.071 438.209 55.905 436.092C57.4443 434.315 58.5629 432.073 58.7507 428.746L58.7683 428.559C58.8014 428.308 58.8718 428.068 58.9744 427.845C54.9148 423.195 51.2968 418.207 48.1072 412.936C29.9293 382.891 25.9282 344.183 31.865 307.849C31.3118 307.486 30.906 306.91 30.7761 306.221C21.7676 258.431 21.9846 219.051 29.9822 184.696C38.0175 150.18 53.8284 121.068 75.4754 93.8183L75.5252 93.7568L75.6502 93.6093L75.7048 93.5468C104.154 62.1363 148.31 43.5338 192.08 33.5996ZM467.511 500.412C466.907 500.46 466.314 500.511 465.731 500.566L467.511 500.412ZM92.1863 483.304C93.526 483.763 94.8564 484.234 96.1736 484.718L96.1746 484.717C94.6019 484.139 93.0097 483.581 91.406 483.039C91.6663 483.127 91.9266 483.215 92.1863 483.304ZM356.077 461.136L357.353 461.014C357.355 461.013 357.357 461.013 357.358 461.013C356.931 461.057 356.504 461.098 356.077 461.136ZM39.1394 449.826C38.9638 449.969 38.7904 450.116 38.6199 450.266C38.9653 449.963 39.322 449.673 39.6863 449.396C39.502 449.536 39.3194 449.68 39.1394 449.826ZM510.833 423.378C510.964 423.432 511.098 423.482 511.23 423.535C511.088 423.479 510.946 423.424 510.805 423.366L510.833 423.378ZM446.053 343.503C446.63 343.659 447.217 343.791 447.814 343.902C447.419 343.829 447.027 343.746 446.64 343.652C446.443 343.605 446.247 343.556 446.053 343.503ZM148.625 144.266C149.113 144.287 149.602 144.308 150.092 144.326V144.325C149.602 144.307 149.113 144.287 148.625 144.266ZM93.155 131.488C94.1239 131.946 95.1047 132.39 96.0955 132.823C95.5079 132.566 94.9235 132.306 94.3435 132.04C93.5478 131.676 92.7592 131.303 91.9783 130.923L93.155 131.488ZM265.938 87.9209C265.716 87.8823 265.494 87.8425 265.272 87.8047C265.21 87.7941 265.148 87.7839 265.086 87.7734C265.37 87.8215 265.654 87.8715 265.938 87.9209ZM264.353 87.6513C264.086 87.6069 263.819 87.5618 263.553 87.5185C263.396 87.4932 263.24 87.4692 263.084 87.4443C263.507 87.5118 263.93 87.5811 264.353 87.6513ZM260.706 87.0781C260.511 87.0492 260.317 87.0195 260.123 86.9912C259.845 86.9507 259.567 86.9123 259.29 86.873C259.761 86.9398 260.233 87.008 260.706 87.0781ZM253.313 86.1103C253.94 86.1814 254.568 86.2551 255.197 86.332C254.568 86.2551 253.941 86.1804 253.314 86.1093L253.313 86.1103ZM186.659 37.4482C187.289 37.2936 187.92 37.1412 188.551 36.9902L188.582 36.9824C187.941 37.1358 187.3 37.291 186.659 37.4482ZM312.136 28.5127C312.053 28.5039 311.971 28.4949 311.888 28.4863L309.606 28.2568C310.455 28.3384 311.298 28.424 312.136 28.5127Z" fill="black"/>
</g>
</mask>
<g mask="url(#mask0_78_78)">
<path id="Vector_4" d="M309.906 25.7744L326.877 42.7449L361.771 7.8509L312.777 1.94678L309.906 25.7744ZM309.905 25.7754L292.934 8.8048L256.958 44.7816L307.602 49.6646L309.905 25.7754ZM498.223 403.03L474.537 399.165L474.491 399.446L474.452 399.727L498.223 403.03ZM498.22 403.059L521.953 406.635L521.957 406.602L521.962 406.569L498.22 403.059ZM510.134 420.344L500.006 442.102L500.138 442.164L500.271 442.224L510.134 420.344ZM510.957 420.715L501.094 442.595L501.223 442.653L501.352 442.709L510.957 420.715ZM539.203 423.847L534.712 400.271L534.604 400.291L534.496 400.313L539.203 423.847ZM539.264 423.835L535.146 400.191L534.96 400.223L534.774 400.259L539.264 423.835ZM539.416 423.809L535.47 400.135L535.384 400.15L535.297 400.165L539.416 423.809ZM539.48 423.798L535.982 400.054L535.758 400.087L535.535 400.124L539.48 423.798ZM552.387 424.897L561.786 402.814H561.785L552.387 424.897ZM560.288 433.116L582.722 424.589L582.721 424.587L560.288 433.116ZM542.634 479.425L560.638 495.295V495.294L542.634 479.425ZM520.564 496.743V520.743H525.78L530.525 518.579L520.564 496.743ZM520.563 496.743V472.743H515.348L510.603 474.907L520.563 496.743ZM467.708 502.904L465.816 478.979H465.815L467.708 502.904ZM455.521 504.957L447.933 482.188L447.932 482.189L455.521 504.957ZM439.087 519.374L419.756 505.149V505.15L439.087 519.374ZM432.79 529.174L411.837 517.47L411.792 517.55L411.748 517.63L432.79 529.174ZM432.173 530.299L411.131 518.755L411.036 518.929L410.944 519.104L432.173 530.299ZM431.805 530.995L410.576 519.8L410.532 519.884L410.488 519.969L431.805 530.995ZM431.719 531.163L410.331 520.277L410.292 520.353L410.253 520.43L431.719 531.163ZM431.719 531.165L453.111 542.044L453.148 541.971L453.185 541.898L431.719 531.165ZM431.704 531.19L410.425 520.091L410.313 520.305L410.205 520.522L431.704 531.19ZM431.701 531.199L452.961 542.335L453.252 541.779L453.514 541.209L431.701 531.199ZM431.604 531.384L452.65 542.919L452.759 542.72L452.864 542.52L431.604 531.384ZM426.362 534.223L424.534 558.153H424.536L426.362 534.223ZM321.868 526.239L323.696 502.309L322.783 502.239H321.868V526.239ZM265.237 526.239V502.239H252.24L245.138 513.124L265.237 526.239ZM256.28 540.74L240.093 558.46L261.9 578.381L276.937 552.959L256.28 540.74ZM240.911 526.239L257.716 509.105L250.716 502.239H240.911V526.239ZM163.578 526.239V502.239H151.008L143.849 512.572L163.578 526.239ZM156.78 536.24L134.999 546.319L152.938 585.084L176.717 549.601L156.78 536.24ZM152.356 526.239L174.553 517.113L168.438 502.239H152.356V526.239ZM101.281 526.239L84.2008 509.379L43.8671 550.239H101.281V526.239ZM124.536 504.491L139.771 523.035L158.385 507.743L143.023 489.187L124.536 504.491ZM37.7664 468.367L24.9324 488.647L24.9334 488.648L37.7664 468.367ZM31.781 459.239L7.78104 459.238V459.24L31.781 459.239ZM38.1746 447.405L23.6626 428.29L23.6614 428.291L38.1746 447.405ZM55.905 436.092L74.0437 451.808L74.0454 451.806L55.905 436.092ZM58.7507 428.746L34.8555 426.506L34.814 426.949L34.7889 427.393L58.7507 428.746ZM58.7683 428.559L34.9752 425.414L34.9156 425.865L34.8731 426.318L58.7683 428.559ZM58.9744 427.845L80.7866 437.856L87.2603 423.751L77.0538 412.061L58.9744 427.845ZM31.865 307.849L55.5509 311.719L58.067 296.319L45.0137 287.771L31.865 307.849ZM30.7761 306.221L7.19152 310.666L7.19154 310.667L30.7761 306.221ZM75.4754 93.8183L56.8215 78.7176L56.7519 78.8035L56.6832 78.89L75.4754 93.8183ZM75.5252 93.7568L57.2177 78.2379L57.0421 78.445L56.8713 78.656L75.5252 93.7568ZM75.6502 93.6093L57.5883 77.8052L57.4644 77.9469L57.3427 78.0904L75.6502 93.6093ZM75.7048 93.5468L57.9165 77.4356L57.7784 77.588L57.643 77.7427L75.7048 93.5468ZM467.51 500.412L469.584 524.322L465.618 476.487L467.51 500.412ZM465.731 500.566L463.467 476.673L467.805 524.477L465.731 500.566ZM101.648 486.844L92.5168 509.039L110.782 464.65L101.648 486.844ZM101.381 486.734L110.465 464.52L92.2953 508.948L101.381 486.734ZM96.1736 484.718L87.8957 507.245L102.296 512.536L113.144 501.688L96.1736 484.718ZM96.1746 484.717L113.145 501.687L139.693 475.139L104.453 462.19L96.1746 484.717ZM91.406 483.039L99.0961 460.304L83.714 505.773L91.406 483.039ZM90.4802 482.728L82.8898 505.496L98.0728 459.96L90.4802 482.728ZM89.6843 482.464L97.1926 459.669L82.1739 505.258L89.6843 482.464ZM88.5418 482.091L81.1461 504.923L95.9398 459.259L88.5418 482.091ZM87.8953 481.882L95.23 459.03L80.5582 504.733L87.8953 481.882ZM82.6814 480.264L75.7688 503.247L89.5954 457.281L82.6814 480.264ZM356.077 461.136L353.792 437.245L358.18 485.043L356.077 461.136ZM357.353 461.014L359.638 484.905L359.727 484.896L359.816 484.887L357.353 461.014ZM39.1394 449.826L23.9842 431.216L23.9838 431.217L39.1394 449.826ZM428.095 424.447L444.951 441.532L411.24 407.362L428.095 424.447ZM425.793 426.671L409.293 409.242L442.292 444.1L425.793 426.671ZM510.833 423.378L501.379 445.437L501.555 445.513L501.732 445.585L510.833 423.378ZM510.805 423.366L519.922 401.165L501.351 445.426L510.805 423.366ZM446.052 343.503H422.052V361.876L439.789 366.671L446.052 343.503ZM447.814 343.902L443.421 367.497L452.21 320.308L447.814 343.902ZM446.052 343.503L452.316 320.334L422.052 312.151V343.503H446.052ZM459.175 343.499L464.433 366.916L453.92 320.081L459.175 343.499ZM458.853 343.569L453.8 320.107L463.903 367.032L458.853 343.569ZM148.625 144.266L149.695 120.289L147.55 168.242L148.625 144.266ZM150.092 144.326L149.216 168.31L174.092 169.218V144.326H150.092ZM150.092 144.325H174.092V121.185L150.967 120.341L150.092 144.325ZM93.155 131.488L82.7607 153.121L82.8309 153.154L82.9013 153.188L93.155 131.488ZM96.0955 132.823L86.4782 154.812L105.717 110.836L96.0955 132.823ZM91.9783 130.923L102.373 109.29L81.4632 152.497L91.9783 130.923ZM265.938 87.9209L261.833 111.567L270.043 64.2745L265.938 87.9209ZM265.086 87.7734L269.095 64.1106L261.073 111.436L265.086 87.7734ZM264.353 87.6513L260.426 111.328L268.288 63.9761L264.353 87.6513ZM263.084 87.4443L266.869 63.7446L259.298 111.144L263.084 87.4443ZM260.706 87.0781L257.185 110.818L264.227 63.3378L260.706 87.0781ZM259.29 86.873L262.654 63.1099L255.924 110.636L259.29 86.873ZM258.917 86.8203L255.594 110.589L262.241 63.0517L258.917 86.8203ZM255.308 86.3457L258.233 62.5246L252.381 110.167L255.308 86.3457ZM253.313 86.1103L236.343 69.1398L201.138 104.344L250.607 109.957L253.313 86.1103ZM255.197 86.332L252.284 110.155L258.112 62.5097L255.197 86.332ZM253.314 86.1093L256.02 62.2624L244.525 60.9579L236.344 69.1388L253.314 86.1093ZM188.551 36.9902L194.138 60.3306L194.255 60.3027L194.371 60.2736L188.551 36.9902ZM188.582 36.9824L194.403 60.2658L182.996 13.6415L188.582 36.9824ZM311.888 28.4863L314.392 4.61721L314.341 4.61186L314.29 4.60673L311.888 28.4863ZM309.606 28.2568L311.904 4.36709L307.205 52.1364L309.606 28.2568ZM192.08 33.5996L197.392 57.0043C238.729 47.6222 280.275 46.3772 307.035 49.602L309.906 25.7744L312.777 1.94678C280.204 -1.97857 233.117 -0.32487 186.768 10.1948L192.08 33.5996ZM309.906 25.7744L292.935 8.80382L292.934 8.8048L309.905 25.7754L326.876 42.7459L326.877 42.7449L309.906 25.7744ZM309.905 25.7754L307.602 49.6646C330.005 51.8246 347.31 56.5404 362.789 64.086L373.305 42.5127L383.822 20.9394C362.253 10.4256 339.184 4.48708 312.208 1.88615L309.905 25.7754ZM373.305 42.5127L362.789 64.086C378.392 71.6921 393.01 82.5932 409.602 98.2103L426.052 80.7343L442.501 63.2584C423.836 45.6896 405.254 31.3871 383.822 20.9394L373.305 42.5127ZM426.052 80.7343L409.602 98.2103C496.109 179.637 490.523 301.195 474.537 399.165L498.223 403.03L521.91 406.895C537.905 308.873 548.727 163.247 442.501 63.2584L426.052 80.7343ZM498.223 403.03L474.452 399.727C474.42 399.954 474.396 400.155 474.377 400.322C474.358 400.488 474.344 400.629 474.333 400.735C474.323 400.841 474.316 400.926 474.312 400.973C474.309 400.997 474.308 401.017 474.307 401.026C474.306 401.033 474.305 401.045 474.306 401.037C474.306 401.035 474.31 400.988 474.315 400.928C474.321 400.866 474.33 400.767 474.342 400.646C474.354 400.525 474.371 400.369 474.393 400.188C474.415 400.006 474.443 399.791 474.479 399.548L498.22 403.059L521.962 406.569C521.999 406.324 522.027 406.106 522.049 405.923C522.071 405.739 522.088 405.581 522.1 405.457C522.113 405.334 522.122 405.233 522.128 405.168C522.133 405.106 522.138 405.056 522.138 405.052C522.139 405.043 522.138 405.054 522.137 405.059C522.137 405.068 522.135 405.086 522.133 405.109C522.129 405.154 522.122 405.236 522.112 405.339C522.102 405.443 522.088 405.582 522.069 405.746C522.051 405.91 522.026 406.108 521.995 406.334L498.223 403.03ZM498.22 403.059L474.488 399.482C472.976 409.519 475.41 419.004 480.899 426.783L500.508 412.944L520.116 399.106C520.718 399.959 521.363 401.2 521.739 402.765C522.117 404.336 522.094 405.698 521.953 406.635L498.22 403.059ZM500.508 412.944L480.899 426.783C486.055 434.089 493.185 438.927 500.006 442.102L510.134 420.344L520.262 398.585C519.857 398.397 519.562 398.237 519.363 398.118C519.164 398 519.078 397.934 519.082 397.937C519.086 397.94 519.197 398.025 519.378 398.209C519.56 398.394 519.822 398.689 520.116 399.106L500.508 412.944ZM510.134 420.344L500.271 442.224L501.094 442.595L510.957 420.715L520.82 398.835L519.996 398.464L510.134 420.344ZM510.957 420.715L501.352 442.709C514.441 448.425 530.493 450.064 543.909 447.381L539.203 423.847L534.496 400.313C530.716 401.069 524.655 400.508 520.561 398.72L510.957 420.715ZM539.203 423.847L543.694 447.423L543.755 447.411L539.264 423.835L534.774 400.259L534.712 400.271L539.203 423.847ZM539.264 423.835L543.383 447.479L543.534 447.453L539.416 423.809L535.297 400.165L535.146 400.191L539.264 423.835ZM539.416 423.809L543.361 447.482L543.426 447.471L539.48 423.798L535.535 400.124L535.47 400.135L539.416 423.809ZM539.48 423.798L542.978 447.542C543.476 447.468 543.853 447.436 544.118 447.424C544.248 447.418 544.345 447.417 544.411 447.418C544.477 447.418 544.508 447.421 544.506 447.421C544.505 447.421 544.359 447.409 544.096 447.349C543.829 447.287 543.448 447.176 542.99 446.981L552.387 424.897L561.785 402.814C552.613 398.911 543.347 398.969 535.982 400.054L539.48 423.798ZM552.387 424.897L542.99 446.981C541.969 446.546 540.84 445.814 539.834 444.75C538.843 443.702 538.214 442.592 537.854 441.645L560.288 433.116L582.721 424.587C579.121 415.116 571.933 407.132 561.786 402.814L552.387 424.897ZM560.288 433.116L537.854 441.645C537.246 440.047 537.597 439.467 537.409 440.794C537.23 442.054 536.701 444.015 535.632 446.548L557.743 455.881L579.854 465.214C583.562 456.428 588.734 440.405 582.722 424.589L560.288 433.116ZM557.743 455.881L535.632 446.547C533.413 451.804 529.519 458.008 524.629 463.555L542.634 479.425L560.638 495.294C568.526 486.346 575.384 475.804 579.854 465.214L557.743 455.881ZM542.634 479.425L524.629 463.555C519.656 469.198 514.607 473.081 510.604 474.908L520.564 496.743L530.525 518.579C542.627 513.058 552.884 504.091 560.638 495.295L542.634 479.425ZM520.564 496.743V472.743H520.563V496.743V520.743H520.564V496.743ZM520.563 496.743L510.603 474.907C510.98 474.736 511.469 474.529 512.056 474.319L520.133 496.919L528.209 519.519C529.095 519.203 529.871 518.876 530.523 518.579L520.563 496.743ZM520.133 496.919L512.056 474.319C504.741 476.933 495.104 477.695 483.174 478.154L484.098 502.137L485.023 526.119C496.246 525.686 512.992 524.957 528.209 519.519L520.133 496.919ZM484.098 502.137L483.174 478.154C477.692 478.366 471.437 478.534 465.816 478.979L467.708 502.904L469.6 526.83C473.949 526.486 478.639 526.365 485.023 526.119L484.098 502.137ZM467.708 502.904L465.815 478.979C460.257 479.419 453.85 480.216 447.933 482.188L455.521 504.957L463.11 527.726C463.11 527.726 463.595 527.57 464.798 527.373C465.971 527.18 467.537 526.993 469.6 526.83L467.708 502.904ZM455.521 504.957L447.932 482.189C440.621 484.625 434.829 489 430.753 492.726C426.484 496.627 422.785 501.034 419.756 505.149L439.087 519.374L458.417 533.599C460.184 531.197 461.825 529.355 463.136 528.156C463.769 527.577 464.156 527.306 464.271 527.231C464.402 527.146 464.012 527.425 463.111 527.725L455.521 504.957ZM439.087 519.374L419.756 505.15C416.835 509.12 414.509 512.852 412.915 515.583L433.64 527.685L454.366 539.786C455.351 538.1 456.752 535.863 458.417 533.599L439.087 519.374ZM433.64 527.685L412.915 515.583C412.508 516.28 412.147 516.914 411.837 517.47L432.79 529.174L453.743 540.877C453.923 540.555 454.131 540.189 454.366 539.786L433.64 527.685ZM432.79 529.174L411.748 517.63L411.131 518.755L432.173 530.299L453.214 541.842L453.831 540.717L432.79 529.174ZM432.173 530.299L410.944 519.104L410.576 519.8L431.805 530.995L453.034 542.19L453.402 541.494L432.173 530.299ZM431.805 530.995L410.488 519.969C410.441 520.06 410.402 520.137 410.368 520.203C410.352 520.235 410.339 520.261 410.33 520.277C410.317 520.303 410.325 520.287 410.331 520.277L431.719 531.163L453.108 542.049C453.113 542.041 453.117 542.033 453.12 542.027C453.123 542.021 453.126 542.016 453.127 542.012C453.129 542.008 453.131 542.005 453.132 542.003C453.134 542 453.134 541.999 453.135 541.997C453.137 541.993 453.136 541.996 453.133 542C453.131 542.005 453.128 542.01 453.126 542.014C453.125 542.016 453.124 542.018 453.124 542.019C453.123 542.021 453.123 542.021 453.123 542.021L431.805 530.995ZM431.719 531.163L410.253 520.43L410.252 520.432L431.719 531.165L453.185 541.898L453.186 541.896L431.719 531.163ZM431.719 531.165L410.326 520.286C410.559 519.828 410.767 519.456 410.915 519.199C410.99 519.068 411.054 518.959 411.102 518.878C411.15 518.799 411.187 518.738 411.203 518.711C411.208 518.704 411.211 518.698 411.213 518.694C411.215 518.693 411.215 518.691 411.216 518.69C411.217 518.689 411.217 518.688 411.217 518.688C411.219 518.686 411.212 518.697 411.204 518.71C411.189 518.734 411.144 518.808 411.088 518.902C411.031 518.998 410.942 519.149 410.836 519.336C410.73 519.522 410.587 519.78 410.425 520.091L431.704 531.19L452.983 542.29C452.821 542.6 452.679 542.856 452.575 543.04C452.47 543.225 452.382 543.374 452.326 543.468C452.271 543.56 452.227 543.632 452.214 543.654C452.206 543.666 452.2 543.676 452.202 543.673C452.202 543.672 452.204 543.669 452.207 543.665C452.209 543.661 452.213 543.655 452.218 543.647C452.235 543.618 452.274 543.554 452.323 543.473C452.372 543.39 452.438 543.279 452.514 543.146C452.665 542.884 452.876 542.507 453.111 542.044L431.719 531.165ZM431.704 531.19L410.205 520.522C409.838 521.262 409.559 521.92 409.352 522.449C409.145 522.978 408.989 523.433 408.879 523.774C408.768 524.114 408.686 524.392 408.637 524.564C408.589 524.729 408.553 524.861 408.551 524.871C408.543 524.897 408.553 524.863 408.556 524.851C408.563 524.827 408.576 524.778 408.594 524.715C408.627 524.595 408.692 524.368 408.78 524.084C408.868 523.799 408.998 523.401 409.17 522.932C409.342 522.463 409.577 521.867 409.888 521.19L431.701 531.199L453.514 541.209C453.825 540.53 454.061 539.934 454.233 539.464C454.405 538.994 454.535 538.596 454.623 538.31C454.712 538.025 454.777 537.797 454.81 537.677C454.828 537.614 454.842 537.564 454.848 537.54C454.852 537.527 454.861 537.493 454.854 537.519C454.852 537.527 454.816 537.659 454.769 537.823C454.72 537.995 454.638 538.272 454.528 538.611C454.417 538.951 454.261 539.405 454.054 539.934C453.848 540.462 453.569 541.12 453.202 541.859L431.704 531.19ZM431.701 531.199L410.441 520.063L410.344 520.248L431.604 531.384L452.864 542.52L452.961 542.335L431.701 531.199ZM431.604 531.384L410.558 519.849C414.046 513.484 420.938 509.739 428.189 510.292L426.362 534.223L424.536 558.153C436.103 559.036 447.092 553.06 452.65 542.919L431.604 531.384ZM426.362 534.223L428.19 510.292L323.696 502.309L321.868 526.239L320.04 550.169L424.534 558.153L426.362 534.223ZM321.868 526.239V502.239H265.237V526.239V550.239H321.868V526.239ZM265.237 526.239L245.138 513.124C242.001 517.932 238.887 523.003 235.623 528.522L256.28 540.74L276.937 552.959C279.961 547.845 282.694 543.405 285.337 539.355L265.237 526.239ZM256.28 540.74L272.467 523.021C266.931 517.964 262.144 513.448 257.716 509.105L240.911 526.239L224.105 543.373C229.013 548.187 234.223 553.097 240.093 558.46L256.28 540.74ZM240.911 526.239V502.239H163.578V526.239V550.239H240.911V526.239ZM163.578 526.239L143.849 512.572C141.6 515.819 139.273 519.253 136.843 522.879L156.78 536.24L176.717 549.601C179.068 546.094 181.247 542.88 183.306 539.906L163.578 526.239ZM156.78 536.24L178.561 526.161C176.96 522.701 175.646 519.77 174.553 517.113L152.356 526.239L130.159 535.366C131.646 538.982 133.3 542.648 134.999 546.319L156.78 536.24ZM152.356 526.239V502.239H101.281V526.239V550.239H152.356V526.239ZM101.281 526.239L118.361 543.099C126.979 534.369 133.354 528.308 139.771 523.035L124.536 504.491L109.3 485.947C100.968 492.793 93.2313 500.231 84.2008 509.379L101.281 526.239ZM124.536 504.491L143.023 489.187C136.407 481.195 127.601 475.432 118.982 471.109L108.221 492.561L97.4605 514.014C103 516.793 105.331 518.929 106.049 519.796L124.536 504.491ZM108.221 492.561L118.982 471.109C107.722 465.461 94.978 461.395 83.8908 458.209L77.2625 481.275L70.6341 504.342C81.1688 507.369 90.3618 510.453 97.4605 514.014L108.221 492.561ZM77.2625 481.275L83.8908 458.209C71.9282 454.771 62.9721 452.613 55.8117 450.187L48.1111 472.918L40.4105 495.649C48.8554 498.51 61.5034 501.718 70.6341 504.342L77.2625 481.275ZM48.1111 472.918L55.8117 450.187C54.2211 449.648 52.965 449.174 51.9892 448.754C50.9782 448.319 50.5854 448.077 50.5994 448.086L37.7664 468.367L24.9334 488.648C30.1978 491.979 36.0811 494.182 40.4105 495.649L48.1111 472.918ZM37.7664 468.367L50.6003 448.087C50.625 448.102 50.8393 448.238 51.1621 448.507C51.479 448.772 52.0443 449.284 52.682 450.092C54.0777 451.859 55.781 455.06 55.781 459.239H31.781L7.78104 459.24C7.78128 477.231 21.3433 486.376 24.9324 488.647L37.7664 468.367ZM31.781 459.239H55.781C55.7809 461.133 55.1852 463.091 54.2306 464.656C53.8105 465.345 53.4053 465.821 53.1335 466.105C52.8664 466.385 52.6931 466.516 52.6877 466.52L38.1746 447.405L23.6614 428.291C17.0765 433.29 7.78163 443.296 7.78104 459.238L31.781 459.239ZM38.1746 447.405L52.6865 466.521C52.6584 466.542 52.7989 466.435 53.1815 466.199C53.5553 465.969 54.0437 465.687 54.6855 465.337C55.3329 464.984 56.0231 464.623 56.8518 464.193C57.6006 463.805 58.609 463.285 59.5344 462.788L48.1795 441.645L36.8245 420.501C35.7718 421.066 28.6436 424.508 23.6626 428.29L38.1746 447.405ZM48.1795 441.645L59.5344 462.788C63.2088 460.815 69.1624 457.441 74.0437 451.808L55.905 436.092L37.7664 420.376C38.483 419.549 38.9942 419.219 38.8327 419.332C38.7607 419.382 38.575 419.507 38.2282 419.714C37.8808 419.921 37.4275 420.177 36.8245 420.501L48.1795 441.645ZM55.905 436.092L74.0454 451.806C78.9043 446.197 82.2125 438.957 82.7126 430.099L58.7507 428.746L34.7889 427.393C34.8325 426.621 35.0308 425.341 35.6558 423.83C36.284 422.31 37.0992 421.146 37.7647 420.378L55.905 436.092ZM58.7507 428.746L82.646 430.986L82.6635 430.799L58.7683 428.559L34.8731 426.318L34.8555 426.506L58.7507 428.746ZM58.7683 428.559L82.5615 431.703C82.2755 433.867 81.6667 435.939 80.7866 437.856L58.9744 427.845L37.1622 417.833C36.0769 420.198 35.3273 422.75 34.9752 425.414L58.7683 428.559ZM58.9744 427.845L77.0538 412.061C73.9423 408.497 71.1389 404.64 68.6412 400.512L48.1072 412.936L27.5732 425.359C31.4547 431.775 35.8872 437.893 40.895 443.629L58.9744 427.845ZM48.1072 412.936L68.6412 400.512C54.2592 376.741 50.2334 344.263 55.5509 311.719L31.865 307.849L8.17912 303.978C1.62296 344.103 5.59948 389.042 27.5732 425.359L48.1072 412.936ZM31.865 307.849L45.0137 287.771C49.7101 290.847 53.2362 295.809 54.3608 301.775L30.7761 306.221L7.19154 310.667C8.57588 318.01 12.9136 324.126 18.7163 327.926L31.865 307.849ZM30.7761 306.221L54.3608 301.775C45.8105 256.416 46.288 220.505 53.3572 190.138L29.9822 184.696L6.60726 179.255C-2.31885 217.598 -2.27535 260.445 7.19152 310.666L30.7761 306.221ZM29.9822 184.696L53.3572 190.138C60.4288 159.762 74.3541 133.814 94.2675 108.747L75.4754 93.8183L56.6832 78.89C33.3028 108.322 15.6064 140.598 6.60726 179.255L29.9822 184.696ZM75.4754 93.8183L94.1292 108.919L94.179 108.858L75.5252 93.7568L56.8713 78.656L56.8215 78.7176L75.4754 93.8183ZM75.5252 93.7568L93.8326 109.276L93.9576 109.128L75.6502 93.6093L57.3427 78.0904L57.2177 78.2379L75.5252 93.7568ZM75.6502 93.6093L93.712 109.413L93.7667 109.351L75.7048 93.5468L57.643 77.7427L57.5883 77.8052L75.6502 93.6093ZM75.7048 93.5468L93.4932 109.658C117.162 83.5251 155.731 66.46 197.392 57.0043L192.08 33.5996L186.768 10.1948C140.89 20.6076 91.1455 40.7475 57.9165 77.4356L75.7048 93.5468ZM467.51 500.412L465.618 476.487C464.898 476.544 464.181 476.606 463.467 476.673L465.731 500.566L467.996 524.459C468.446 524.417 468.915 524.376 469.403 524.337L467.51 500.412ZM465.731 500.566L467.805 524.477L469.584 524.322L467.51 500.412L465.437 476.502L463.658 476.656L465.731 500.566ZM101.648 486.844L110.78 464.649C110.668 464.603 110.468 464.521 110.465 464.52L101.381 486.734L92.2953 508.948C92.4709 509.02 92.4502 509.011 92.5168 509.039L101.648 486.844ZM101.381 486.734L92.2953 508.948C92.4764 509.022 92.4481 509.01 92.5145 509.038L101.648 486.844L110.782 464.65C110.703 464.617 110.631 464.588 110.581 464.567C110.52 464.543 110.498 464.534 110.466 464.52L101.381 486.734ZM92.1863 483.304L84.407 506.008C85.5937 506.415 86.7574 506.827 87.8957 507.245L96.1736 484.718L104.451 462.19C102.956 461.641 101.458 461.111 99.9655 460.599L92.1863 483.304ZM96.1736 484.718L113.144 501.688L113.145 501.687L96.1746 484.717L79.204 467.746L79.203 467.747L96.1736 484.718ZM96.1746 484.717L104.453 462.19C102.649 461.527 100.857 460.9 99.0961 460.304L91.406 483.039L83.7159 505.774C85.1624 506.263 86.5547 506.751 87.8966 507.244L96.1746 484.717ZM91.406 483.039L83.714 505.773C84.0236 505.878 84.2053 505.939 84.407 506.008L92.1863 483.304L99.9655 460.599C99.6479 460.491 99.3091 460.376 99.0981 460.305L91.406 483.039ZM90.4802 482.728L98.0707 459.959C97.7748 459.861 97.4818 459.764 97.1926 459.669L89.6843 482.464L82.1761 505.259C82.418 505.339 82.6557 505.418 82.8898 505.496L90.4802 482.728ZM89.6843 482.464L82.1739 505.258C82.4206 505.34 82.6574 505.418 82.8877 505.495L90.4802 482.728L98.0728 459.96C97.773 459.86 97.4792 459.763 97.1948 459.669L89.6843 482.464ZM88.5418 482.091L95.9374 459.259C95.7499 459.198 95.4858 459.112 95.23 459.03L87.8953 481.882L80.5606 504.734C80.7361 504.79 80.9028 504.844 81.1461 504.923L88.5418 482.091ZM87.8953 481.882L80.5582 504.733C80.7348 504.789 80.9089 504.846 81.1437 504.922L88.5418 482.091L95.9398 459.259C95.7438 459.196 95.4871 459.113 95.2324 459.031L87.8953 481.882ZM82.6814 480.264L89.594 457.281C88.6498 456.997 87.6933 456.712 86.7282 456.43L79.988 479.464L73.2479 502.498C74.0768 502.74 74.9162 502.99 75.7688 503.247L82.6814 480.264ZM79.988 479.464L73.2479 502.498C74.0776 502.741 74.9169 502.99 75.7674 503.246L82.6814 480.264L89.5954 457.281C88.6493 456.996 87.6925 456.712 86.7282 456.43L79.988 479.464ZM356.077 461.136L358.362 485.027L359.638 484.905L357.353 461.014L355.068 437.123L353.792 437.245L356.077 461.136ZM357.353 461.014L359.816 484.887C360.099 484.858 360.364 484.825 360.611 484.792C360.857 484.758 361.086 484.723 361.295 484.688C361.505 484.653 361.697 484.618 361.87 484.585C362.043 484.552 362.2 484.52 362.337 484.491C362.474 484.461 362.595 484.434 362.697 484.411C362.749 484.399 362.796 484.389 362.838 484.379C362.881 484.369 362.919 484.359 362.953 484.351C362.987 484.343 363.017 484.336 363.043 484.33C363.068 484.323 363.09 484.318 363.106 484.314C363.123 484.31 363.137 484.307 363.145 484.305C363.149 484.303 363.152 484.303 363.154 484.302C363.155 484.302 363.156 484.302 363.157 484.302C363.157 484.301 363.157 484.301 363.157 484.301C363.157 484.301 363.156 484.302 363.155 484.302C363.153 484.303 363.149 484.303 363.145 484.304C363.137 484.306 363.124 484.31 363.107 484.314C363.091 484.318 363.069 484.323 363.044 484.329C363.019 484.336 362.989 484.343 362.955 484.351C362.921 484.359 362.883 484.368 362.84 484.378C362.798 484.388 362.751 484.399 362.7 484.411C362.598 484.434 362.477 484.461 362.34 484.49C362.203 484.519 362.047 484.551 361.874 484.584C361.701 484.617 361.509 484.652 361.3 484.687C361.091 484.722 360.862 484.757 360.616 484.79C360.37 484.824 360.105 484.857 359.822 484.886L357.358 461.013L354.894 437.139C354.611 437.169 354.346 437.201 354.1 437.235C353.854 437.269 353.625 437.304 353.415 437.339C353.206 437.374 353.014 437.409 352.84 437.442C352.668 437.475 352.511 437.507 352.374 437.536C352.237 437.565 352.116 437.592 352.014 437.615C351.962 437.627 351.915 437.638 351.873 437.648C351.83 437.658 351.792 437.667 351.758 437.675C351.724 437.683 351.694 437.691 351.669 437.697C351.643 437.703 351.622 437.708 351.605 437.712C351.588 437.716 351.575 437.72 351.567 437.722C351.562 437.723 351.559 437.724 351.557 437.724C351.556 437.724 351.555 437.725 351.555 437.725C351.554 437.725 351.554 437.725 351.554 437.725C351.554 437.725 351.555 437.725 351.557 437.724C351.559 437.724 351.562 437.723 351.567 437.722C351.576 437.72 351.588 437.717 351.604 437.712C351.621 437.708 351.643 437.703 351.668 437.697C351.693 437.691 351.723 437.683 351.757 437.675C351.791 437.667 351.83 437.658 351.873 437.648C351.915 437.638 351.961 437.627 352.012 437.616C352.114 437.592 352.235 437.565 352.372 437.536C352.509 437.507 352.665 437.475 352.838 437.442C353.011 437.409 353.203 437.374 353.413 437.339C353.622 437.305 353.851 437.269 354.097 437.236C354.343 437.202 354.608 437.169 354.891 437.14L357.353 461.014ZM357.358 461.013L354.894 437.139C354.565 437.173 354.26 437.203 353.973 437.228L356.077 461.136L358.18 485.043C358.748 484.993 359.297 484.94 359.822 484.886L357.358 461.013ZM39.1394 449.826L23.9838 431.217C23.5691 431.555 23.1723 431.891 22.7941 432.223L38.6199 450.266L54.4457 468.308C54.4086 468.341 54.3585 468.384 54.295 468.435L39.1394 449.826ZM38.6199 450.266L54.4457 468.308C54.3342 468.406 54.2496 468.473 54.1993 468.511L39.6863 449.396L25.1733 430.282C24.3943 430.873 23.5966 431.519 22.7941 432.223L38.6199 450.266ZM39.6863 449.396L25.1733 430.282C24.79 430.573 24.3921 430.884 23.9842 431.216L39.1394 449.826L54.2946 468.436C54.2466 468.475 54.214 468.5 54.1993 468.511L39.6863 449.396ZM428.095 424.447L411.24 407.363C410.611 407.983 409.963 408.608 409.293 409.242L425.793 426.671L442.292 444.1C443.172 443.267 444.06 442.411 444.951 441.532L428.095 424.447ZM425.793 426.671L442.292 444.1C443.173 443.266 444.061 442.41 444.951 441.532L428.095 424.447L411.24 407.362C410.611 407.983 409.962 408.609 409.294 409.241L425.793 426.671ZM510.833 423.378L501.732 445.585C501.982 445.688 502.195 445.771 502.284 445.806C502.308 445.816 502.332 445.825 502.346 445.831C502.363 445.837 502.372 445.84 502.378 445.843C502.392 445.848 502.377 445.843 502.35 445.832L511.23 423.535L520.11 401.238C520.017 401.201 519.936 401.17 519.883 401.149C519.857 401.138 519.832 401.129 519.816 401.122C519.796 401.115 519.787 401.111 519.778 401.108C519.761 401.101 519.772 401.105 519.795 401.114C519.82 401.124 519.869 401.144 519.934 401.17L510.833 423.378ZM511.23 423.535L520.11 401.238C520.032 401.207 519.963 401.18 519.918 401.162C519.895 401.153 519.872 401.144 519.858 401.139C519.841 401.132 519.831 401.128 519.822 401.125C519.805 401.118 519.809 401.119 519.824 401.125C519.839 401.131 519.874 401.145 519.922 401.165L510.805 423.366L501.689 445.567C501.917 445.661 502.113 445.738 502.213 445.778C502.25 445.792 502.325 445.822 502.33 445.824C502.355 445.834 502.357 445.835 502.351 445.832L511.23 423.535ZM510.805 423.366L501.351 445.426L501.379 445.437L510.833 423.378L520.287 401.318L520.259 401.307L510.805 423.366ZM446.052 343.503L439.789 366.671C441.029 367.006 442.243 367.277 443.421 367.497L447.814 343.902L452.207 320.308C452.191 320.305 452.23 320.31 452.316 320.334L446.052 343.503ZM447.814 343.902L452.21 320.308C452.196 320.306 452.22 320.31 452.275 320.323L446.64 343.652L441.006 366.981C441.835 367.182 442.641 367.352 443.419 367.496L447.814 343.902ZM446.64 343.652L452.275 320.323C452.285 320.326 452.299 320.329 452.316 320.334L446.052 343.503L439.789 366.671C440.196 366.781 440.601 366.884 441.006 366.981L446.64 343.652ZM459.175 343.499L453.92 320.081C453.921 320.081 453.914 320.083 453.894 320.087C453.873 320.092 453.845 320.098 453.804 320.107L458.853 343.569L463.903 367.032C464.029 367.005 464.217 366.964 464.429 366.917L459.175 343.499ZM458.853 343.569L463.907 367.031C464.022 367.007 464.216 366.965 464.433 366.916L459.175 343.499L453.916 320.082C453.921 320.081 453.916 320.082 453.896 320.087C453.875 320.091 453.846 320.097 453.8 320.107L458.853 343.569ZM148.625 144.266L147.55 168.242C148.072 168.265 148.634 168.289 149.216 168.31L150.092 144.326L150.967 120.341C150.57 120.327 150.154 120.31 149.7 120.29L148.625 144.266ZM150.092 144.326H174.092V144.325H150.092H126.092V144.326H150.092ZM150.092 144.325L150.967 120.341C150.545 120.326 150.121 120.308 149.695 120.289L148.625 144.266L147.555 168.242C148.106 168.266 148.659 168.29 149.216 168.31L150.092 144.325ZM93.155 131.488L82.9013 153.188C84.109 153.758 85.3044 154.299 86.4782 154.812L96.0955 132.823L105.713 110.834C104.905 110.481 104.139 110.134 103.409 109.789L93.155 131.488ZM96.0955 132.823L105.717 110.836C105.226 110.621 104.769 110.417 104.338 110.22L94.3435 132.04L84.3491 153.86C85.0782 154.194 85.7897 154.511 86.4736 154.81L96.0955 132.823ZM94.3435 132.04L104.338 110.22C103.707 109.931 103.092 109.641 102.493 109.349L91.9783 130.923L81.4632 152.497C82.4264 152.966 83.389 153.42 84.3491 153.86L94.3435 132.04ZM91.9783 130.923L81.584 152.555L82.7607 153.121L93.155 131.488L103.549 109.856L102.373 109.29L91.9783 130.923ZM265.938 87.9209L270.043 64.2745C269.965 64.2609 269.895 64.2486 269.759 64.2247C269.641 64.2039 269.479 64.1755 269.303 64.1455L265.272 87.8047L261.242 111.464C261.457 111.501 261.387 111.49 261.833 111.567L265.938 87.9209ZM265.272 87.8047L269.303 64.1455C269.219 64.1313 269.145 64.1189 269.117 64.1143C269.075 64.1073 269.084 64.1088 269.098 64.1112L265.086 87.7734L261.073 111.436C261.115 111.443 261.151 111.449 261.178 111.453C261.204 111.458 261.229 111.462 261.241 111.464C261.276 111.469 261.263 111.467 261.242 111.464L265.272 87.8047ZM265.086 87.7734L261.077 111.436C261.297 111.474 261.479 111.506 261.833 111.567L265.938 87.9209L270.043 64.2745C269.829 64.2374 269.443 64.1696 269.095 64.1106L265.086 87.7734ZM264.353 87.6513L268.288 63.9761C268.12 63.9482 267.72 63.8807 267.391 63.8274L263.553 87.5185L259.714 111.21C259.919 111.243 260.052 111.266 260.419 111.327L264.353 87.6513ZM263.553 87.5185L267.391 63.8274C267.251 63.8047 267.123 63.7847 267.042 63.7719C266.945 63.7566 266.908 63.7509 266.87 63.7448L263.084 87.4443L259.298 111.144C259.752 111.216 259.495 111.174 259.714 111.21L263.553 87.5185ZM263.084 87.4443L259.299 111.144C259.662 111.202 260.035 111.263 260.426 111.328L264.353 87.6513L268.28 63.9748C267.824 63.8991 267.352 63.8218 266.869 63.7446L263.084 87.4443ZM260.706 87.0781L264.227 63.3378C264.225 63.3375 263.781 63.2707 263.58 63.2414L260.123 86.9912L256.666 110.741C256.854 110.768 256.798 110.761 257.184 110.818L260.706 87.0781ZM260.123 86.9912L263.58 63.2414C263.244 63.1926 262.828 63.1347 262.655 63.1102L259.29 86.873L255.924 110.636C256.306 110.69 256.446 110.709 256.666 110.741L260.123 86.9912ZM259.29 86.873L255.926 110.636C256.35 110.696 256.769 110.757 257.185 110.818L260.706 87.0781L264.227 63.3378C263.698 63.2594 263.173 63.1834 262.654 63.1099L259.29 86.873ZM258.917 86.8203L262.241 63.0517C261.618 62.9644 260.96 62.874 260.285 62.7851L257.154 86.58L254.023 110.375C254.522 110.441 255.039 110.512 255.592 110.589L258.917 86.8203ZM257.154 86.58L254.026 110.375C254.521 110.44 255.036 110.511 255.594 110.589L258.917 86.8203L262.239 63.0514C261.621 62.9649 260.961 62.874 260.282 62.7848L257.154 86.58ZM255.308 86.3457L252.383 110.167C252.937 110.235 253.484 110.304 254.026 110.375L257.154 86.58L260.282 62.7848C259.592 62.694 258.909 62.6075 258.233 62.5246L255.308 86.3457ZM257.154 86.58L260.285 62.7851C259.59 62.6937 258.906 62.6072 258.235 62.5248L255.308 86.3457L252.381 110.167C252.939 110.235 253.486 110.304 254.023 110.375L257.154 86.58ZM253.313 86.1103L250.607 109.957C251.175 110.022 251.733 110.087 252.284 110.155L255.197 86.332L258.11 62.5094C257.403 62.423 256.705 62.3412 256.019 62.2633L253.313 86.1103ZM255.197 86.332L258.112 62.5097C257.43 62.4263 256.731 62.3431 256.02 62.2624L253.314 86.1093L250.608 109.956C251.15 110.018 251.706 110.084 252.282 110.154L255.197 86.332ZM253.314 86.1093L236.344 69.1388L236.343 69.1398L253.313 86.1103L270.284 103.081L270.285 103.08L253.314 86.1093ZM186.659 37.4482L192.377 60.7572C192.954 60.6154 193.541 60.4737 194.138 60.3306L188.551 36.9902L182.963 13.6498C182.299 13.8086 181.624 13.9717 180.941 14.1392L186.659 37.4482ZM188.551 36.9902L194.371 60.2736L194.403 60.2658L188.582 36.9824L182.761 13.699L182.73 13.7068L188.551 36.9902ZM188.582 36.9824L182.996 13.6415C182.313 13.8049 181.628 13.9707 180.941 14.1392L186.659 37.4482L192.377 60.7572C192.971 60.6113 193.568 60.4667 194.168 60.3233L188.582 36.9824ZM312.135 28.5127L314.661 4.64596C314.643 4.64406 314.625 4.64209 314.575 4.6367C314.533 4.63222 314.466 4.62496 314.392 4.61721L311.888 28.4863L309.385 52.3554C309.533 52.3709 309.333 52.3501 309.61 52.3794L312.135 28.5127ZM311.888 28.4863L314.29 4.60673L312.007 4.37724L309.606 28.2568L307.205 52.1364L309.487 52.3659L311.888 28.4863ZM309.606 28.2568L307.308 52.1465C308.074 52.2202 308.84 52.298 309.61 52.3794L312.135 28.5127L314.661 4.64596C313.755 4.55006 312.836 4.45672 311.904 4.36709L309.606 28.2568Z" fill="#CB513C"/>
</g>
</g>
<path id="Vector_5" d="M522 105.412V34.6351H624.575V104.973C624.575 111.616 624.185 117.526 623.403 122.704C622.719 127.881 621.254 133.108 619.007 138.383C616.858 143.658 613.927 148.054 610.215 151.571C606.6 155.088 601.667 157.921 595.415 160.07C589.162 162.317 581.787 163.441 573.288 163.441C565.668 163.441 558.829 162.269 552.772 159.924C546.716 157.579 541.782 154.502 537.972 150.692C534.26 146.882 531.134 142.388 528.594 137.211C526.152 132.033 524.442 126.807 523.465 121.531C522.488 116.354 522 110.981 522 105.412ZM549.988 103.068C549.988 108.441 551.014 113.032 553.066 116.842C555.215 120.652 557.999 123.436 561.418 125.195C564.837 126.953 568.745 127.832 573.141 127.832C580.175 127.832 585.792 125.83 589.993 121.824C594.291 117.917 596.44 111.665 596.44 103.068V68.7782H549.988V103.068ZM522 169.322H624.868V203.465H522V169.322ZM624.868 215.401V328.967H596.294V249.544H587.209V323.984H559.806V249.544H550.574V328.967H522V215.401H624.868ZM522 425.784V397.649L567.133 372.298H522V338.155H624.868V378.892L567.866 412.156L624.868 445.42V486.303H522V452.16H567.426L522 425.784Z" fill="#E57C62"/>
<path id="Vector_6" d="M192.632 36.0384C236.215 26.1466 280.242 24.7186 309.606 28.2572C334.084 30.6119 353.988 35.8779 372.209 44.7601C390.424 53.639 406.817 66.0637 424.337 82.555C519.696 172.314 511.743 304.687 495.746 402.686L495.747 402.687C494.405 411.595 499.892 418.335 509.078 422.611C518.269 426.889 530.306 428.176 539.693 426.298L539.844 426.272C544.398 425.601 548.285 425.87 551.408 427.199C554.629 428.57 556.797 430.971 557.951 434.005C560.136 439.755 558.589 447.448 555.439 454.91C552.212 462.555 546.99 470.701 540.757 477.772C534.538 484.827 527.157 490.988 519.526 494.469C519.449 494.504 519.37 494.536 519.29 494.565C508.436 498.444 495.615 499.191 484.001 499.639C478.115 499.866 472.562 500.013 467.51 500.412C462.449 500.813 458.129 501.452 454.73 502.585C448.181 504.768 441.904 511.327 437.073 517.893C434.714 521.099 432.802 524.161 431.481 526.424C430.821 527.554 430.312 528.479 429.969 529.118C429.798 529.436 429.669 529.683 429.584 529.847C429.542 529.929 429.51 529.991 429.49 530.031C429.48 530.05 429.472 530.064 429.468 530.073C429.466 530.077 429.464 530.081 429.464 530.081C428.919 531.172 427.768 531.824 426.552 531.731L132.052 509.231C131.015 509.151 130.092 508.54 129.615 507.616C126.048 500.706 118.793 495.068 109.342 490.327C99.9462 485.614 88.7926 481.988 77.9526 478.873C67.2575 475.8 56.6486 473.171 48.9126 470.55C45.0352 469.237 41.6076 467.84 39.103 466.255C36.7527 464.768 34.2808 462.518 34.2808 459.24C34.2808 454.706 36.7342 451.638 39.686 449.397C42.4668 447.286 46.2368 445.525 49.3618 443.847C52.6847 442.063 55.6432 440.212 57.7944 437.729C59.6798 435.553 61.0265 432.79 61.2466 428.886C80.9312 450.436 110.66 464.24 152.281 464.24H354.781C354.853 464.24 354.925 464.237 354.997 464.232C384.7 462.079 413.85 445.885 435.529 423.644C457.191 401.419 471.781 372.75 471.781 345.24C471.781 345.216 471.78 345.192 471.78 345.168C471.74 343.485 471.693 341.81 471.641 340.146C471.61 339.144 471.08 338.225 470.23 337.695C469.433 337.198 468.452 337.104 467.58 337.434L467.408 337.506C458.835 341.379 452.178 342.051 446.836 340.607C441.509 339.167 436.972 335.481 432.913 329.577C424.66 317.571 419.151 297.58 413.24 273.367C407.387 249.397 401.209 221.667 391.47 195.055C381.724 168.423 368.33 142.657 347.882 122.598C320.904 96.1334 278.988 84.5802 243.485 82.2132C225.687 81.0267 209.283 82.1316 196.905 84.933C190.728 86.3309 185.415 88.1818 181.408 90.474C177.491 92.7139 174.316 95.6709 173.372 99.5072C171.587 106.595 172.641 112.525 176.597 116.966C180.39 121.225 186.411 123.595 193.423 124.791C204.011 126.598 218.006 125.911 233.366 123.75C211.927 134.938 185.958 140.891 160.357 141.41C129.204 142.04 99.0564 134.621 78.5747 119.335C77.9052 118.836 77.0574 118.638 76.2359 118.789C75.4653 118.932 74.783 119.37 74.3325 120.006L74.2456 120.136C33.3676 184.734 29.2862 257.266 33.2603 305.601C33.2509 305.654 33.2412 305.707 33.2319 305.76C24.2707 258.223 24.5155 219.204 32.4165 185.264C40.3514 151.178 55.9656 122.396 77.4321 95.3734L77.5571 95.2259C105.508 64.3648 149.082 45.9229 192.632 36.0384Z" fill="#58362A"/>
<g id="Mask group_2">
<mask id="mask1_78_78" style="mask-type:luminance" maskUnits="userSpaceOnUse" x="23" y="23" width="539" height="512">
<g id="Group_2">
<path id="Vector_7" d="M561.499 23.5005H23.499V534.5H561.499V23.5005Z" fill="white"/>
<path id="Vector_8" d="M192.632 36.0384C236.215 26.1466 280.242 24.7186 309.606 28.2572C334.084 30.6119 353.988 35.8779 372.209 44.7601C390.424 53.639 406.817 66.0637 424.337 82.555C519.696 172.314 511.743 304.687 495.746 402.686L495.747 402.687C494.405 411.595 499.892 418.335 509.078 422.611C518.269 426.889 530.306 428.176 539.693 426.298L539.844 426.272C544.398 425.601 548.285 425.87 551.408 427.199C554.629 428.57 556.797 430.971 557.951 434.005C560.136 439.755 558.589 447.448 555.439 454.91C552.212 462.555 546.99 470.701 540.757 477.772C534.538 484.827 527.157 490.988 519.526 494.469C519.449 494.504 519.37 494.536 519.29 494.565C508.436 498.444 495.615 499.191 484.001 499.639C478.115 499.866 472.562 500.013 467.51 500.412C462.449 500.813 458.129 501.452 454.73 502.585C448.181 504.768 441.904 511.327 437.073 517.893C434.714 521.099 432.802 524.161 431.481 526.424C430.821 527.554 430.312 528.479 429.969 529.118C429.798 529.436 429.669 529.683 429.584 529.847C429.542 529.929 429.51 529.991 429.49 530.031C429.48 530.05 429.472 530.064 429.468 530.073C429.466 530.077 429.464 530.081 429.464 530.081C428.919 531.172 427.768 531.824 426.552 531.731L132.052 509.231C131.015 509.151 130.092 508.54 129.615 507.616C126.048 500.706 118.793 495.068 109.342 490.327C99.9462 485.614 88.7926 481.988 77.9526 478.873C67.2575 475.8 56.6486 473.171 48.9126 470.55C45.0352 469.237 41.6076 467.84 39.103 466.255C36.7527 464.768 34.2808 462.518 34.2808 459.24C34.2808 454.706 36.7342 451.638 39.686 449.397C42.4668 447.286 46.2368 445.525 49.3618 443.847C52.6847 442.063 55.6432 440.212 57.7944 437.729C59.6798 435.553 61.0265 432.79 61.2466 428.886C80.9312 450.436 110.66 464.24 152.281 464.24H354.781C354.853 464.24 354.925 464.237 354.997 464.232C384.7 462.079 413.85 445.885 435.529 423.644C457.191 401.419 471.781 372.75 471.781 345.24C471.781 345.216 471.78 345.192 471.78 345.168C471.74 343.485 471.693 341.81 471.641 340.146C471.61 339.144 471.08 338.225 470.23 337.695C469.433 337.198 468.452 337.104 467.58 337.434L467.408 337.506C458.835 341.379 452.178 342.051 446.836 340.607C441.509 339.167 436.972 335.481 432.913 329.577C424.66 317.571 419.151 297.58 413.24 273.367C407.387 249.397 401.209 221.667 391.47 195.055C381.724 168.423 368.33 142.657 347.882 122.598C320.904 96.1334 278.988 84.5802 243.485 82.2132C225.687 81.0267 209.283 82.1316 196.905 84.933C190.728 86.3309 185.415 88.1818 181.408 90.474C177.491 92.7139 174.316 95.6709 173.372 99.5072C171.587 106.595 172.641 112.525 176.597 116.966C180.39 121.225 186.411 123.595 193.423 124.791C204.011 126.598 218.006 125.911 233.366 123.75C211.927 134.938 185.958 140.891 160.357 141.41C129.204 142.04 99.0564 134.621 78.5747 119.335C77.9052 118.836 77.0574 118.638 76.2359 118.789C75.4653 118.932 74.783 119.37 74.3325 120.006L74.2456 120.136C33.3676 184.734 29.2862 257.266 33.2603 305.601C33.2509 305.654 33.2412 305.707 33.2319 305.76C24.2707 258.223 24.5155 219.204 32.4165 185.264C40.3514 151.178 55.9656 122.396 77.4321 95.3734L77.5571 95.2259C105.508 64.3648 149.082 45.9229 192.632 36.0384Z" fill="black"/>
</g>
</mask>
<g mask="url(#mask1_78_78)">
<path id="Vector_9" d="M309.606 28.2572L309.307 30.7392C309.327 30.7416 309.347 30.7438 309.366 30.7457L309.606 28.2572ZM495.746 402.686L493.279 402.283C493.15 403.077 493.41 403.885 493.979 404.454L495.746 402.686ZM495.747 402.687L498.22 403.059C498.338 402.275 498.076 401.48 497.515 400.919L495.747 402.687ZM539.693 426.298L539.264 423.835C539.243 423.839 539.223 423.843 539.203 423.847L539.693 426.298ZM539.844 426.272L539.48 423.799C539.458 423.802 539.437 423.805 539.415 423.809L539.844 426.272ZM551.408 427.199L552.387 424.898H552.386L551.408 427.199ZM429.49 530.031L431.717 531.165L431.718 531.163L429.49 530.031ZM429.468 530.073L431.699 531.202L431.703 531.194L429.468 530.073ZM429.464 530.081L427.238 528.944C427.235 528.951 427.231 528.957 427.228 528.963L429.464 530.081ZM61.2466 428.886L63.0924 427.2C62.4139 426.457 61.3562 426.193 60.4083 426.531C59.4605 426.868 58.8072 427.741 58.7506 428.745L61.2466 428.886ZM471.78 345.168L469.28 345.228V345.229L471.78 345.168ZM471.641 340.146L474.14 340.068V340.067L471.641 340.146ZM467.58 337.434L466.695 335.096C466.669 335.106 466.642 335.116 466.616 335.127L467.58 337.434ZM467.408 337.506L466.443 335.2C466.422 335.209 466.4 335.218 466.378 335.228L467.408 337.506ZM173.372 99.5072L175.797 100.118L175.8 100.104L173.372 99.5072ZM233.366 123.75L234.522 125.967C235.601 125.404 236.118 124.146 235.746 122.987C235.375 121.828 234.223 121.105 233.017 121.275L233.366 123.75ZM74.3325 120.006L72.2922 118.562C72.2795 118.579 72.267 118.598 72.2548 118.616L74.3325 120.006ZM74.2456 120.136L72.1679 118.746C72.1561 118.763 72.1444 118.781 72.1331 118.799L74.2456 120.136ZM33.2603 305.601L35.7224 306.034C35.7595 305.824 35.7694 305.609 35.7519 305.396L33.2603 305.601ZM33.2319 305.76L30.7752 306.223C30.999 307.41 32.0399 308.268 33.248 308.26C34.4562 308.252 35.4859 307.382 35.6944 306.192L33.2319 305.76ZM77.4321 95.3734L75.5251 93.7568C75.508 93.7771 75.4911 93.7976 75.4746 93.8184L77.4321 95.3734ZM77.5571 95.2259L75.7042 93.5477C75.6858 93.568 75.6678 93.5885 75.6501 93.6094L77.5571 95.2259ZM192.632 36.0384L193.186 38.4764C236.507 28.6439 280.246 27.2372 309.307 30.7392L309.606 28.2572L309.905 25.7751C280.238 22.2001 235.923 23.6494 192.079 33.6004L192.632 36.0384ZM309.606 28.2572L309.366 30.7457C333.606 33.0775 353.21 38.2798 371.114 47.0073L372.209 44.7601L373.305 42.5129C354.766 33.4759 334.562 28.1463 309.845 25.7687L309.606 28.2572ZM372.209 44.7601L371.114 47.0073C389.025 55.7382 405.212 67.9858 422.624 84.3755L424.337 82.555L426.051 80.7346C408.423 64.1417 391.823 51.5398 373.305 42.5129L372.209 44.7601ZM424.337 82.555L422.624 84.3755C516.955 173.167 509.275 304.286 493.279 402.283L495.746 402.686L498.214 403.089C514.21 305.087 522.437 171.46 426.051 80.7346L424.337 82.555ZM495.746 402.686L493.979 404.454L493.98 404.455L495.747 402.687L497.515 400.919L497.514 400.918L495.746 402.686ZM495.747 402.687L493.275 402.314C492.506 407.418 493.705 411.978 496.422 415.827C499.1 419.622 503.171 422.619 508.023 424.877L509.078 422.611L510.133 420.344C505.799 418.327 502.533 415.815 500.507 412.945C498.52 410.128 497.646 406.864 498.22 403.059L495.747 402.687ZM509.078 422.611L508.023 424.877C517.705 429.384 530.285 430.729 540.183 428.75L539.693 426.298L539.203 423.847C530.327 425.622 518.832 424.393 510.133 420.344L509.078 422.611ZM539.693 426.298L540.122 428.761L540.273 428.735L539.844 426.272L539.415 423.809L539.264 423.835L539.693 426.298ZM539.844 426.272L540.209 428.745C544.497 428.113 547.877 428.413 550.429 429.499L551.408 427.199L552.386 424.898C548.693 423.327 544.299 423.089 539.48 423.799L539.844 426.272ZM551.408 427.199L550.429 429.499C552.997 430.592 554.691 432.467 555.614 434.894L557.951 434.005L560.287 433.117C558.903 429.475 556.261 426.547 552.387 424.898L551.408 427.199ZM557.951 434.005L555.614 434.894C557.438 439.693 556.233 446.6 553.136 453.937L555.439 454.91L557.742 455.882C560.945 448.295 562.834 439.816 560.287 433.117L557.951 434.005ZM555.439 454.91L553.136 453.937C550.026 461.305 544.959 469.225 538.882 476.119L540.757 477.772L542.633 479.425C549.022 472.177 554.398 463.805 557.742 455.882L555.439 454.91ZM540.757 477.772L538.882 476.119C532.807 483.01 525.698 488.906 518.488 492.195L519.526 494.469L520.563 496.744C528.616 493.07 536.269 486.645 542.633 479.425L540.757 477.772ZM519.526 494.469L518.489 492.194C518.472 492.202 518.459 492.207 518.449 492.211L519.29 494.565L520.132 496.919C520.281 496.866 520.425 496.807 520.563 496.744L519.526 494.469ZM519.29 494.565L518.449 492.211C508.006 495.943 495.556 496.692 483.905 497.141L484.001 499.639L484.098 502.137C495.674 501.691 508.865 500.945 520.132 496.919L519.29 494.565ZM484.001 499.639L483.905 497.141C478.066 497.366 472.431 497.515 467.313 497.92L467.51 500.412L467.707 502.905C472.692 502.51 478.165 502.366 484.098 502.137L484.001 499.639ZM467.51 500.412L467.313 497.92C462.194 498.325 457.631 498.983 453.939 500.214L454.73 502.585L455.52 504.957C458.626 503.922 462.704 503.3 467.707 502.905L467.51 500.412ZM454.73 502.585L453.939 500.214C446.597 502.661 439.926 509.797 435.059 516.411L437.073 517.893L439.086 519.375C443.882 512.858 449.765 506.875 455.52 504.957L454.73 502.585ZM437.073 517.893L435.059 516.411C432.635 519.706 430.675 522.846 429.322 525.164L431.481 526.424L433.64 527.685C434.929 525.476 436.793 522.492 439.086 519.375L437.073 517.893ZM431.481 526.424L429.322 525.164C428.645 526.322 428.121 527.274 427.766 527.935L429.969 529.118L432.172 530.3C432.502 529.685 432.997 528.785 433.64 527.685L431.481 526.424ZM429.969 529.118L427.766 527.935C427.588 528.267 427.454 528.525 427.364 528.698L429.584 529.847L431.805 530.996C431.885 530.841 432.008 530.605 432.172 530.3L429.969 529.118ZM429.584 529.847L427.364 528.698C427.325 528.773 427.286 528.848 427.261 528.898L429.49 530.031L431.718 531.163C431.733 531.135 431.758 531.086 431.805 530.996L429.584 529.847ZM429.49 530.031L427.262 528.896C427.259 528.901 427.257 528.906 427.253 528.913C427.252 528.916 427.249 528.921 427.246 528.927C427.244 528.932 427.239 528.941 427.234 528.951L429.468 530.073L431.703 531.194C431.701 531.197 431.7 531.2 431.699 531.201C431.698 531.203 431.698 531.204 431.698 531.204C431.698 531.204 431.698 531.203 431.698 531.202C431.699 531.201 431.699 531.2 431.7 531.198C431.704 531.192 431.71 531.18 431.717 531.165L429.49 530.031ZM429.468 530.073L427.238 528.944C427.218 528.984 427.201 529.019 427.187 529.05C427.173 529.081 427.162 529.106 427.156 529.121C427.155 529.124 427.153 529.127 427.153 529.13C427.152 529.131 427.151 529.133 427.151 529.133C427.151 529.134 427.151 529.132 427.152 529.131C427.153 529.129 427.154 529.126 427.156 529.121C427.158 529.116 427.161 529.108 427.165 529.1C427.169 529.092 427.173 529.08 427.179 529.067C427.185 529.054 427.193 529.037 427.202 529.017C427.211 528.998 427.223 528.973 427.238 528.944L429.464 530.081L431.691 531.218C431.705 531.19 431.717 531.165 431.727 531.145C431.736 531.125 431.744 531.108 431.75 531.095C431.756 531.081 431.761 531.07 431.764 531.061C431.768 531.052 431.771 531.045 431.773 531.04C431.775 531.035 431.777 531.031 431.778 531.029C431.778 531.027 431.779 531.026 431.779 531.026C431.78 531.025 431.778 531.029 431.775 531.035C431.77 531.049 431.76 531.072 431.747 531.101C431.734 531.13 431.718 531.164 431.699 531.202L429.468 530.073ZM429.464 530.081L427.228 528.963C427.138 529.145 426.946 529.254 426.743 529.238L426.552 531.731L426.362 534.224C428.59 534.394 430.7 533.198 431.7 531.198L429.464 530.081ZM426.552 531.731L426.743 529.238L132.243 506.738L132.052 509.231L131.862 511.724L426.362 534.224L426.552 531.731ZM132.052 509.231L132.243 506.738C132.069 506.725 131.916 506.623 131.836 506.469L129.615 507.616L127.393 508.762C128.268 510.458 129.96 511.578 131.862 511.724L132.052 509.231ZM129.615 507.616L131.836 506.469C127.908 498.859 120.085 492.919 110.463 488.093L109.342 490.327L108.221 492.562C117.501 497.217 124.188 502.553 127.393 508.762L129.615 507.616ZM109.342 490.327L110.463 488.093C100.85 483.271 89.5119 479.594 78.6431 476.471L77.9526 478.873L77.2622 481.276C88.0733 484.383 99.0419 487.958 108.221 492.562L109.342 490.327ZM77.9526 478.873L78.6431 476.471C67.7997 473.355 57.384 470.78 49.7148 468.182L48.9126 470.55L48.1105 472.918C55.9132 475.561 66.7153 478.245 77.2622 481.276L77.9526 478.873ZM48.9126 470.55L49.7148 468.182C45.8794 466.883 42.6837 465.563 40.4398 464.143L39.103 466.255L37.7662 468.368C40.5313 470.118 44.191 471.59 48.1105 472.918L48.9126 470.55ZM39.103 466.255L40.4398 464.143C38.2119 462.733 36.7808 461.134 36.7808 459.24H34.2808H31.7808C31.7808 463.903 35.2935 466.803 37.7662 468.368L39.103 466.255ZM34.2808 459.24H36.7808C36.7808 455.78 38.5916 453.367 41.1978 451.388L39.686 449.397L38.1743 447.406C34.8767 449.909 31.7808 453.632 31.7808 459.24H34.2808ZM39.686 449.397L41.1978 451.388C43.7708 449.435 47.219 447.835 50.5446 446.05L49.3618 443.847L48.179 441.645C45.2546 443.215 41.1629 445.137 38.1743 447.406L39.686 449.397ZM49.3618 443.847L50.5446 446.05C53.9096 444.243 57.2157 442.215 59.6839 439.366L57.7944 437.729L55.9049 436.092C54.0708 438.209 51.4598 439.883 48.179 441.645L49.3618 443.847ZM57.7944 437.729L59.6839 439.366C61.915 436.79 63.49 433.507 63.7426 429.027L61.2466 428.886L58.7506 428.745C58.5629 432.073 57.4445 434.315 55.9049 436.092L57.7944 437.729ZM61.2466 428.886L59.4008 430.572C79.6273 452.715 110.066 466.74 152.281 466.74V464.24V461.74C111.254 461.74 82.2352 448.156 63.0924 427.2L61.2466 428.886ZM152.281 464.24V466.74H354.781V464.24V461.74H152.281V464.24ZM354.781 464.24V466.74C354.913 466.74 355.045 466.735 355.178 466.725L354.997 464.232L354.817 461.738C354.806 461.739 354.793 461.74 354.78 461.74L354.781 464.24ZM354.997 464.232L355.178 466.725C385.633 464.518 415.325 447.954 437.319 425.389L435.529 423.644L433.738 421.899C412.375 443.817 383.767 459.64 354.817 461.738L354.997 464.232ZM435.529 423.644L437.319 425.389C459.283 402.854 474.281 373.593 474.281 345.24H471.781H469.281C469.281 371.908 455.099 399.984 433.738 421.899L435.529 423.644ZM471.781 345.24H474.281C474.281 345.19 474.28 345.143 474.279 345.107L471.78 345.168L469.28 345.229C469.281 345.235 469.281 345.238 469.281 345.24C469.281 345.242 469.281 345.242 469.281 345.24H471.781ZM471.78 345.168L474.279 345.109C474.239 343.419 474.192 341.738 474.14 340.068L471.641 340.146L469.142 340.224C469.194 341.883 469.241 343.551 469.28 345.228L471.78 345.168ZM471.641 340.146L474.14 340.067C474.082 338.231 473.111 336.545 471.553 335.573L470.23 337.695L468.907 339.816C469.049 339.905 469.137 340.058 469.142 340.224L471.641 340.146ZM470.23 337.695L471.553 335.573C470.092 334.663 468.295 334.49 466.695 335.096L467.58 337.434L468.466 339.772C468.609 339.718 468.773 339.733 468.907 339.816L470.23 337.695ZM467.58 337.434L466.616 335.127L466.443 335.2L467.408 337.506L468.372 339.813L468.545 339.74L467.58 337.434ZM467.408 337.506L466.378 335.228C458.133 338.953 452.09 339.437 447.489 338.193L446.836 340.607L446.184 343.02C452.266 344.664 459.536 343.805 468.437 339.785L467.408 337.506ZM446.836 340.607L447.489 338.193C442.913 336.956 438.819 333.755 434.974 328.161L432.913 329.577L430.853 330.994C435.125 337.208 440.105 341.377 446.184 343.02L446.836 340.607ZM432.913 329.577L434.974 328.161C431.044 322.446 427.692 314.707 424.572 305.265C421.458 295.843 418.623 284.876 415.668 272.774L413.24 273.367L410.811 273.96C413.768 286.071 416.643 297.206 419.825 306.834C423 316.443 426.529 324.703 430.853 330.994L432.913 329.577ZM413.24 273.367L415.668 272.774C409.834 248.876 403.617 220.973 393.818 194.196L391.47 195.055L389.122 195.914C398.8 222.361 404.941 249.918 410.811 273.96L413.24 273.367ZM391.47 195.055L393.818 194.196C384.006 167.382 370.45 141.234 349.633 120.813L347.882 122.598L346.132 124.383C366.211 144.08 379.443 169.464 389.122 195.914L391.47 195.055ZM347.882 122.598L349.633 120.813C322.047 93.7529 279.436 82.1046 243.651 79.7188L243.485 82.2132L243.318 84.7077C278.54 87.0559 319.76 98.5139 346.132 124.383L347.882 122.598ZM243.485 82.2132L243.651 79.7188C225.675 78.5203 209.02 79.6279 196.353 82.4946L196.905 84.933L197.457 87.3713C209.546 84.6354 225.7 83.5331 243.318 84.7077L243.485 82.2132ZM196.905 84.933L196.353 82.4946C190.041 83.923 184.468 85.8438 180.166 88.3038L181.408 90.474L182.649 92.6441C186.363 90.5199 191.414 88.7388 197.457 87.3713L196.905 84.933ZM181.408 90.474L180.166 88.3038C176.028 90.6705 172.132 94.0837 170.945 98.9099L173.372 99.5072L175.8 100.104C176.5 97.258 178.954 94.7573 182.649 92.6441L181.408 90.474ZM173.372 99.5072L170.948 98.8967C169.019 106.558 170.083 113.411 174.73 118.629L176.597 116.966L178.464 115.303C175.2 111.639 174.156 106.632 175.797 100.118L173.372 99.5072ZM176.597 116.966L174.73 118.629C179.078 123.511 185.768 126.021 193.003 127.256L193.423 124.791L193.844 122.327C187.053 121.168 181.702 118.939 178.464 115.303L176.597 116.966ZM193.423 124.791L193.003 127.256C203.977 129.128 218.278 128.397 233.714 126.226L233.366 123.75L233.017 121.275C217.734 123.424 204.046 124.067 193.844 122.327L193.423 124.791ZM233.366 123.75L232.209 121.534C211.16 132.518 185.58 138.398 160.306 138.91L160.357 141.41L160.407 143.909C186.336 143.384 212.693 137.357 234.522 125.967L233.366 123.75ZM160.357 141.41L160.306 138.91C129.509 139.534 99.9683 132.182 80.07 117.332L78.5747 119.335L77.0795 121.339C98.1445 137.06 128.899 144.547 160.407 143.909L160.357 141.41ZM78.5747 119.335L80.07 117.332C78.8428 116.416 77.2884 116.053 75.782 116.331L76.2359 118.789L76.6897 121.248C76.8263 121.223 76.9677 121.256 77.0795 121.339L78.5747 119.335ZM76.2359 118.789L75.782 116.331C74.3685 116.592 73.1177 117.396 72.2922 118.562L74.3325 120.006L76.3728 121.451C76.4483 121.344 76.5621 121.271 76.6897 121.248L76.2359 118.789ZM74.3325 120.006L72.2548 118.616L72.1679 118.746L74.2456 120.136L76.3233 121.526L76.4102 121.397L74.3325 120.006ZM74.2456 120.136L72.1331 118.799C30.8496 184.038 26.7717 257.193 30.7687 305.806L33.2603 305.601L35.7519 305.396C31.8007 257.34 35.8856 185.43 76.3582 121.473L74.2456 120.136ZM33.2603 305.601L30.7981 305.167C30.7942 305.19 30.7902 305.212 30.7852 305.24C30.7805 305.266 30.775 305.297 30.7695 305.329L33.2319 305.76L35.6944 306.192C35.7095 306.105 35.7034 306.142 35.7224 306.034L33.2603 305.601ZM33.2319 305.76L35.6887 305.297C26.7752 258.013 27.0471 219.356 34.8514 185.831L32.4165 185.264L29.9816 184.697C21.9839 219.053 21.7662 258.432 30.7752 306.223L33.2319 305.76ZM32.4165 185.264L34.8514 185.831C42.6859 152.177 58.1037 123.724 79.3897 96.9284L77.4321 95.3734L75.4746 93.8184C53.8275 121.068 38.0169 150.18 29.9816 184.697L32.4165 185.264ZM77.4321 95.3734L79.3392 96.99L79.4642 96.8425L77.5571 95.2259L75.6501 93.6094L75.5251 93.7568L77.4321 95.3734ZM77.5571 95.2259L79.4101 96.9042C106.863 66.5928 149.855 48.311 193.186 38.4764L192.632 36.0384L192.079 33.6004C148.309 43.5347 104.153 62.1368 75.7042 93.5477L77.5571 95.2259Z" fill="#58362A"/>
</g>
</g>
<path id="Vector_10" d="M175.781 481.24C176.145 473.815 174.112 469.334 169.781 461.24H336.281C331.169 467.458 328.702 471.4 326.781 481.24H175.781Z" fill="#C58151"/>
<path id="Vector_11" d="M101.281 526.24C119.239 508.048 129.867 498.919 150.781 486.24V481.24H337.281L340.281 488.74C364.17 487.834 374.465 507.307 395.281 526.24H101.281Z" fill="#93702C"/>
<path id="Vector_12" d="M150.781 481.24C166.382 473.68 200.781 473.74 204.78 480.74C244.861 468.581 289.281 478.24 300.78 483.74C279.501 504.953 270.025 517.503 256.281 540.74C235.428 521.691 223.974 509.299 203.78 485.74C184.315 497.006 174.29 510.112 156.78 536.24C147.372 515.908 143.265 504.319 150.781 481.24Z" fill="#DEC4A1"/>
<path id="Vector_13" d="M197.125 85.9084C209.388 83.1332 225.692 82.0294 243.418 83.2112C278.808 85.5707 320.445 97.0854 347.181 123.312C367.482 143.226 380.812 168.838 390.531 195.398C400.245 221.944 406.408 249.605 412.267 273.604C418.166 297.765 423.71 317.956 432.089 330.144C436.232 336.172 440.946 340.051 446.575 341.573C452.213 343.097 459.115 342.349 467.819 338.417L467.997 338.347C468.419 338.203 468.88 338.204 469.304 338.353C478.89 341.715 484.269 348.567 486.047 356.99C487.799 365.297 486.031 374.98 481.768 384.261C473.34 402.612 454.749 420.252 431.739 423.616C410.606 445.327 383.017 461.199 354.924 463.235C354.876 463.238 354.828 463.239 354.78 463.24H152.28C101.152 463.24 68.2171 442.307 49.8191 411.9C31.5384 381.686 27.7719 342.393 34.2654 305.648C30.2826 257.425 34.3372 185.069 75.0896 120.67C75.3875 120.199 75.8689 119.874 76.4167 119.773C76.9645 119.672 77.5299 119.804 77.9763 120.137C98.6914 135.597 129.081 143.043 160.377 142.409C188.087 141.848 216.267 134.953 238.751 121.931C221.272 124.719 205.284 125.8 193.591 123.805C186.667 122.624 180.914 120.311 177.342 116.301C173.663 112.17 172.615 106.609 174.341 99.7512C175.187 96.3076 178.075 93.531 181.904 91.3411C185.794 89.1161 191.001 87.2942 197.125 85.9084Z" fill="#E49F61" stroke="#E49F61" stroke-width="4" stroke-linejoin="round"/>
<g id="Mask group_3">
<mask id="mask2_78_78" style="mask-type:alpha" maskUnits="userSpaceOnUse" x="93" y="384" width="104" height="39">
<g id="Group_3">
<path id="Vector_14" d="M100.78 408.74C87.2796 399.14 96.2795 384.59 102.78 387.24C104.785 388.057 106.787 388.784 108.78 389.427C115.079 391.458 121.295 392.653 127.28 393.219C136.714 394.112 145.574 393.446 153.28 392.04C161.216 390.592 167.927 388.361 172.779 386.24C193.279 377.279 206.279 402.74 188.779 411.24C181.612 415.755 173.395 418.805 164.78 420.515C153.472 422.761 141.479 422.698 130.28 420.613C120.517 418.795 111.357 415.439 103.78 410.734C102.75 410.094 101.749 409.429 100.78 408.74Z" fill="white"/>
</g>
</mask>
<g mask="url(#mask2_78_78)">
<g id="Group_4">
<path id="Vector_15" d="M100.78 408.74C87.2796 399.14 96.2795 384.59 102.78 387.24C104.785 388.057 106.787 388.784 108.78 389.427C115.079 391.458 121.295 392.653 127.28 393.219C136.714 394.112 145.574 393.446 153.28 392.04C161.216 390.592 167.927 388.361 172.779 386.24C193.279 377.279 206.279 402.74 188.779 411.24C181.612 415.755 173.395 418.805 164.78 420.515C153.472 422.761 141.479 422.698 130.28 420.613C120.517 418.795 111.357 415.439 103.78 410.734C102.75 410.094 101.749 409.429 100.78 408.74Z" fill="white"/>
<path id="Vector_16" d="M188.779 412.24L172.779 385.24M108.78 388.427L103.78 411.734M127.28 392.219L130.28 421.613M153.28 391.04L164.78 421.515" stroke="#E5E5E5" stroke-width="6" stroke-linejoin="round"/>
</g>
</g>
</g>
<path id="Vector_17" d="M200.474 300.678C201.795 276.124 210.08 253.013 231.746 230.624C245.114 226.538 256.06 227.762 266.352 228.519C282.228 229.687 302.76 236.544 315.788 250.358C325.68 260.846 332.973 271.012 338.035 280.734C381.549 364.299 263.221 412.035 210.522 351.492C201.391 341.001 199.407 320.509 200.474 300.678Z" fill="white"/>
<path id="Vector_18" d="M200.653 300.74C201.989 275.854 210.368 252.431 232.28 229.74C245.8 225.599 256.872 226.838 267.281 227.606C365.281 259.74 313.281 398.74 222.281 345.24C207.999 335.501 202.281 323.24 200.653 300.74Z" fill="#A16E45"/>
<path id="Vector_19" d="M267.281 230.606C280.28 231.564 304.104 240.24 317.28 254.24C327.285 264.869 334.661 273.673 339.781 283.526L361.281 290.74C341.781 235.74 276.281 206.74 241.781 222.24L229.28 232.74C242.8 228.599 256.872 229.838 267.281 230.606Z" fill="#56371A"/>
<path id="Vector_20" d="M252.979 261.74C247.972 279.597 238.061 292.416 221.279 297.064C240.392 303.571 245.565 311.639 250.648 327.74C256.242 311.472 263.901 301.674 283.279 297.064C265.445 292.828 256.706 282.234 252.979 261.74Z" fill="#E1CD66"/>
<path id="Vector_21" d="M35.781 292.24C36.2845 259.766 51.5989 230.49 78.3485 227.74C100.753 229.465 110.056 249.887 109.554 273.24L35.781 292.24Z" fill="#56371A"/>
<path id="Vector_22" d="M35.2803 352.74C28.7798 316.24 45.3406 245.486 81.7813 241.74C123.576 244.958 117.621 324.291 93.2808 358.24C74.2808 384.74 41.7807 389.24 35.2803 352.74Z" fill="white"/>
<path id="Vector_23" d="M38.2811 335.24C34.2801 304.24 45.3404 245.486 81.7811 241.74C123.576 244.958 115.264 311.24 91.7811 337.24C68.2978 363.24 45.3519 359.954 38.2811 335.24Z" fill="#A16E45"/>
<path id="Vector_24" d="M76.5131 267.74C71.9961 283.792 66.4197 296.986 51.2795 301.164C66.4197 307.014 66.4197 314.534 68.943 328.74C73.1486 312.863 78.7965 306.98 96.2795 302.836C80.2982 300.329 75.672 284.87 76.5131 267.74Z" fill="#E1CD66"/>
<path id="Vector_25" d="M246.781 165.24C232.781 165.24 231.281 149.74 244.781 139.24C259.781 127.573 317.902 127.027 337.781 168.24C343.281 189.24 326.59 195.448 317.281 185.74C301.28 165.24 274.78 161.74 246.781 165.24Z" fill="#58362A"/>
<path id="Vector_26" d="M91.2811 175.74C85.872 179.24 65.2806 179.74 55.7804 193.74C51.3413 200.282 35.1252 198.24 39.7809 184.74C49.781 155.74 70.7806 154.708 87.7809 157.24C99.7809 159.027 99.7811 170.24 91.2811 175.74Z" fill="#58362A"/>
</g>
</g>
</g>
<defs>
<clipPath id="clip0_78_78">
<rect width="1440" height="525" fill="white" transform="translate(-707)"/>
</clipPath>
<clipPath id="clip1_78_78">
<rect width="634" height="586" fill="white"/>
</clipPath>
</defs>
</svg>
