<svg preserveAspectRatio="none" width="100%" height="100%" overflow="visible" style="display: block;" viewBox="0 0 178.999 179.108" fill="none" xmlns="http://www.w3.org/2000/svg">
<path id="image 12" d="M51.8292 9.53898C66.5421 1.83212 91.1442 -0.767102 114.02 1.05949C125.469 1.97371 136.518 3.99924 145.716 7.06535C154.886 10.1221 162.284 14.2356 166.373 19.3769C175.239 29.4233 178.019 45.2096 178.44 58.8212C178.65 65.6423 178.269 71.9493 177.747 76.7704C177.486 79.1811 177.19 81.2237 176.915 82.7753C176.655 84.2435 176.404 85.3109 176.212 85.828C175.884 87.8334 176.129 89.5815 176.17 91.1737C176.207 92.6217 176.068 93.9903 174.896 94.9443C175.227 96.3726 175.31 97.4825 175.073 98.4716C174.831 99.4842 174.27 100.306 173.452 101.181C173.627 105.624 173.507 108.778 172.777 111.172C172.082 113.449 170.842 115.015 168.874 116.355C170.176 117.651 171.055 118.669 172.455 120.575C173.668 120.321 174.682 120.616 175.435 121.273C176.235 121.972 176.687 123.032 176.828 124.114C176.97 125.2 176.808 126.369 176.31 127.33C175.806 128.301 174.947 129.071 173.723 129.275L173.682 129.282H173.641C172.051 129.282 170.725 129.149 169.556 129.041C168.379 128.932 167.379 128.85 166.387 128.933C164.448 129.094 162.462 129.892 159.383 132.629L159.363 132.646C155.783 135.511 151.331 136.568 147.57 137.093C145.696 137.354 143.95 137.488 142.595 137.638C141.909 137.713 141.324 137.792 140.852 137.892C140.369 137.995 140.055 138.11 139.876 138.229L139.783 138.291L139.675 138.308C134.856 139.051 132.078 139.332 128.102 139.595C133.251 142.687 138.339 147.527 143.102 152.726C148.199 158.29 152.983 164.331 157.07 169.12C157.775 168.775 158.533 168.874 159.239 169.23C160.059 169.644 160.861 170.422 161.591 171.346C163.059 173.202 164.373 175.821 165.083 177.95L165.303 178.608H22.0763L22.4347 177.886C23.9317 174.87 25.1978 172.652 26.715 171.053C28.2328 169.452 29.9826 168.49 32.4035 167.917L34.3566 166.614C34.3845 166.581 34.4249 166.534 34.4767 166.473C34.5861 166.343 34.7476 166.152 34.9562 165.907C35.3735 165.416 35.9802 164.707 36.7355 163.832C38.2461 162.082 40.3543 159.669 42.7453 157.017C47.5215 151.72 53.4472 145.446 57.9914 141.601L58.0285 141.568L58.0724 141.544C60.3777 140.269 62.5606 139.774 64.5705 140.147C66.4286 140.492 68.0691 141.566 69.4777 143.31L72.1359 140.652C67.9613 137.776 63.1905 138.877 58.9542 140.787C56.7638 141.775 54.7739 142.953 53.1173 143.863C52.2974 144.314 51.5489 144.705 50.9113 144.96C50.3949 145.167 49.8687 145.319 49.4054 145.282C49.2551 145.363 49.0909 145.411 48.9435 145.439C48.6975 145.487 48.4136 145.5 48.1183 145.487C47.527 145.462 46.8287 145.328 46.1749 145.083C45.5263 144.839 44.8778 144.47 44.4308 143.943C44.1229 143.581 43.9164 143.147 43.8712 142.654C40.8108 143.365 38.2326 141.953 36.2423 140.397C35.1758 139.564 34.2291 138.648 33.4767 137.981C33.0922 137.641 32.7622 137.368 32.4777 137.181C32.1809 136.985 31.9986 136.926 31.9005 136.924L31.7013 136.919L31.5607 136.777C31.5139 136.73 31.4114 136.672 31.1525 136.662C30.8921 136.652 30.5502 136.694 30.1037 136.774C29.2402 136.93 28.0381 137.223 26.6652 137.355C23.8811 137.625 20.2886 137.26 16.3664 134.074L10.2648 131.363C5.90004 131.313 2.68212 128.344 0.899556 124.84L0.897603 124.837C0.497271 124.036 0.323316 122.875 0.7394 121.783C1.16705 120.662 2.18566 119.696 4.00893 119.264L4.09292 119.244L4.17983 119.253C8.50146 119.731 11.4668 120.9 16.9523 123.846C17.0383 123.3 17.0865 122.829 17.1261 122.404C17.1801 121.827 17.2235 121.293 17.3498 120.805C17.6169 119.771 18.2371 118.998 19.7414 118.001C20.4177 116.987 20.9486 116.209 21.3175 115.554C21.6983 114.877 21.8615 114.406 21.8615 114.018C21.8615 113.66 21.7207 113.298 21.298 112.837C20.864 112.363 20.169 111.827 19.131 111.135L19.0421 111.075L18.9845 110.983C17.1718 108.083 16.816 104.829 17.2648 101.957C17.6957 99.1993 18.8772 96.7458 20.2853 95.248C19.9353 89.4691 19.2534 84.8664 18.5695 81.0194C17.8803 77.1426 17.1776 73.9752 16.8283 71.1806L16.8244 71.1493V71.1181C16.8319 60.9096 16.9429 55.135 19.6193 44.5956C22.4438 33.3008 34.1558 18.9631 51.8263 9.54093L51.8292 9.53898Z" fill="var(--fill-0, #D9D9D9)" stroke="var(--stroke-0, black)"/>
</svg>
