<svg preserveAspectRatio="none" width="100%" height="100%" overflow="visible" style="display: block;" viewBox="0 0 186.999 187.108" fill="none" xmlns="http://www.w3.org/2000/svg">
<path id="image 10" d="M54.9021 11.7672C70.1085 3.80185 95.1604 1.22796 118.179 3.06602C129.747 3.9897 140.961 6.03846 150.348 9.16758C159.62 12.258 167.446 16.5135 171.903 22.0885C181.232 32.6894 184.017 49.0713 184.439 62.7594C184.653 69.6875 184.266 76.0881 183.736 80.985C183.471 83.434 183.169 85.5215 182.885 87.1236C182.654 88.4255 182.406 89.568 182.161 90.3121C181.913 91.9895 182.122 93.327 182.169 95.1227C182.201 96.3738 182.139 98.1081 181.057 99.5631C181.248 100.729 181.279 101.845 181.018 102.937C180.736 104.117 180.165 105.067 179.477 105.907C179.608 109.972 179.476 113.178 178.689 115.755C178.088 117.725 177.13 119.261 175.807 120.546C176.319 121.124 176.821 121.739 177.39 122.486C178.652 122.507 179.81 122.946 180.75 123.766C182.016 124.872 182.626 126.438 182.811 127.855C182.998 129.287 182.797 130.878 182.085 132.251C181.346 133.674 180.005 134.922 178.051 135.248C177.916 135.27 177.778 135.282 177.64 135.282C175.943 135.282 174.526 135.139 173.372 135.032C172.178 134.921 171.345 134.859 170.553 134.925C169.196 135.039 167.601 135.555 164.712 138.124C164.679 138.152 164.647 138.181 164.613 138.208C160.604 141.415 155.712 142.533 151.846 143.073C149.942 143.339 148.073 143.486 146.814 143.625C146.142 143.699 145.638 143.769 145.267 143.848C144.843 143.939 144.837 143.992 144.985 143.893C144.682 144.095 144.339 144.228 143.979 144.284C141.54 144.66 139.611 144.916 137.791 145.116C141.547 148.059 145.177 151.664 148.577 155.376C153.369 160.607 157.958 166.339 161.819 170.911C162.654 170.879 163.457 171.1 164.141 171.445C165.343 172.052 166.36 173.092 167.16 174.104C168.796 176.173 170.211 179.008 170.981 181.317C171.235 182.079 171.107 182.918 170.637 183.57C170.168 184.222 169.413 184.608 168.609 184.608H26.8825C26.0177 184.608 25.2144 184.16 24.7585 183.425C24.3027 182.69 24.2589 181.772 24.6433 180.997C26.1424 177.976 27.521 175.515 29.2644 173.676C31.0053 171.841 33.0119 170.722 35.5847 170.059L37.0115 169.108C37.1178 168.982 37.2595 168.815 37.4333 168.611C37.8534 168.117 38.4626 167.404 39.2214 166.525C40.7388 164.767 42.8574 162.344 45.2605 159.678C47.6221 157.059 50.2832 154.177 52.9343 151.458C52.6223 151.491 52.3154 151.498 52.0329 151.486C51.2303 151.451 50.3236 151.275 49.4724 150.956C48.6471 150.646 47.6541 150.119 46.906 149.238C46.7981 149.111 46.6975 148.977 46.6033 148.838C43.4369 148.966 40.8325 147.397 39.0115 145.973C37.8821 145.09 36.8136 144.066 36.1511 143.479C35.7987 143.167 35.5633 142.978 35.404 142.87C35.2107 142.829 35.0241 142.765 34.8464 142.681C34.7435 142.695 34.6171 142.714 34.4597 142.743C33.7458 142.872 32.3384 143.203 30.8581 143.346C27.7104 143.651 23.6488 143.22 19.323 139.799L13.8142 137.351C8.67507 137.106 5.04829 133.541 3.1179 129.747C3.11533 129.742 3.11263 129.736 3.11009 129.731C2.49821 128.507 2.22609 126.761 2.87083 125.07C3.57277 123.229 5.19283 121.875 7.54856 121.317L7.7595 121.277C7.97122 121.246 8.18681 121.242 8.40013 121.265C12.321 121.699 15.2217 122.681 19.3181 124.737C19.3455 124.592 19.3767 124.447 19.4138 124.303C19.8259 122.71 20.7882 121.621 22.2927 120.568C22.8783 119.692 23.2866 119.085 23.5749 118.573C23.6794 118.387 23.7446 118.248 23.7878 118.151C23.5173 117.868 22.9993 117.45 22.0222 116.798C21.727 116.602 21.4768 116.344 21.2888 116.044C19.1718 112.656 18.7815 108.895 19.2888 105.648C19.7131 102.933 20.7962 100.393 22.238 98.565C21.8814 93.2583 21.2429 88.9833 20.6003 85.3688C19.9332 81.6161 19.2017 78.2863 18.8445 75.4283C18.8315 75.325 18.8249 75.2209 18.8249 75.1168C18.8325 64.8501 18.9435 58.8812 21.6804 48.1031C24.6869 36.0934 36.8953 21.3676 54.8855 11.775C54.8908 11.7721 54.8967 11.77 54.9021 11.7672Z" stroke="var(--stroke-0, #7FA691)" stroke-width="5" stroke-linejoin="round"/>
</svg>
