<svg preserveAspectRatio="none" width="100%" height="100%" overflow="visible" style="display: block;" viewBox="0 0 537.473 510.239" fill="none" xmlns="http://www.w3.org/2000/svg">
<path id="Vector" d="M285.607 4.25669L285.308 6.73869C285.328 6.74109 285.348 6.74329 285.367 6.74519L285.607 4.25669ZM471.747 378.685L469.28 378.282C469.151 379.076 469.411 379.884 469.98 380.453L471.747 378.685ZM471.748 378.686L474.221 379.058C474.339 378.274 474.077 377.479 473.516 376.918L471.748 378.686ZM515.694 402.297L515.265 399.834C515.244 399.838 515.224 399.842 515.204 399.846L515.694 402.297ZM515.845 402.271L515.481 399.798C515.459 399.801 515.438 399.804 515.416 399.808L515.845 402.271ZM527.409 403.198L528.388 400.897H528.387L527.409 403.198ZM405.491 506.03L407.718 507.164L407.719 507.163L405.491 506.03ZM405.469 506.072L407.7 507.202L407.704 507.193L405.469 506.072ZM405.465 506.08L403.239 504.943C403.236 504.95 403.232 504.956 403.229 504.962L405.465 506.08ZM37.2475 404.885L39.0933 403.199C38.4148 402.456 37.3571 402.192 36.4092 402.53C35.4614 402.867 34.8081 403.74 34.7515 404.744L37.2475 404.885ZM447.781 321.167L445.281 321.227V321.228L447.781 321.167ZM447.642 316.145L450.141 316.067V316.066L447.642 316.145ZM443.581 313.433L442.696 311.095C442.67 311.105 442.643 311.115 442.617 311.126L443.581 313.433ZM443.409 313.505L442.444 311.199C442.423 311.208 442.401 311.217 442.379 311.227L443.409 313.505ZM149.373 75.5067L151.798 76.1175L151.801 76.1035L149.373 75.5067ZM209.367 99.7495L210.523 101.966C211.602 101.403 212.119 100.145 211.747 98.9865C211.376 97.8275 210.224 97.1045 209.018 97.2745L209.367 99.7495ZM50.3334 96.0055L48.2931 94.5615C48.2804 94.5785 48.2679 94.5975 48.2557 94.6155L50.3334 96.0055ZM50.2465 96.1355L48.1688 94.7455C48.157 94.7625 48.1453 94.7805 48.134 94.7985L50.2465 96.1355ZM9.26124 281.6L11.7233 282.033C11.7604 281.823 11.7703 281.608 11.7528 281.395L9.26124 281.6ZM9.23284 281.759L6.77614 282.222C6.99994 283.409 8.04084 284.267 9.24894 284.259C10.4571 284.251 11.4868 283.381 11.6953 282.191L9.23284 281.759ZM53.433 71.3729L51.526 69.7563C51.5089 69.7766 51.492 69.7971 51.4755 69.8179L53.433 71.3729ZM53.558 71.2254L51.7051 69.5472C51.6867 69.5675 51.6687 69.588 51.651 69.6089L53.558 71.2254ZM168.633 12.0379L169.187 14.4759C212.508 4.64339 256.247 3.23669 285.308 6.73869L285.607 4.25669L285.906 1.77459C256.239 -1.80041 211.924 -0.351112 168.08 9.59989L168.633 12.0379ZM285.607 4.25669L285.367 6.74519C309.607 9.07699 329.211 14.2793 347.115 23.0068L348.21 20.7596L349.306 18.5124C330.767 9.47539 310.563 4.14579 285.846 1.76819L285.607 4.25669ZM348.21 20.7596L347.115 23.0068C365.026 31.7377 381.213 43.9853 398.625 60.375L400.338 58.5545L402.052 56.7341C384.424 40.1412 367.824 27.5393 349.306 18.5124L348.21 20.7596ZM400.338 58.5545L398.625 60.375C492.956 149.167 485.276 280.285 469.28 378.282L471.747 378.685L474.215 379.088C490.211 281.086 498.438 147.459 402.052 56.7341L400.338 58.5545ZM471.747 378.685L469.98 380.453L469.981 380.454L471.748 378.686L473.516 376.918L473.515 376.917L471.747 378.685ZM471.748 378.686L469.276 378.313C468.507 383.417 469.706 387.977 472.423 391.826C475.101 395.621 479.172 398.618 484.024 400.876L485.079 398.61L486.134 396.343C481.8 394.326 478.534 391.814 476.508 388.944C474.521 386.127 473.647 382.863 474.221 379.058L471.748 378.686ZM485.079 398.61L484.024 400.876C493.706 405.383 506.286 406.728 516.184 404.749L515.694 402.297L515.204 399.846C506.328 401.621 494.833 400.392 486.134 396.343L485.079 398.61ZM515.694 402.297L516.123 404.76L516.274 404.734L515.845 402.271L515.416 399.808L515.265 399.834L515.694 402.297ZM515.845 402.271L516.21 404.744C520.498 404.112 523.878 404.412 526.43 405.498L527.409 403.198L528.387 400.897C524.694 399.326 520.3 399.088 515.481 399.798L515.845 402.271ZM527.409 403.198L526.43 405.498C528.998 406.591 530.692 408.466 531.615 410.893L533.952 410.004L536.288 409.116C534.904 405.474 532.262 402.546 528.388 400.897L527.409 403.198ZM533.952 410.004L531.615 410.893C533.439 415.692 532.234 422.599 529.137 429.936L531.44 430.909L533.743 431.881C536.946 424.294 538.835 415.815 536.288 409.116L533.952 410.004ZM531.44 430.909L529.137 429.936C526.027 437.304 520.96 445.224 514.883 452.118L516.758 453.771L518.634 455.424C525.023 448.176 530.399 439.804 533.743 431.881L531.44 430.909ZM516.758 453.771L514.883 452.118C508.808 459.009 501.699 464.905 494.489 468.194L495.527 470.468L496.564 472.743C504.617 469.069 512.27 462.644 518.634 455.424L516.758 453.771ZM495.527 470.468L494.49 468.193C494.473 468.201 494.46 468.206 494.45 468.21L495.291 470.564L496.133 472.918C496.282 472.865 496.426 472.806 496.564 472.743L495.527 470.468ZM495.291 470.564L494.45 468.21C484.007 471.942 471.557 472.691 459.906 473.14L460.002 475.638L460.099 478.136C471.675 477.69 484.866 476.944 496.133 472.918L495.291 470.564ZM460.002 475.638L459.906 473.14C454.067 473.365 448.432 473.514 443.314 473.919L443.511 476.411L443.708 478.904C448.693 478.509 454.166 478.365 460.099 478.136L460.002 475.638ZM443.511 476.411L443.314 473.919C438.195 474.324 433.632 474.982 429.94 476.213L430.731 478.584L431.521 480.956C434.627 479.921 438.705 479.299 443.708 478.904L443.511 476.411ZM430.731 478.584L429.94 476.213C422.598 478.66 415.927 485.796 411.06 492.41L413.074 493.892L415.087 495.374C419.883 488.857 425.766 482.874 431.521 480.956L430.731 478.584ZM413.074 493.892L411.06 492.41C408.636 495.705 406.676 498.845 405.323 501.163L407.482 502.423L409.641 503.684C410.93 501.475 412.794 498.491 415.087 495.374L413.074 493.892ZM407.482 502.423L405.323 501.163C404.646 502.321 404.122 503.273 403.767 503.934L405.97 505.117L408.173 506.299C408.503 505.684 408.998 504.784 409.641 503.684L407.482 502.423ZM405.97 505.117L403.767 503.934C403.589 504.266 403.455 504.524 403.365 504.697L405.585 505.846L407.806 506.995C407.886 506.84 408.009 506.604 408.173 506.299L405.97 505.117ZM405.585 505.846L403.365 504.697C403.326 504.772 403.287 504.847 403.262 504.897L405.491 506.03L407.719 507.163C407.734 507.135 407.759 507.085 407.806 506.995L405.585 505.846ZM405.491 506.03L403.263 504.895C403.26 504.9 403.258 504.906 403.254 504.913C403.253 504.916 403.25 504.92 403.247 504.926C403.245 504.931 403.24 504.94 403.235 504.95L405.469 506.072L407.704 507.193C407.702 507.196 407.701 507.199 407.7 507.2C407.699 507.202 407.699 507.203 407.699 507.203C407.699 507.203 407.699 507.203 407.699 507.202C407.7 507.201 407.7 507.199 407.701 507.197C407.705 507.191 407.711 507.179 407.718 507.164L405.491 506.03ZM405.469 506.072L403.239 504.943C403.219 504.983 403.202 505.018 403.188 505.049C403.174 505.08 403.163 505.105 403.157 505.12C403.156 505.123 403.154 505.126 403.154 505.129C403.153 505.13 403.152 505.132 403.152 505.132C403.152 505.133 403.152 505.131 403.153 505.13C403.154 505.128 403.155 505.125 403.157 505.12C403.159 505.115 403.162 505.107 403.166 505.099C403.17 505.091 403.174 505.079 403.18 505.066C403.186 505.053 403.194 505.037 403.203 505.017C403.212 504.998 403.224 504.972 403.239 504.943L405.465 506.08L407.692 507.217C407.706 507.189 407.718 507.165 407.728 507.145C407.737 507.125 407.745 507.107 407.751 507.094C407.757 507.08 407.762 507.069 407.765 507.06C407.769 507.051 407.772 507.044 407.774 507.039C407.776 507.034 407.778 507.03 407.779 507.028C407.779 507.026 407.78 507.025 407.78 507.025C407.781 507.024 407.779 507.028 407.776 507.034C407.771 507.048 407.761 507.071 407.748 507.1C407.735 507.129 407.719 507.164 407.7 507.202L405.469 506.072ZM405.465 506.08L403.229 504.962C403.139 505.144 402.947 505.253 402.744 505.237L402.553 507.73L402.363 510.223C404.591 510.393 406.701 509.197 407.701 507.197L405.465 506.08ZM402.553 507.73L402.744 505.237L108.244 482.737L108.053 485.23L107.863 487.723L402.363 510.223L402.553 507.73ZM108.053 485.23L108.244 482.737C108.07 482.724 107.917 482.622 107.837 482.468L105.616 483.615L103.394 484.761C104.269 486.457 105.961 487.577 107.863 487.723L108.053 485.23ZM105.616 483.615L107.837 482.468C103.909 474.858 96.086 468.918 86.464 464.092L85.343 466.326L84.222 468.561C93.502 473.216 100.189 478.552 103.394 484.761L105.616 483.615ZM85.343 466.326L86.464 464.092C76.851 459.27 65.5128 455.593 54.644 452.47L53.9535 454.872L53.2631 457.275C64.0742 460.382 75.0428 463.957 84.222 468.561L85.343 466.326ZM53.9535 454.872L54.644 452.47C43.8006 449.354 33.3849 446.779 25.7157 444.181L24.9135 446.549L24.1114 448.917C31.9141 451.56 42.7162 454.244 53.2631 457.275L53.9535 454.872ZM24.9135 446.549L25.7157 444.181C21.8803 442.882 18.6846 441.562 16.4407 440.142L15.1039 442.254L13.7671 444.367C16.5322 446.117 20.1919 447.589 24.1114 448.917L24.9135 446.549ZM15.1039 442.254L16.4407 440.142C14.2128 438.732 12.7817 437.133 12.7817 435.239H10.2817H7.78174C7.78174 439.902 11.2944 442.802 13.7671 444.367L15.1039 442.254ZM10.2817 435.239H12.7817C12.7817 431.779 14.5925 429.366 17.1987 427.387L15.6869 425.396L14.1752 423.405C10.8776 425.908 7.78174 429.631 7.78174 435.239H10.2817ZM15.6869 425.396L17.1987 427.387C19.7717 425.434 23.2199 423.834 26.5455 422.049L25.3627 419.846L24.1799 417.644C21.2555 419.214 17.1638 421.136 14.1752 423.405L15.6869 425.396ZM25.3627 419.846L26.5455 422.049C29.9105 420.242 33.2166 418.214 35.6848 415.365L33.7953 413.728L31.9058 412.091C30.0717 414.208 27.4607 415.882 24.1799 417.644L25.3627 419.846ZM33.7953 413.728L35.6848 415.365C37.9159 412.789 39.4909 409.506 39.7435 405.026L37.2475 404.885L34.7515 404.744C34.5638 408.072 33.4454 410.314 31.9058 412.091L33.7953 413.728ZM37.2475 404.885L35.4017 406.571C55.6282 428.714 86.067 442.739 128.282 442.739V440.239V437.739C87.255 437.739 58.2361 424.155 39.0933 403.199L37.2475 404.885ZM128.282 440.239V442.739H330.782V440.239V437.739H128.282V440.239ZM330.782 440.239V442.739C330.914 442.739 331.046 442.734 331.179 442.724L330.998 440.231L330.818 437.737C330.807 437.738 330.794 437.739 330.781 437.739L330.782 440.239ZM330.998 440.231L331.179 442.724C361.634 440.517 391.326 423.953 413.32 401.388L411.53 399.643L409.739 397.898C388.376 419.816 359.768 435.639 330.818 437.737L330.998 440.231ZM411.53 399.643L413.32 401.388C435.284 378.853 450.282 349.592 450.282 321.239H447.782H445.282C445.282 347.907 431.1 375.983 409.739 397.898L411.53 399.643ZM447.782 321.239H450.282C450.282 321.189 450.281 321.142 450.28 321.106L447.781 321.167L445.281 321.228C445.282 321.234 445.282 321.237 445.282 321.239C445.282 321.241 445.282 321.241 445.282 321.239H447.782ZM447.781 321.167L450.28 321.108C450.24 319.418 450.193 317.737 450.141 316.067L447.642 316.145L445.143 316.223C445.195 317.882 445.242 319.55 445.281 321.227L447.781 321.167ZM447.642 316.145L450.141 316.066C450.083 314.23 449.112 312.544 447.554 311.572L446.231 313.694L444.908 315.815C445.05 315.904 445.138 316.057 445.143 316.223L447.642 316.145ZM446.231 313.694L447.554 311.572C446.093 310.662 444.296 310.489 442.696 311.095L443.581 313.433L444.467 315.771C444.61 315.717 444.774 315.732 444.908 315.815L446.231 313.694ZM443.581 313.433L442.617 311.126L442.444 311.199L443.409 313.505L444.373 315.812L444.546 315.739L443.581 313.433ZM443.409 313.505L442.379 311.227C434.134 314.952 428.091 315.436 423.49 314.192L422.837 316.606L422.185 319.019C428.267 320.663 435.537 319.804 444.438 315.784L443.409 313.505ZM422.837 316.606L423.49 314.192C418.914 312.955 414.82 309.754 410.975 304.16L408.914 305.576L406.854 306.993C411.126 313.207 416.106 317.376 422.185 319.019L422.837 316.606ZM408.914 305.576L410.975 304.16C407.045 298.445 403.693 290.706 400.573 281.264C397.459 271.842 394.624 260.875 391.669 248.773L389.241 249.366L386.812 249.959C389.769 262.07 392.644 273.205 395.826 282.833C399.001 292.442 402.53 300.702 406.854 306.993L408.914 305.576ZM389.241 249.366L391.669 248.773C385.835 224.875 379.618 196.972 369.819 170.195L367.471 171.054L365.123 171.913C374.801 198.36 380.942 225.917 386.812 249.959L389.241 249.366ZM367.471 171.054L369.819 170.195C360.007 143.381 346.451 117.233 325.634 96.8125L323.883 98.5975L322.133 100.382C342.212 120.079 355.444 145.463 365.123 171.913L367.471 171.054ZM323.883 98.5975L325.634 96.8125C298.048 69.7524 255.437 58.1041 219.652 55.7183L219.486 58.2127L219.319 60.7072C254.541 63.0554 295.761 74.5134 322.133 100.382L323.883 98.5975ZM219.486 58.2127L219.652 55.7183C201.676 54.5198 185.021 55.6274 172.354 58.4941L172.906 60.9325L173.458 63.3708C185.547 60.6349 201.701 59.5326 219.319 60.7072L219.486 58.2127ZM172.906 60.9325L172.354 58.4941C166.042 59.9225 160.469 61.8433 156.167 64.3033L157.409 66.4735L158.65 68.6436C162.364 66.5194 167.415 64.7383 173.458 63.3708L172.906 60.9325ZM157.409 66.4735L156.167 64.3033C152.029 66.67 148.133 70.0832 146.946 74.9094L149.373 75.5067L151.801 76.1035C152.501 73.2575 154.955 70.7568 158.65 68.6436L157.409 66.4735ZM149.373 75.5067L146.949 74.8962C145.02 82.5575 146.084 89.4105 150.731 94.6285L152.598 92.9655L154.465 91.3025C151.201 87.6385 150.157 82.6315 151.798 76.1175L149.373 75.5067ZM152.598 92.9655L150.731 94.6285C155.079 99.5105 161.769 102.02 169.004 103.255L169.424 100.79L169.845 98.3265C163.054 97.1675 157.703 94.9385 154.465 91.3025L152.598 92.9655ZM169.424 100.79L169.004 103.255C179.978 105.127 194.279 104.396 209.715 102.225L209.367 99.7495L209.018 97.2745C193.735 99.4235 180.047 100.066 169.845 98.3265L169.424 100.79ZM209.367 99.7495L208.21 97.5335C187.161 108.517 161.581 114.397 136.307 114.909L136.358 117.409L136.408 119.908C162.337 119.383 188.694 113.356 210.523 101.966L209.367 99.7495ZM136.358 117.409L136.307 114.909C105.51 115.533 75.9692 108.181 56.0709 93.3315L54.5756 95.3345L53.0804 97.3385C74.1454 113.059 104.9 120.546 136.408 119.908L136.358 117.409ZM54.5756 95.3345L56.0709 93.3315C54.8437 92.4155 53.2893 92.0525 51.7829 92.3305L52.2368 94.7885L52.6906 97.2475C52.8272 97.2225 52.9686 97.2555 53.0804 97.3385L54.5756 95.3345ZM52.2368 94.7885L51.7829 92.3305C50.3694 92.5915 49.1186 93.3955 48.2931 94.5615L50.3334 96.0055L52.3737 97.4505C52.4492 97.3435 52.563 97.2705 52.6906 97.2475L52.2368 94.7885ZM50.3334 96.0055L48.2557 94.6155L48.1688 94.7455L50.2465 96.1355L52.3242 97.5255L52.4111 97.3965L50.3334 96.0055ZM50.2465 96.1355L48.134 94.7985C6.85054 160.037 2.77264 233.192 6.76964 281.805L9.26124 281.6L11.7528 281.395C7.80164 233.339 11.8865 161.429 52.3591 97.4725L50.2465 96.1355ZM9.26124 281.6L6.79904 281.166C6.79514 281.189 6.79114 281.211 6.78614 281.239C6.78144 281.265 6.77594 281.296 6.77044 281.328L9.23284 281.759L11.6953 282.191C11.7104 282.104 11.7043 282.141 11.7233 282.033L9.26124 281.6ZM9.23284 281.759L11.6896 281.296C2.77614 234.012 3.04804 195.355 10.8523 161.83L8.41744 161.263L5.98254 160.696C-2.01516 195.052 -2.23286 234.431 6.77614 282.222L9.23284 281.759ZM8.41744 161.263L10.8523 161.83C18.6868 128.176 34.1046 99.7235 55.3906 72.9279L53.433 71.3729L51.4755 69.8179C29.8284 97.0675 14.0178 126.179 5.98254 160.696L8.41744 161.263ZM53.433 71.3729L55.3401 72.9895L55.4651 72.842L53.558 71.2254L51.651 69.6089L51.526 69.7563L53.433 71.3729ZM53.558 71.2254L55.411 72.9037C82.864 42.5923 125.856 24.3105 169.187 14.4759L168.633 12.0379L168.08 9.59989C124.31 19.5342 80.154 38.1363 51.7051 69.5472L53.558 71.2254Z" fill="var(--fill-0, #58362A)"/>
</svg>
