<svg preserveAspectRatio="none" width="100%" height="100%" overflow="visible" style="display: block;" viewBox="0 0 102.868 451.668" fill="none" xmlns="http://www.w3.org/2000/svg">
<path id="Vector" d="M0 70.7769V0H102.575V70.3379C102.575 76.9809 102.185 82.8909 101.403 88.0689C100.719 93.2459 99.254 98.4729 97.007 103.748C94.858 109.023 91.927 113.419 88.215 116.936C84.6 120.453 79.667 123.286 73.415 125.435C67.162 127.682 59.787 128.806 51.288 128.806C43.668 128.806 36.829 127.634 30.772 125.289C24.716 122.944 19.782 119.867 15.972 116.057C12.26 112.247 9.13399 107.753 6.59399 102.576C4.15199 97.3979 2.44203 92.1719 1.46503 86.8959C0.488027 81.7189 0 76.3459 0 70.7769ZM27.988 68.4329C27.988 73.8059 29.014 78.3969 31.066 82.2069C33.215 86.0169 35.999 88.8009 39.418 90.5599C42.837 92.3179 46.745 93.1969 51.141 93.1969C58.175 93.1969 63.792 91.1949 67.993 87.1889C72.291 83.2819 74.44 77.0299 74.44 68.4329V34.1431H27.988V68.4329ZM0 134.687H102.868V168.83H0V134.687ZM102.868 180.766V294.332H74.294V214.909H65.209V289.349H37.806V214.909H28.574V294.332H0V180.766H102.868ZM0 391.149V363.014L45.133 337.663H0V303.52H102.868V344.257L45.866 377.521L102.868 410.785V451.668H0V417.525H45.426L0 391.149Z" fill="var(--fill-0, #E57C62)"/>
</svg>
