<svg preserveAspectRatio="none" width="100%" height="100%" overflow="visible" style="display: block;" viewBox="0 0 537.472 516.74" fill="none" xmlns="http://www.w3.org/2000/svg">
<path id="Vector" d="M168.08 9.59984C211.923 -0.351063 256.24 -1.80046 285.906 1.77464L285.905 1.77564C310.594 4.15614 330.782 9.48314 349.305 18.5129C367.823 27.5397 384.423 40.1416 402.052 56.7345C498.418 147.442 490.214 281.034 474.223 379.03C474.222 379.04 474.222 379.049 474.22 379.059C473.647 382.863 474.52 386.128 476.508 388.944C478.534 391.815 481.8 394.326 486.134 396.344L486.957 396.715C495.548 400.466 506.605 401.566 515.203 399.847L515.264 399.835L515.416 399.809L515.48 399.798C520.3 399.088 524.694 399.326 528.387 400.897C532.262 402.546 534.903 405.474 536.288 409.116C538.834 415.815 536.945 424.295 533.743 431.881C530.398 439.804 525.022 448.177 518.634 455.425C512.27 462.644 504.617 469.07 496.564 472.743H496.563C496.426 472.806 496.282 472.866 496.133 472.919C484.866 476.945 471.675 477.691 460.098 478.137C454.166 478.365 448.693 478.51 443.708 478.904C438.705 479.3 434.627 479.922 431.521 480.957C425.766 482.875 419.882 488.857 415.087 495.374C412.793 498.491 410.93 501.476 409.64 503.685C409.319 504.234 409.035 504.735 408.79 505.174L408.173 506.299L407.805 506.995C407.759 507.084 407.734 507.134 407.719 507.163V507.165C407.713 507.175 407.707 507.184 407.704 507.19C407.703 507.193 407.702 507.197 407.701 507.199L407.604 507.384C406.569 509.272 404.521 510.387 402.362 510.223L297.868 502.239H241.237C238.347 506.668 235.424 511.424 232.28 516.74C226.577 511.531 221.579 506.818 216.911 502.239H139.578C137.423 505.349 135.171 508.673 132.78 512.24C131.13 508.675 129.646 505.376 128.356 502.239H77.281C86.105 493.3 93.161 486.55 100.536 480.491C96.869 476.062 91.3 472.112 84.221 468.561C75.0421 463.957 64.0734 460.382 53.2625 457.275C42.7159 454.245 31.9138 451.561 24.1111 448.918C20.1916 447.59 16.5316 446.117 13.7664 444.367C11.2937 442.802 7.78107 439.902 7.78097 435.239C7.78117 429.632 10.8771 425.909 14.1746 423.405C17.163 421.136 21.2552 419.215 24.1795 417.644C27.4598 415.883 30.071 414.209 31.905 412.092C33.4443 410.315 34.5629 408.073 34.7507 404.746L34.7683 404.559C34.8014 404.308 34.8718 404.068 34.9744 403.845C30.9148 399.195 27.2968 394.207 24.1072 388.936C5.92927 358.891 1.92817 320.183 7.86497 283.849C7.31177 283.486 6.90597 282.91 6.77607 282.221C-2.23243 234.431 -2.01543 195.051 5.98217 160.696C14.0175 126.18 29.8284 97.0682 51.4754 69.8185L51.5252 69.757L51.6502 69.6095L51.7048 69.547C80.154 38.1365 124.31 19.534 168.08 9.59984ZM443.511 476.412C442.907 476.46 442.314 476.511 441.731 476.566L443.511 476.412ZM68.1863 459.304C69.526 459.763 70.8564 460.234 72.1736 460.718L72.1746 460.717C70.6019 460.139 69.0097 459.581 67.406 459.039C67.6663 459.127 67.9266 459.215 68.1863 459.304ZM332.077 437.136L333.353 437.014C333.355 437.013 333.357 437.013 333.358 437.013C332.931 437.057 332.504 437.098 332.077 437.136ZM15.1394 425.826C14.9638 425.969 14.7904 426.116 14.6199 426.266C14.9653 425.963 15.322 425.673 15.6863 425.396C15.502 425.536 15.3194 425.68 15.1394 425.826ZM486.833 399.378C486.964 399.432 487.098 399.482 487.23 399.535C487.088 399.479 486.946 399.424 486.805 399.366L486.833 399.378ZM422.053 319.503C422.63 319.659 423.217 319.791 423.814 319.902C423.419 319.829 423.027 319.746 422.64 319.652C422.443 319.605 422.247 319.556 422.053 319.503ZM124.625 120.266C125.113 120.287 125.602 120.308 126.092 120.326V120.325C125.602 120.307 125.113 120.287 124.625 120.266ZM69.155 107.488C70.1239 107.946 71.1047 108.39 72.0955 108.823C71.5079 108.566 70.9235 108.306 70.3435 108.04C69.5478 107.676 68.7592 107.303 67.9783 106.923L69.155 107.488ZM241.938 63.9211C241.716 63.8825 241.494 63.8427 241.272 63.8049C241.21 63.7943 241.148 63.7841 241.086 63.7736C241.37 63.8217 241.654 63.8717 241.938 63.9211ZM240.353 63.6515C240.086 63.6071 239.819 63.562 239.553 63.5187C239.396 63.4934 239.24 63.4694 239.084 63.4445C239.507 63.512 239.93 63.5813 240.353 63.6515ZM236.706 63.0783C236.511 63.0494 236.317 63.0197 236.123 62.9914C235.845 62.9509 235.567 62.9125 235.29 62.8732C235.761 62.94 236.233 63.0082 236.706 63.0783ZM229.313 62.1105C229.94 62.1816 230.568 62.2553 231.197 62.3322C230.568 62.2553 229.941 62.1806 229.314 62.1095L229.313 62.1105ZM162.659 13.4484C163.289 13.2938 163.92 13.1414 164.551 12.9904L164.582 12.9826C163.941 13.136 163.3 13.2912 162.659 13.4484ZM288.136 4.51293C288.053 4.50413 287.971 4.49514 287.888 4.48654L285.606 4.25704C286.455 4.33864 287.298 4.42423 288.136 4.51293Z" fill="var(--fill-0, #58362A)"/>
</svg>
