<svg preserveAspectRatio="none" width="100%" height="100%" overflow="visible" style="display: block;" viewBox="0 0 585.475 585.084" fill="none" xmlns="http://www.w3.org/2000/svg">
<path id="Vector" d="M309.906 25.7744L326.877 42.7449L361.771 7.8509L312.777 1.94678L309.906 25.7744ZM309.905 25.7754L292.934 8.8048L256.958 44.7816L307.602 49.6646L309.905 25.7754ZM498.223 403.03L474.537 399.165L474.491 399.446L474.452 399.727L498.223 403.03ZM498.22 403.059L521.953 406.635L521.957 406.602L521.962 406.569L498.22 403.059ZM510.134 420.344L500.006 442.102L500.138 442.164L500.271 442.224L510.134 420.344ZM510.957 420.715L501.094 442.595L501.223 442.653L501.352 442.709L510.957 420.715ZM539.203 423.847L534.712 400.271L534.604 400.291L534.496 400.313L539.203 423.847ZM539.264 423.835L535.146 400.191L534.96 400.223L534.774 400.259L539.264 423.835ZM539.416 423.809L535.47 400.135L535.384 400.15L535.297 400.165L539.416 423.809ZM539.48 423.798L535.982 400.054L535.758 400.087L535.535 400.124L539.48 423.798ZM552.387 424.897L561.786 402.814H561.785L552.387 424.897ZM560.288 433.116L582.722 424.589L582.721 424.587L560.288 433.116ZM542.634 479.425L560.638 495.295V495.294L542.634 479.425ZM520.564 496.743V520.743H525.78L530.525 518.579L520.564 496.743ZM520.563 496.743V472.743H515.348L510.603 474.907L520.563 496.743ZM467.708 502.904L465.816 478.979H465.815L467.708 502.904ZM455.521 504.957L447.933 482.188L447.932 482.189L455.521 504.957ZM439.087 519.374L419.756 505.149V505.15L439.087 519.374ZM432.79 529.174L411.837 517.47L411.792 517.55L411.748 517.63L432.79 529.174ZM432.173 530.299L411.131 518.755L411.036 518.929L410.944 519.104L432.173 530.299ZM431.805 530.995L410.576 519.8L410.532 519.884L410.488 519.969L431.805 530.995ZM431.719 531.163L410.331 520.277L410.292 520.353L410.253 520.43L431.719 531.163ZM431.719 531.165L453.111 542.044L453.148 541.971L453.185 541.898L431.719 531.165ZM431.704 531.19L410.425 520.091L410.313 520.305L410.205 520.522L431.704 531.19ZM431.701 531.199L452.961 542.335L453.252 541.779L453.514 541.209L431.701 531.199ZM431.604 531.384L452.65 542.919L452.759 542.72L452.864 542.52L431.604 531.384ZM426.362 534.223L424.534 558.153H424.536L426.362 534.223ZM321.868 526.239L323.696 502.309L322.783 502.239H321.868V526.239ZM265.237 526.239V502.239H252.24L245.138 513.124L265.237 526.239ZM256.28 540.74L240.093 558.46L261.9 578.381L276.937 552.959L256.28 540.74ZM240.911 526.239L257.716 509.105L250.716 502.239H240.911V526.239ZM163.578 526.239V502.239H151.008L143.849 512.572L163.578 526.239ZM156.78 536.24L134.999 546.319L152.938 585.084L176.717 549.601L156.78 536.24ZM152.356 526.239L174.553 517.113L168.438 502.239H152.356V526.239ZM101.281 526.239L84.2008 509.379L43.8671 550.239H101.281V526.239ZM124.536 504.491L139.771 523.035L158.385 507.743L143.023 489.187L124.536 504.491ZM37.7664 468.367L24.9324 488.647L24.9334 488.648L37.7664 468.367ZM31.781 459.239L7.78103 459.238V459.24L31.781 459.239ZM38.1746 447.405L23.6626 428.29L23.6614 428.291L38.1746 447.405ZM55.905 436.092L74.0437 451.808L74.0454 451.806L55.905 436.092ZM58.7507 428.746L34.8555 426.506L34.814 426.949L34.7889 427.393L58.7507 428.746ZM58.7683 428.559L34.9752 425.414L34.9156 425.865L34.8731 426.318L58.7683 428.559ZM58.9744 427.845L80.7866 437.856L87.2603 423.751L77.0538 412.061L58.9744 427.845ZM31.865 307.849L55.5509 311.719L58.067 296.319L45.0137 287.771L31.865 307.849ZM30.7761 306.221L7.19151 310.666L7.19153 310.667L30.7761 306.221ZM75.4754 93.8183L56.8215 78.7176L56.7519 78.8035L56.6832 78.89L75.4754 93.8183ZM75.5252 93.7568L57.2177 78.2379L57.0421 78.445L56.8713 78.656L75.5252 93.7568ZM75.6502 93.6093L57.5883 77.8052L57.4644 77.9469L57.3427 78.0904L75.6502 93.6093ZM75.7048 93.5468L57.9165 77.4356L57.7784 77.588L57.643 77.7427L75.7048 93.5468ZM467.51 500.412L469.584 524.322L465.618 476.487L467.51 500.412ZM465.731 500.566L463.467 476.673L467.805 524.477L465.731 500.566ZM101.648 486.844L92.5168 509.039L110.782 464.65L101.648 486.844ZM101.381 486.734L110.465 464.52L92.2953 508.948L101.381 486.734ZM96.1736 484.718L87.8957 507.245L102.296 512.536L113.144 501.688L96.1736 484.718ZM96.1746 484.717L113.145 501.687L139.693 475.139L104.453 462.19L96.1746 484.717ZM91.406 483.039L99.0961 460.304L83.714 505.773L91.406 483.039ZM90.4802 482.728L82.8898 505.496L98.0728 459.96L90.4802 482.728ZM89.6843 482.464L97.1926 459.669L82.1739 505.258L89.6843 482.464ZM88.5418 482.091L81.1461 504.923L95.9398 459.259L88.5418 482.091ZM87.8953 481.882L95.23 459.03L80.5582 504.733L87.8953 481.882ZM82.6814 480.264L75.7688 503.247L89.5954 457.281L82.6814 480.264ZM356.077 461.136L353.792 437.245L358.18 485.043L356.077 461.136ZM357.353 461.014L359.638 484.905L359.727 484.896L359.816 484.887L357.353 461.014ZM39.1394 449.826L23.9842 431.216L23.9838 431.217L39.1394 449.826ZM428.095 424.447L444.951 441.532L411.24 407.362L428.095 424.447ZM425.793 426.671L409.293 409.242L442.292 444.1L425.793 426.671ZM510.833 423.378L501.379 445.437L501.555 445.513L501.732 445.585L510.833 423.378ZM510.805 423.366L519.922 401.165L501.351 445.426L510.805 423.366ZM446.052 343.503H422.052V361.876L439.789 366.671L446.052 343.503ZM447.814 343.902L443.421 367.497L452.21 320.308L447.814 343.902ZM446.052 343.503L452.316 320.334L422.052 312.151V343.503H446.052ZM459.175 343.499L464.433 366.916L453.92 320.081L459.175 343.499ZM458.853 343.569L453.8 320.107L463.903 367.032L458.853 343.569ZM148.625 144.266L149.695 120.289L147.55 168.242L148.625 144.266ZM150.092 144.326L149.216 168.31L174.092 169.218V144.326H150.092ZM150.092 144.325H174.092V121.185L150.967 120.341L150.092 144.325ZM93.155 131.488L82.7607 153.121L82.8309 153.154L82.9013 153.188L93.155 131.488ZM96.0955 132.823L86.4782 154.812L105.717 110.836L96.0955 132.823ZM91.9783 130.923L102.373 109.29L81.4632 152.497L91.9783 130.923ZM265.938 87.9209L261.833 111.567L270.043 64.2745L265.938 87.9209ZM265.086 87.7734L269.095 64.1106L261.073 111.436L265.086 87.7734ZM264.353 87.6513L260.426 111.328L268.288 63.9761L264.353 87.6513ZM263.084 87.4443L266.869 63.7446L259.298 111.144L263.084 87.4443ZM260.706 87.0781L257.185 110.818L264.227 63.3378L260.706 87.0781ZM259.29 86.873L262.654 63.1099L255.924 110.636L259.29 86.873ZM258.917 86.8203L255.594 110.589L262.241 63.0517L258.917 86.8203ZM255.308 86.3457L258.233 62.5246L252.381 110.167L255.308 86.3457ZM253.313 86.1103L236.343 69.1398L201.138 104.344L250.607 109.957L253.313 86.1103ZM255.197 86.332L252.284 110.155L258.112 62.5097L255.197 86.332ZM253.314 86.1093L256.02 62.2624L244.525 60.9579L236.344 69.1388L253.314 86.1093ZM188.551 36.9902L194.138 60.3306L194.255 60.3027L194.371 60.2736L188.551 36.9902ZM188.582 36.9824L194.403 60.2658L182.996 13.6415L188.582 36.9824ZM311.888 28.4863L314.392 4.61721L314.341 4.61186L314.29 4.60673L311.888 28.4863ZM309.606 28.2568L311.904 4.36709L307.205 52.1364L309.606 28.2568ZM192.08 33.5996L197.392 57.0043C238.729 47.6222 280.275 46.3772 307.035 49.602L309.906 25.7744L312.777 1.94678C280.204 -1.97857 233.117 -0.32487 186.768 10.1948L192.08 33.5996ZM309.906 25.7744L292.935 8.80382L292.934 8.8048L309.905 25.7754L326.876 42.7459L326.877 42.7449L309.906 25.7744ZM309.905 25.7754L307.602 49.6646C330.005 51.8246 347.31 56.5404 362.789 64.086L373.305 42.5127L383.822 20.9394C362.253 10.4256 339.184 4.48708 312.208 1.88615L309.905 25.7754ZM373.305 42.5127L362.789 64.086C378.392 71.6921 393.01 82.5932 409.602 98.2103L426.052 80.7343L442.501 63.2584C423.836 45.6896 405.254 31.3871 383.822 20.9394L373.305 42.5127ZM426.052 80.7343L409.602 98.2103C496.109 179.637 490.523 301.195 474.537 399.165L498.223 403.03L521.91 406.895C537.905 308.873 548.727 163.247 442.501 63.2584L426.052 80.7343ZM498.223 403.03L474.452 399.727C474.42 399.954 474.396 400.155 474.377 400.322C474.358 400.488 474.344 400.629 474.333 400.735C474.323 400.841 474.316 400.926 474.312 400.973C474.309 400.997 474.308 401.017 474.307 401.026C474.306 401.033 474.305 401.045 474.306 401.037C474.306 401.035 474.31 400.988 474.315 400.928C474.321 400.866 474.33 400.767 474.342 400.646C474.354 400.525 474.371 400.369 474.393 400.188C474.415 400.006 474.443 399.791 474.479 399.548L498.22 403.059L521.962 406.569C521.999 406.324 522.027 406.106 522.049 405.923C522.071 405.739 522.088 405.581 522.1 405.457C522.113 405.334 522.122 405.233 522.128 405.168C522.133 405.106 522.138 405.056 522.138 405.052C522.139 405.043 522.138 405.054 522.137 405.059C522.137 405.068 522.135 405.086 522.133 405.109C522.129 405.154 522.122 405.236 522.112 405.339C522.102 405.443 522.088 405.582 522.069 405.746C522.051 405.91 522.026 406.108 521.995 406.334L498.223 403.03ZM498.22 403.059L474.488 399.482C472.976 409.519 475.41 419.004 480.899 426.783L500.508 412.944L520.116 399.106C520.718 399.959 521.363 401.2 521.739 402.765C522.117 404.336 522.094 405.698 521.953 406.635L498.22 403.059ZM500.508 412.944L480.899 426.783C486.055 434.089 493.185 438.927 500.006 442.102L510.134 420.344L520.262 398.585C519.857 398.397 519.562 398.237 519.363 398.118C519.164 398 519.078 397.934 519.082 397.937C519.086 397.94 519.197 398.025 519.378 398.209C519.56 398.394 519.822 398.689 520.116 399.106L500.508 412.944ZM510.134 420.344L500.271 442.224L501.094 442.595L510.957 420.715L520.82 398.835L519.996 398.464L510.134 420.344ZM510.957 420.715L501.352 442.709C514.441 448.425 530.493 450.064 543.909 447.381L539.203 423.847L534.496 400.313C530.716 401.069 524.655 400.508 520.561 398.72L510.957 420.715ZM539.203 423.847L543.694 447.423L543.755 447.411L539.264 423.835L534.774 400.259L534.712 400.271L539.203 423.847ZM539.264 423.835L543.383 447.479L543.534 447.453L539.416 423.809L535.297 400.165L535.146 400.191L539.264 423.835ZM539.416 423.809L543.361 447.482L543.426 447.471L539.48 423.798L535.535 400.124L535.47 400.135L539.416 423.809ZM539.48 423.798L542.978 447.542C543.476 447.468 543.853 447.436 544.118 447.424C544.248 447.418 544.345 447.417 544.411 447.418C544.477 447.418 544.508 447.421 544.506 447.421C544.505 447.421 544.359 447.409 544.096 447.349C543.829 447.287 543.448 447.176 542.99 446.981L552.387 424.897L561.785 402.814C552.613 398.911 543.347 398.969 535.982 400.054L539.48 423.798ZM552.387 424.897L542.99 446.981C541.969 446.546 540.84 445.814 539.834 444.75C538.843 443.702 538.214 442.592 537.854 441.645L560.288 433.116L582.721 424.587C579.121 415.116 571.933 407.132 561.786 402.814L552.387 424.897ZM560.288 433.116L537.854 441.645C537.246 440.047 537.597 439.467 537.409 440.794C537.23 442.054 536.701 444.015 535.632 446.548L557.743 455.881L579.854 465.214C583.562 456.428 588.734 440.405 582.722 424.589L560.288 433.116ZM557.743 455.881L535.632 446.547C533.413 451.804 529.519 458.008 524.629 463.555L542.634 479.425L560.638 495.294C568.526 486.346 575.384 475.804 579.854 465.214L557.743 455.881ZM542.634 479.425L524.629 463.555C519.656 469.198 514.607 473.081 510.604 474.908L520.564 496.743L530.525 518.579C542.627 513.058 552.884 504.091 560.638 495.295L542.634 479.425ZM520.564 496.743V472.743H520.563V496.743V520.743H520.564V496.743ZM520.563 496.743L510.603 474.907C510.98 474.736 511.469 474.529 512.056 474.319L520.133 496.919L528.209 519.519C529.095 519.203 529.871 518.876 530.523 518.579L520.563 496.743ZM520.133 496.919L512.056 474.319C504.741 476.933 495.104 477.695 483.174 478.154L484.098 502.137L485.023 526.119C496.246 525.686 512.992 524.957 528.209 519.519L520.133 496.919ZM484.098 502.137L483.174 478.154C477.692 478.366 471.437 478.534 465.816 478.979L467.708 502.904L469.6 526.83C473.949 526.486 478.639 526.365 485.023 526.119L484.098 502.137ZM467.708 502.904L465.815 478.979C460.257 479.419 453.85 480.216 447.933 482.188L455.521 504.957L463.11 527.726C463.11 527.726 463.595 527.57 464.798 527.373C465.971 527.18 467.537 526.993 469.6 526.83L467.708 502.904ZM455.521 504.957L447.932 482.189C440.621 484.625 434.829 489 430.753 492.726C426.484 496.627 422.785 501.034 419.756 505.149L439.087 519.374L458.417 533.599C460.184 531.197 461.825 529.355 463.136 528.156C463.769 527.577 464.156 527.306 464.271 527.231C464.402 527.146 464.012 527.425 463.111 527.725L455.521 504.957ZM439.087 519.374L419.756 505.15C416.835 509.12 414.509 512.852 412.915 515.583L433.64 527.685L454.366 539.786C455.351 538.1 456.752 535.863 458.417 533.599L439.087 519.374ZM433.64 527.685L412.915 515.583C412.508 516.28 412.147 516.914 411.837 517.47L432.79 529.174L453.743 540.877C453.923 540.555 454.131 540.189 454.366 539.786L433.64 527.685ZM432.79 529.174L411.748 517.63L411.131 518.755L432.173 530.299L453.214 541.842L453.831 540.717L432.79 529.174ZM432.173 530.299L410.944 519.104L410.576 519.8L431.805 530.995L453.034 542.19L453.402 541.494L432.173 530.299ZM431.805 530.995L410.488 519.969C410.441 520.06 410.402 520.137 410.368 520.203C410.352 520.235 410.339 520.261 410.33 520.277C410.317 520.303 410.325 520.287 410.331 520.277L431.719 531.163L453.108 542.049C453.113 542.041 453.117 542.033 453.12 542.027C453.123 542.021 453.126 542.016 453.127 542.012C453.129 542.008 453.131 542.005 453.132 542.003C453.134 542 453.134 541.999 453.135 541.997C453.137 541.993 453.136 541.996 453.133 542C453.131 542.005 453.128 542.01 453.126 542.014C453.125 542.016 453.124 542.018 453.124 542.019C453.123 542.021 453.123 542.021 453.123 542.021L431.805 530.995ZM431.719 531.163L410.253 520.43L410.252 520.432L431.719 531.165L453.185 541.898L453.186 541.896L431.719 531.163ZM431.719 531.165L410.326 520.286C410.559 519.828 410.767 519.456 410.915 519.199C410.99 519.068 411.054 518.959 411.102 518.878C411.15 518.799 411.187 518.738 411.203 518.711C411.208 518.704 411.211 518.698 411.213 518.694C411.215 518.693 411.215 518.691 411.216 518.69C411.217 518.689 411.217 518.688 411.217 518.688C411.219 518.686 411.212 518.697 411.204 518.71C411.189 518.734 411.144 518.808 411.088 518.902C411.031 518.998 410.942 519.149 410.836 519.336C410.73 519.522 410.587 519.78 410.425 520.091L431.704 531.19L452.983 542.29C452.821 542.6 452.679 542.856 452.575 543.04C452.47 543.225 452.382 543.374 452.326 543.468C452.271 543.56 452.227 543.632 452.214 543.654C452.206 543.666 452.2 543.676 452.202 543.673C452.202 543.672 452.204 543.669 452.207 543.665C452.209 543.661 452.213 543.655 452.218 543.647C452.235 543.618 452.274 543.554 452.323 543.473C452.372 543.39 452.438 543.279 452.514 543.146C452.665 542.884 452.876 542.507 453.111 542.044L431.719 531.165ZM431.704 531.19L410.205 520.522C409.838 521.262 409.559 521.92 409.352 522.449C409.145 522.978 408.989 523.433 408.879 523.774C408.768 524.114 408.686 524.392 408.637 524.564C408.589 524.729 408.553 524.861 408.551 524.871C408.543 524.897 408.553 524.863 408.556 524.851C408.563 524.827 408.576 524.778 408.594 524.715C408.627 524.595 408.692 524.368 408.78 524.084C408.868 523.799 408.998 523.401 409.17 522.932C409.342 522.463 409.577 521.867 409.888 521.19L431.701 531.199L453.514 541.209C453.825 540.53 454.061 539.934 454.233 539.464C454.405 538.994 454.535 538.596 454.623 538.31C454.712 538.025 454.777 537.797 454.81 537.677C454.828 537.614 454.842 537.564 454.848 537.54C454.852 537.527 454.861 537.493 454.854 537.519C454.852 537.527 454.816 537.659 454.769 537.823C454.72 537.995 454.638 538.272 454.528 538.611C454.417 538.951 454.261 539.405 454.054 539.934C453.848 540.462 453.569 541.12 453.202 541.859L431.704 531.19ZM431.701 531.199L410.441 520.063L410.344 520.248L431.604 531.384L452.864 542.52L452.961 542.335L431.701 531.199ZM431.604 531.384L410.558 519.849C414.046 513.484 420.938 509.739 428.189 510.292L426.362 534.223L424.536 558.153C436.103 559.036 447.092 553.06 452.65 542.919L431.604 531.384ZM426.362 534.223L428.19 510.292L323.696 502.309L321.868 526.239L320.04 550.169L424.534 558.153L426.362 534.223ZM321.868 526.239V502.239H265.237V526.239V550.239H321.868V526.239ZM265.237 526.239L245.138 513.124C242.001 517.932 238.887 523.003 235.623 528.522L256.28 540.74L276.937 552.959C279.961 547.845 282.694 543.405 285.337 539.355L265.237 526.239ZM256.28 540.74L272.467 523.021C266.931 517.964 262.144 513.448 257.716 509.105L240.911 526.239L224.105 543.373C229.013 548.187 234.223 553.097 240.093 558.46L256.28 540.74ZM240.911 526.239V502.239H163.578V526.239V550.239H240.911V526.239ZM163.578 526.239L143.849 512.572C141.6 515.819 139.273 519.253 136.843 522.879L156.78 536.24L176.717 549.601C179.068 546.094 181.247 542.88 183.306 539.906L163.578 526.239ZM156.78 536.24L178.561 526.161C176.96 522.701 175.646 519.77 174.553 517.113L152.356 526.239L130.159 535.366C131.646 538.982 133.3 542.648 134.999 546.319L156.78 536.24ZM152.356 526.239V502.239H101.281V526.239V550.239H152.356V526.239ZM101.281 526.239L118.361 543.099C126.979 534.369 133.354 528.308 139.771 523.035L124.536 504.491L109.3 485.947C100.968 492.793 93.2313 500.231 84.2008 509.379L101.281 526.239ZM124.536 504.491L143.023 489.187C136.407 481.195 127.601 475.432 118.982 471.109L108.221 492.561L97.4605 514.014C103 516.793 105.331 518.929 106.049 519.796L124.536 504.491ZM108.221 492.561L118.982 471.109C107.722 465.461 94.978 461.395 83.8908 458.209L77.2625 481.275L70.6341 504.342C81.1688 507.369 90.3618 510.453 97.4605 514.014L108.221 492.561ZM77.2625 481.275L83.8908 458.209C71.9282 454.771 62.9721 452.613 55.8117 450.187L48.1111 472.918L40.4105 495.649C48.8554 498.51 61.5034 501.718 70.6341 504.342L77.2625 481.275ZM48.1111 472.918L55.8117 450.187C54.2211 449.648 52.965 449.174 51.9892 448.754C50.9782 448.319 50.5854 448.077 50.5994 448.086L37.7664 468.367L24.9334 488.648C30.1978 491.979 36.0811 494.182 40.4105 495.649L48.1111 472.918ZM37.7664 468.367L50.6003 448.087C50.625 448.102 50.8393 448.238 51.1621 448.507C51.479 448.772 52.0443 449.284 52.682 450.092C54.0777 451.859 55.781 455.06 55.781 459.239H31.781L7.78103 459.24C7.78127 477.231 21.3433 486.376 24.9324 488.647L37.7664 468.367ZM31.781 459.239H55.781C55.7809 461.133 55.1852 463.091 54.2306 464.656C53.8105 465.345 53.4053 465.821 53.1335 466.105C52.8664 466.385 52.6931 466.516 52.6877 466.52L38.1746 447.405L23.6614 428.291C17.0765 433.29 7.78162 443.296 7.78103 459.238L31.781 459.239ZM38.1746 447.405L52.6865 466.521C52.6584 466.542 52.7989 466.435 53.1815 466.199C53.5553 465.969 54.0437 465.687 54.6855 465.337C55.3329 464.984 56.0231 464.623 56.8518 464.193C57.6006 463.805 58.609 463.285 59.5344 462.788L48.1795 441.645L36.8245 420.501C35.7718 421.066 28.6436 424.508 23.6626 428.29L38.1746 447.405ZM48.1795 441.645L59.5344 462.788C63.2088 460.815 69.1624 457.441 74.0437 451.808L55.905 436.092L37.7664 420.376C38.483 419.549 38.9942 419.219 38.8327 419.332C38.7607 419.382 38.575 419.507 38.2282 419.714C37.8808 419.921 37.4275 420.177 36.8245 420.501L48.1795 441.645ZM55.905 436.092L74.0454 451.806C78.9043 446.197 82.2125 438.957 82.7126 430.099L58.7507 428.746L34.7889 427.393C34.8325 426.621 35.0308 425.341 35.6558 423.83C36.284 422.31 37.0992 421.146 37.7647 420.378L55.905 436.092ZM58.7507 428.746L82.646 430.986L82.6635 430.799L58.7683 428.559L34.8731 426.318L34.8555 426.506L58.7507 428.746ZM58.7683 428.559L82.5615 431.703C82.2755 433.867 81.6667 435.939 80.7866 437.856L58.9744 427.845L37.1622 417.833C36.0769 420.198 35.3273 422.75 34.9752 425.414L58.7683 428.559ZM58.9744 427.845L77.0538 412.061C73.9423 408.497 71.1389 404.64 68.6412 400.512L48.1072 412.936L27.5732 425.359C31.4547 431.775 35.8872 437.893 40.895 443.629L58.9744 427.845ZM48.1072 412.936L68.6412 400.512C54.2592 376.741 50.2334 344.263 55.5509 311.719L31.865 307.849L8.17911 303.978C1.62295 344.103 5.59947 389.042 27.5732 425.359L48.1072 412.936ZM31.865 307.849L45.0137 287.771C49.7101 290.847 53.2362 295.809 54.3608 301.775L30.7761 306.221L7.19153 310.667C8.57587 318.01 12.9136 324.126 18.7163 327.926L31.865 307.849ZM30.7761 306.221L54.3608 301.775C45.8105 256.416 46.288 220.505 53.3572 190.138L29.9822 184.696L6.60725 179.255C-2.31886 217.598 -2.27536 260.445 7.19151 310.666L30.7761 306.221ZM29.9822 184.696L53.3572 190.138C60.4288 159.762 74.3541 133.814 94.2675 108.747L75.4754 93.8183L56.6832 78.89C33.3028 108.322 15.6064 140.598 6.60725 179.255L29.9822 184.696ZM75.4754 93.8183L94.1292 108.919L94.179 108.858L75.5252 93.7568L56.8713 78.656L56.8215 78.7176L75.4754 93.8183ZM75.5252 93.7568L93.8326 109.276L93.9576 109.128L75.6502 93.6093L57.3427 78.0904L57.2177 78.2379L75.5252 93.7568ZM75.6502 93.6093L93.712 109.413L93.7667 109.351L75.7048 93.5468L57.643 77.7427L57.5883 77.8052L75.6502 93.6093ZM75.7048 93.5468L93.4932 109.658C117.162 83.5251 155.731 66.46 197.392 57.0043L192.08 33.5996L186.768 10.1948C140.89 20.6076 91.1455 40.7475 57.9165 77.4356L75.7048 93.5468ZM467.51 500.412L465.618 476.487C464.898 476.544 464.181 476.606 463.467 476.673L465.731 500.566L467.996 524.459C468.446 524.417 468.915 524.376 469.403 524.337L467.51 500.412ZM465.731 500.566L467.805 524.477L469.584 524.322L467.51 500.412L465.437 476.502L463.658 476.656L465.731 500.566ZM101.648 486.844L110.78 464.649C110.668 464.603 110.468 464.521 110.465 464.52L101.381 486.734L92.2953 508.948C92.4709 509.02 92.4502 509.011 92.5168 509.039L101.648 486.844ZM101.381 486.734L92.2953 508.948C92.4764 509.022 92.4481 509.01 92.5145 509.038L101.648 486.844L110.782 464.65C110.703 464.617 110.631 464.588 110.581 464.567C110.52 464.543 110.498 464.534 110.466 464.52L101.381 486.734ZM92.1863 483.304L84.407 506.008C85.5937 506.415 86.7574 506.827 87.8957 507.245L96.1736 484.718L104.451 462.19C102.956 461.641 101.458 461.111 99.9655 460.599L92.1863 483.304ZM96.1736 484.718L113.144 501.688L113.145 501.687L96.1746 484.717L79.204 467.746L79.203 467.747L96.1736 484.718ZM96.1746 484.717L104.453 462.19C102.649 461.527 100.857 460.9 99.0961 460.304L91.406 483.039L83.7159 505.774C85.1624 506.263 86.5547 506.751 87.8966 507.244L96.1746 484.717ZM91.406 483.039L83.714 505.773C84.0236 505.878 84.2053 505.939 84.407 506.008L92.1863 483.304L99.9655 460.599C99.6479 460.491 99.3091 460.376 99.0981 460.305L91.406 483.039ZM90.4802 482.728L98.0707 459.959C97.7748 459.861 97.4818 459.764 97.1926 459.669L89.6843 482.464L82.1761 505.259C82.418 505.339 82.6557 505.418 82.8898 505.496L90.4802 482.728ZM89.6843 482.464L82.1739 505.258C82.4206 505.34 82.6574 505.418 82.8877 505.495L90.4802 482.728L98.0728 459.96C97.773 459.86 97.4792 459.763 97.1948 459.669L89.6843 482.464ZM88.5418 482.091L95.9374 459.259C95.7499 459.198 95.4858 459.112 95.23 459.03L87.8953 481.882L80.5606 504.734C80.7361 504.79 80.9028 504.844 81.1461 504.923L88.5418 482.091ZM87.8953 481.882L80.5582 504.733C80.7348 504.789 80.9089 504.846 81.1437 504.922L88.5418 482.091L95.9398 459.259C95.7438 459.196 95.4871 459.113 95.2324 459.031L87.8953 481.882ZM82.6814 480.264L89.594 457.281C88.6498 456.997 87.6933 456.712 86.7282 456.43L79.988 479.464L73.2479 502.498C74.0768 502.74 74.9162 502.99 75.7688 503.247L82.6814 480.264ZM79.988 479.464L73.2479 502.498C74.0776 502.741 74.9169 502.99 75.7674 503.246L82.6814 480.264L89.5954 457.281C88.6493 456.996 87.6925 456.712 86.7282 456.43L79.988 479.464ZM356.077 461.136L358.362 485.027L359.638 484.905L357.353 461.014L355.068 437.123L353.792 437.245L356.077 461.136ZM357.353 461.014L359.816 484.887C360.099 484.858 360.364 484.825 360.611 484.792C360.857 484.758 361.086 484.723 361.295 484.688C361.505 484.653 361.697 484.618 361.87 484.585C362.043 484.552 362.2 484.52 362.337 484.491C362.474 484.461 362.595 484.434 362.697 484.411C362.749 484.399 362.796 484.389 362.838 484.379C362.881 484.369 362.919 484.359 362.953 484.351C362.987 484.343 363.017 484.336 363.043 484.33C363.068 484.323 363.09 484.318 363.106 484.314C363.123 484.31 363.137 484.307 363.145 484.305C363.149 484.303 363.152 484.303 363.154 484.302C363.155 484.302 363.156 484.302 363.157 484.302C363.157 484.301 363.157 484.301 363.157 484.301C363.157 484.301 363.156 484.302 363.155 484.302C363.153 484.303 363.149 484.303 363.145 484.304C363.137 484.306 363.124 484.31 363.107 484.314C363.091 484.318 363.069 484.323 363.044 484.329C363.019 484.336 362.989 484.343 362.955 484.351C362.921 484.359 362.883 484.368 362.84 484.378C362.798 484.388 362.751 484.399 362.7 484.411C362.598 484.434 362.477 484.461 362.34 484.49C362.203 484.519 362.047 484.551 361.874 484.584C361.701 484.617 361.509 484.652 361.3 484.687C361.091 484.722 360.862 484.757 360.616 484.79C360.37 484.824 360.105 484.857 359.822 484.886L357.358 461.013L354.894 437.139C354.611 437.169 354.346 437.201 354.1 437.235C353.854 437.269 353.625 437.304 353.415 437.339C353.206 437.374 353.014 437.409 352.84 437.442C352.668 437.475 352.511 437.507 352.374 437.536C352.237 437.565 352.116 437.592 352.014 437.615C351.962 437.627 351.915 437.638 351.873 437.648C351.83 437.658 351.792 437.667 351.758 437.675C351.724 437.683 351.694 437.691 351.669 437.697C351.643 437.703 351.622 437.708 351.605 437.712C351.588 437.716 351.575 437.72 351.567 437.722C351.562 437.723 351.559 437.724 351.557 437.724C351.556 437.724 351.555 437.725 351.555 437.725C351.554 437.725 351.554 437.725 351.554 437.725C351.554 437.725 351.555 437.725 351.557 437.724C351.559 437.724 351.562 437.723 351.567 437.722C351.576 437.72 351.588 437.717 351.604 437.712C351.621 437.708 351.643 437.703 351.668 437.697C351.693 437.691 351.723 437.683 351.757 437.675C351.791 437.667 351.83 437.658 351.873 437.648C351.915 437.638 351.961 437.627 352.012 437.616C352.114 437.592 352.235 437.565 352.372 437.536C352.509 437.507 352.665 437.475 352.838 437.442C353.011 437.409 353.203 437.374 353.413 437.339C353.622 437.305 353.851 437.269 354.097 437.236C354.343 437.202 354.608 437.169 354.891 437.14L357.353 461.014ZM357.358 461.013L354.894 437.139C354.565 437.173 354.26 437.203 353.973 437.228L356.077 461.136L358.18 485.043C358.748 484.993 359.297 484.94 359.822 484.886L357.358 461.013ZM39.1394 449.826L23.9838 431.217C23.5691 431.555 23.1723 431.891 22.7941 432.223L38.6199 450.266L54.4457 468.308C54.4086 468.341 54.3585 468.384 54.295 468.435L39.1394 449.826ZM38.6199 450.266L54.4457 468.308C54.3342 468.406 54.2496 468.473 54.1993 468.511L39.6863 449.396L25.1733 430.282C24.3943 430.873 23.5966 431.519 22.7941 432.223L38.6199 450.266ZM39.6863 449.396L25.1733 430.282C24.79 430.573 24.3921 430.884 23.9842 431.216L39.1394 449.826L54.2946 468.436C54.2466 468.475 54.214 468.5 54.1993 468.511L39.6863 449.396ZM428.095 424.447L411.24 407.363C410.611 407.983 409.963 408.608 409.293 409.242L425.793 426.671L442.292 444.1C443.172 443.267 444.06 442.411 444.951 441.532L428.095 424.447ZM425.793 426.671L442.292 444.1C443.173 443.266 444.061 442.41 444.951 441.532L428.095 424.447L411.24 407.362C410.611 407.983 409.962 408.609 409.294 409.241L425.793 426.671ZM510.833 423.378L501.732 445.585C501.982 445.688 502.195 445.771 502.284 445.806C502.308 445.816 502.332 445.825 502.346 445.831C502.363 445.837 502.372 445.84 502.378 445.843C502.392 445.848 502.377 445.843 502.35 445.832L511.23 423.535L520.11 401.238C520.017 401.201 519.936 401.17 519.883 401.149C519.857 401.138 519.832 401.129 519.816 401.122C519.796 401.115 519.787 401.111 519.778 401.108C519.761 401.101 519.772 401.105 519.795 401.114C519.82 401.124 519.869 401.144 519.934 401.17L510.833 423.378ZM511.23 423.535L520.11 401.238C520.032 401.207 519.963 401.18 519.918 401.162C519.895 401.153 519.872 401.144 519.858 401.139C519.841 401.132 519.831 401.128 519.822 401.125C519.805 401.118 519.809 401.119 519.824 401.125C519.839 401.131 519.874 401.145 519.922 401.165L510.805 423.366L501.689 445.567C501.917 445.661 502.113 445.738 502.213 445.778C502.25 445.792 502.325 445.822 502.33 445.824C502.355 445.834 502.357 445.835 502.351 445.832L511.23 423.535ZM510.805 423.366L501.351 445.426L501.379 445.437L510.833 423.378L520.287 401.318L520.259 401.307L510.805 423.366ZM446.052 343.503L439.789 366.671C441.029 367.006 442.243 367.277 443.421 367.497L447.814 343.902L452.207 320.308C452.191 320.305 452.23 320.31 452.316 320.334L446.052 343.503ZM447.814 343.902L452.21 320.308C452.196 320.306 452.22 320.31 452.275 320.323L446.64 343.652L441.006 366.981C441.835 367.182 442.641 367.352 443.419 367.496L447.814 343.902ZM446.64 343.652L452.275 320.323C452.285 320.326 452.299 320.329 452.316 320.334L446.052 343.503L439.789 366.671C440.196 366.781 440.601 366.884 441.006 366.981L446.64 343.652ZM459.175 343.499L453.92 320.081C453.921 320.081 453.914 320.083 453.894 320.087C453.873 320.092 453.845 320.098 453.804 320.107L458.853 343.569L463.903 367.032C464.029 367.005 464.217 366.964 464.429 366.917L459.175 343.499ZM458.853 343.569L463.907 367.031C464.022 367.007 464.216 366.965 464.433 366.916L459.175 343.499L453.916 320.082C453.921 320.081 453.916 320.082 453.896 320.087C453.875 320.091 453.846 320.097 453.8 320.107L458.853 343.569ZM148.625 144.266L147.55 168.242C148.072 168.265 148.634 168.289 149.216 168.31L150.092 144.326L150.967 120.341C150.57 120.327 150.154 120.31 149.7 120.29L148.625 144.266ZM150.092 144.326H174.092V144.325H150.092H126.092V144.326H150.092ZM150.092 144.325L150.967 120.341C150.545 120.326 150.121 120.308 149.695 120.289L148.625 144.266L147.555 168.242C148.106 168.266 148.659 168.29 149.216 168.31L150.092 144.325ZM93.155 131.488L82.9013 153.188C84.109 153.758 85.3044 154.299 86.4782 154.812L96.0955 132.823L105.713 110.834C104.905 110.481 104.139 110.134 103.409 109.789L93.155 131.488ZM96.0955 132.823L105.717 110.836C105.226 110.621 104.769 110.417 104.338 110.22L94.3435 132.04L84.3491 153.86C85.0782 154.194 85.7897 154.511 86.4736 154.81L96.0955 132.823ZM94.3435 132.04L104.338 110.22C103.707 109.931 103.092 109.641 102.493 109.349L91.9783 130.923L81.4632 152.497C82.4264 152.966 83.389 153.42 84.3491 153.86L94.3435 132.04ZM91.9783 130.923L81.584 152.555L82.7607 153.121L93.155 131.488L103.549 109.856L102.373 109.29L91.9783 130.923ZM265.938 87.9209L270.043 64.2745C269.965 64.2609 269.895 64.2486 269.759 64.2247C269.641 64.2039 269.479 64.1755 269.303 64.1455L265.272 87.8047L261.242 111.464C261.457 111.501 261.387 111.49 261.833 111.567L265.938 87.9209ZM265.272 87.8047L269.303 64.1455C269.219 64.1313 269.145 64.1189 269.117 64.1143C269.075 64.1073 269.084 64.1088 269.098 64.1112L265.086 87.7734L261.073 111.436C261.115 111.443 261.151 111.449 261.178 111.453C261.204 111.458 261.229 111.462 261.241 111.464C261.276 111.469 261.263 111.467 261.242 111.464L265.272 87.8047ZM265.086 87.7734L261.077 111.436C261.297 111.474 261.479 111.506 261.833 111.567L265.938 87.9209L270.043 64.2745C269.829 64.2374 269.443 64.1696 269.095 64.1106L265.086 87.7734ZM264.353 87.6513L268.288 63.9761C268.12 63.9482 267.72 63.8807 267.391 63.8274L263.553 87.5185L259.714 111.21C259.919 111.243 260.052 111.266 260.419 111.327L264.353 87.6513ZM263.553 87.5185L267.391 63.8274C267.251 63.8047 267.123 63.7847 267.042 63.7719C266.945 63.7566 266.908 63.7509 266.87 63.7448L263.084 87.4443L259.298 111.144C259.752 111.216 259.495 111.174 259.714 111.21L263.553 87.5185ZM263.084 87.4443L259.299 111.144C259.662 111.202 260.035 111.263 260.426 111.328L264.353 87.6513L268.28 63.9748C267.824 63.8991 267.352 63.8218 266.869 63.7446L263.084 87.4443ZM260.706 87.0781L264.227 63.3378C264.225 63.3375 263.781 63.2707 263.58 63.2414L260.123 86.9912L256.666 110.741C256.854 110.768 256.798 110.761 257.184 110.818L260.706 87.0781ZM260.123 86.9912L263.58 63.2414C263.244 63.1926 262.828 63.1347 262.655 63.1102L259.29 86.873L255.924 110.636C256.306 110.69 256.446 110.709 256.666 110.741L260.123 86.9912ZM259.29 86.873L255.926 110.636C256.35 110.696 256.769 110.757 257.185 110.818L260.706 87.0781L264.227 63.3378C263.698 63.2594 263.173 63.1834 262.654 63.1099L259.29 86.873ZM258.917 86.8203L262.241 63.0517C261.618 62.9644 260.96 62.874 260.285 62.7851L257.154 86.58L254.023 110.375C254.522 110.441 255.039 110.512 255.592 110.589L258.917 86.8203ZM257.154 86.58L254.026 110.375C254.521 110.44 255.036 110.511 255.594 110.589L258.917 86.8203L262.239 63.0514C261.621 62.9649 260.961 62.874 260.282 62.7848L257.154 86.58ZM255.308 86.3457L252.383 110.167C252.937 110.235 253.484 110.304 254.026 110.375L257.154 86.58L260.282 62.7848C259.592 62.694 258.909 62.6075 258.233 62.5246L255.308 86.3457ZM257.154 86.58L260.285 62.7851C259.59 62.6937 258.906 62.6072 258.235 62.5248L255.308 86.3457L252.381 110.167C252.939 110.235 253.486 110.304 254.023 110.375L257.154 86.58ZM253.313 86.1103L250.607 109.957C251.175 110.022 251.733 110.087 252.284 110.155L255.197 86.332L258.11 62.5094C257.403 62.423 256.705 62.3412 256.019 62.2633L253.313 86.1103ZM255.197 86.332L258.112 62.5097C257.43 62.4263 256.731 62.3431 256.02 62.2624L253.314 86.1093L250.608 109.956C251.15 110.018 251.706 110.084 252.282 110.154L255.197 86.332ZM253.314 86.1093L236.344 69.1388L236.343 69.1398L253.313 86.1103L270.284 103.081L270.285 103.08L253.314 86.1093ZM186.659 37.4482L192.377 60.7572C192.954 60.6154 193.541 60.4737 194.138 60.3306L188.551 36.9902L182.963 13.6498C182.299 13.8086 181.624 13.9717 180.941 14.1392L186.659 37.4482ZM188.551 36.9902L194.371 60.2736L194.403 60.2658L188.582 36.9824L182.761 13.699L182.73 13.7068L188.551 36.9902ZM188.582 36.9824L182.996 13.6415C182.313 13.8049 181.628 13.9707 180.941 14.1392L186.659 37.4482L192.377 60.7572C192.971 60.6113 193.568 60.4667 194.168 60.3233L188.582 36.9824ZM312.135 28.5127L314.661 4.64596C314.643 4.64406 314.625 4.64209 314.575 4.6367C314.533 4.63222 314.466 4.62496 314.392 4.61721L311.888 28.4863L309.385 52.3554C309.533 52.3709 309.333 52.3501 309.61 52.3794L312.135 28.5127ZM311.888 28.4863L314.29 4.60673L312.007 4.37724L309.606 28.2568L307.205 52.1364L309.487 52.3659L311.888 28.4863ZM309.606 28.2568L307.308 52.1465C308.074 52.2202 308.84 52.298 309.61 52.3794L312.135 28.5127L314.661 4.64596C313.755 4.55006 312.836 4.45672 311.904 4.36709L309.606 28.2568Z" fill="var(--fill-0, #CB513C)"/>
</svg>
