<svg preserveAspectRatio="none" width="100%" height="100%" overflow="visible" style="display: block;" viewBox="0 0 532.473 505.239" fill="none" xmlns="http://www.w3.org/2000/svg">
<path id="Vector" d="M166.133 9.53792C209.716 -0.353881 253.743 -1.78188 283.107 1.75672C307.585 4.11142 327.489 9.37742 345.71 18.2596C363.925 27.1385 380.318 39.5632 397.838 56.0545C493.197 145.814 485.244 278.187 469.247 376.186L469.248 376.187C467.906 385.095 473.393 391.835 482.579 396.111C491.77 400.389 503.807 401.676 513.194 399.798L513.345 399.772C517.899 399.101 521.786 399.37 524.909 400.699C528.13 402.07 530.298 404.471 531.452 407.505C533.637 413.255 532.09 420.948 528.94 428.41C525.713 436.055 520.491 444.201 514.258 451.272C508.039 458.327 500.658 464.488 493.027 467.969C492.95 468.004 492.871 468.036 492.791 468.065C481.937 471.944 469.116 472.691 457.502 473.139C451.616 473.366 446.063 473.512 441.011 473.911C435.95 474.312 431.63 474.952 428.231 476.085C421.682 478.268 415.405 484.827 410.574 491.393C408.215 494.599 406.303 497.661 404.982 499.924C404.322 501.054 403.813 501.978 403.47 502.617C403.299 502.935 403.17 503.182 403.085 503.346C403.043 503.428 403.011 503.491 402.991 503.531C402.981 503.55 402.973 503.564 402.969 503.573C402.967 503.577 402.965 503.581 402.965 503.581C402.42 504.672 401.269 505.324 400.053 505.231L105.553 482.73C104.516 482.65 103.593 482.04 103.116 481.116C99.549 474.206 92.294 468.568 82.843 463.827C73.4471 459.114 62.2935 455.487 51.4535 452.372C40.7584 449.299 30.1495 446.67 22.4135 444.049C18.5361 442.736 15.1085 441.34 12.6039 439.755C10.2536 438.268 7.78174 436.018 7.78174 432.74C7.78174 428.206 10.2351 425.138 13.1869 422.897C15.9677 420.786 19.7377 419.024 22.8627 417.346C26.1856 415.562 29.1441 413.712 31.2953 411.229C33.1807 409.053 34.5274 406.289 34.7475 402.385C54.4321 423.935 84.161 437.74 125.782 437.74H328.282C328.354 437.74 328.426 437.737 328.498 437.732C358.201 435.579 387.351 419.385 409.03 397.144C430.692 374.919 445.282 346.25 445.282 318.74C445.282 318.716 445.281 318.692 445.281 318.668C445.241 316.985 445.194 315.31 445.142 313.646C445.111 312.644 444.581 311.725 443.731 311.195C442.934 310.698 441.953 310.604 441.081 310.934L440.909 311.006C432.336 314.879 425.679 315.551 420.337 314.107C415.01 312.667 410.473 308.981 406.414 303.077C398.161 291.071 392.652 271.08 386.741 246.867C380.888 222.897 374.71 195.167 364.971 168.555C355.225 141.923 341.831 116.157 321.383 96.0975C294.405 69.6329 252.489 58.0797 216.986 55.7127C199.188 54.5262 182.784 55.6311 170.406 58.4325C164.229 59.8304 158.916 61.6813 154.909 63.9735C150.992 66.2134 147.817 69.1704 146.873 73.0067C145.088 80.0945 146.142 86.0245 150.098 90.4655C153.891 94.7245 159.912 97.0945 166.924 98.2905C177.512 100.098 191.507 99.4105 206.867 97.2495C185.428 108.438 159.459 114.391 133.858 114.91C102.705 115.54 72.5573 108.121 52.0756 92.8345C51.4061 92.3355 50.5583 92.1375 49.7368 92.2885C48.9662 92.4315 48.2839 92.8695 47.8334 93.5055L47.7465 93.6355C6.86853 158.234 2.78714 230.766 6.76124 279.101C6.75184 279.154 6.74214 279.207 6.73284 279.26C-2.22836 231.723 -1.98356 192.704 5.91744 158.764C13.8523 124.678 29.4665 95.8955 50.933 68.8729L51.058 68.7254C79.009 37.8643 122.583 19.4224 166.133 9.53792Z" fill="var(--fill-0, #58362A)"/>
</svg>
