<svg preserveAspectRatio="none" width="100%" height="100%" overflow="visible" style="display: block;" viewBox="0 0 459.412 384.498" fill="none" xmlns="http://www.w3.org/2000/svg">
<path id="Vector" d="M167.819 5.1667C180.082 2.3915 196.386 1.2877 214.112 2.4695C249.502 4.829 291.139 16.3437 317.875 42.5703C338.176 62.4843 351.506 88.0963 361.225 114.656C370.939 141.202 377.102 168.863 382.961 192.862C388.86 217.023 394.404 237.214 402.783 249.402C406.926 255.43 411.64 259.309 417.269 260.831C422.907 262.355 429.809 261.607 438.513 257.675L438.691 257.605C439.113 257.461 439.573 257.462 439.997 257.611C449.583 260.973 454.963 267.825 456.741 276.248C458.493 284.555 456.725 294.238 452.462 303.519C444.034 321.87 425.443 339.51 402.433 342.874C381.3 364.585 353.711 380.457 325.618 382.493C325.57 382.496 325.522 382.497 325.474 382.498H122.974C71.8455 382.498 38.9105 361.565 20.5125 331.158C2.23182 300.944 -1.53468 261.651 4.95882 224.906C0.976024 176.683 5.03062 104.327 45.783 39.9283C46.0809 39.4573 46.5623 39.1323 47.1101 39.0313C47.6579 38.9303 48.2233 39.0623 48.6697 39.3953C69.3848 54.8553 99.7745 62.3013 131.071 61.6673C158.781 61.1063 186.961 54.2113 209.445 41.1893C191.966 43.9773 175.978 45.0583 164.285 43.0633C157.361 41.8823 151.608 39.5693 148.036 35.5593C144.357 31.4283 143.309 25.8673 145.035 19.0095C145.881 15.5659 148.769 12.7893 152.598 10.5994C156.488 8.3744 161.695 6.5525 167.819 5.1667Z" fill="var(--fill-0, #E49F61)" stroke="var(--stroke-0, #E49F61)" stroke-width="4" stroke-linejoin="round"/>
</svg>
