<svg preserveAspectRatio="none" width="100%" height="100%" overflow="visible" style="display: block;" viewBox="0 0 103.202 37.8318" fill="none" xmlns="http://www.w3.org/2000/svg">
<path id="mouth" d="M7.01512 24.3836C-6.48528 14.7836 2.51462 0.233612 9.01512 2.88361C11.0201 3.70061 13.0221 4.42762 15.0151 5.07062C21.3141 7.10162 27.5301 8.29662 33.5151 8.86262C42.9491 9.75562 51.8091 9.08963 59.5151 7.68363C67.4511 6.23563 74.1621 4.00461 79.0141 1.88361C99.5141 -7.07739 112.514 18.3836 95.0141 26.8836C87.8471 31.3986 79.6301 34.4486 71.0151 36.1586C59.7071 38.4046 47.7141 38.3416 36.5151 36.2566C26.7521 34.4386 17.5921 31.0826 10.0151 26.3776C8.98512 25.7376 7.98412 25.0726 7.01512 24.3836Z" fill="var(--fill-0, white)"/>
</svg>
